<?xml version="1.0" standalone="no"?>
<!DOCTYPE svg PUBLIC "-//W3C//DTD SVG 1.1//EN" "http://www.w3.org/Graphics/SVG/1.1/DTD/svg11.dtd" >
<svg xmlns="http://www.w3.org/2000/svg" xmlns:xlink="http://www.w3.org/1999/xlink" version="1.1">
<metadata></metadata>
<defs>
<font id="fontspring_demo_-_blood_oraBd" horiz-adv-x="1224" >
<font-face units-per-em="2048" ascent="1536" descent="-512" />
<missing-glyph horiz-adv-x="389" />
<glyph horiz-adv-x="681" />
<glyph horiz-adv-x="681" />
<glyph unicode="&#xd;" horiz-adv-x="681" />
<glyph unicode=" "  horiz-adv-x="389" />
<glyph unicode="&#x09;" horiz-adv-x="389" />
<glyph unicode="&#xa0;" horiz-adv-x="389" />
<glyph unicode="!" d="M129 154v292q61 9 76 9q67 0 96 -37.5t29 -116.5t-29.5 -115t-97.5 -36q-47 0 -74 4zM158 780q0 53 33.5 91t93.5 38q39 0 78 -21t69.5 -55t58.5 -74.5t48 -81.5t35 -75t22 -55l8 -21q-117 148 -319 148q-49 0 -88 30t-39 76zM188 201q4 -2 19 -2q37 0 50 25t13 77 q0 54 -13 78t-50 24q-13 0 -19 -2v-200zM377 154v297h155v-52h-96v-69h82v-49h-82v-78h96v-49h-155zM437 1128.5q-7 46.5 24 83.5q23 23 53 34t65 3.5t64 -35.5q38 -37 48.5 -102t-2.5 -131t-31.5 -126.5t-35.5 -98.5l-18 -39q20 191 -125 330q-35 35 -42 81.5zM571 154 q3 156 15 297h80l39 -164l38 164h82q3 -45 13 -297h-60q0 108 -6 213l-41 -168h-55l-41 168h-2q-4 -140 -4 -213h-58zM647 633q3 8 9 22t25 53.5t39 75.5t50 80.5t59.5 76t66 53.5t71.5 22q49 0 79.5 -24.5t39 -51t8.5 -53.5q0 -43 -34.5 -72.5t-72.5 -34.5 q-213 -23 -340 -147zM879 301q0 81 24 117.5t84 36.5t85.5 -37t25.5 -117q0 -79 -25.5 -115t-85.5 -36t-84 35.5t-24 115.5zM938 301q0 -54 10 -78t39 -24q30 0 40.5 24t10.5 78q0 55 -10 78.5t-41 23.5q-29 0 -39 -23.5t-10 -78.5z" />
<glyph unicode="&#x22;" d="M129 154v292q61 9 76 9q67 0 96 -37.5t29 -116.5t-29.5 -115t-97.5 -36q-47 0 -74 4zM158 780q0 53 33.5 91t93.5 38q39 0 78 -21t69.5 -55t58.5 -74.5t48 -81.5t35 -75t22 -55l8 -21q-117 148 -319 148q-49 0 -88 30t-39 76zM188 201q4 -2 19 -2q37 0 50 25t13 77 q0 54 -13 78t-50 24q-13 0 -19 -2v-200zM377 154v297h155v-52h-96v-69h82v-49h-82v-78h96v-49h-155zM437 1128.5q-7 46.5 24 83.5q23 23 53 34t65 3.5t64 -35.5q38 -37 48.5 -102t-2.5 -131t-31.5 -126.5t-35.5 -98.5l-18 -39q20 191 -125 330q-35 35 -42 81.5zM571 154 q3 156 15 297h80l39 -164l38 164h82q3 -45 13 -297h-60q0 108 -6 213l-41 -168h-55l-41 168h-2q-4 -140 -4 -213h-58zM647 633q3 8 9 22t25 53.5t39 75.5t50 80.5t59.5 76t66 53.5t71.5 22q49 0 79.5 -24.5t39 -51t8.5 -53.5q0 -43 -34.5 -72.5t-72.5 -34.5 q-213 -23 -340 -147zM879 301q0 81 24 117.5t84 36.5t85.5 -37t25.5 -117q0 -79 -25.5 -115t-85.5 -36t-84 35.5t-24 115.5zM938 301q0 -54 10 -78t39 -24q30 0 40.5 24t10.5 78q0 55 -10 78.5t-41 23.5q-29 0 -39 -23.5t-10 -78.5z" />
<glyph unicode="#" d="M129 154v292q61 9 76 9q67 0 96 -37.5t29 -116.5t-29.5 -115t-97.5 -36q-47 0 -74 4zM158 780q0 53 33.5 91t93.5 38q39 0 78 -21t69.5 -55t58.5 -74.5t48 -81.5t35 -75t22 -55l8 -21q-117 148 -319 148q-49 0 -88 30t-39 76zM188 201q4 -2 19 -2q37 0 50 25t13 77 q0 54 -13 78t-50 24q-13 0 -19 -2v-200zM377 154v297h155v-52h-96v-69h82v-49h-82v-78h96v-49h-155zM437 1128.5q-7 46.5 24 83.5q23 23 53 34t65 3.5t64 -35.5q38 -37 48.5 -102t-2.5 -131t-31.5 -126.5t-35.5 -98.5l-18 -39q20 191 -125 330q-35 35 -42 81.5zM571 154 q3 156 15 297h80l39 -164l38 164h82q3 -45 13 -297h-60q0 108 -6 213l-41 -168h-55l-41 168h-2q-4 -140 -4 -213h-58zM647 633q3 8 9 22t25 53.5t39 75.5t50 80.5t59.5 76t66 53.5t71.5 22q49 0 79.5 -24.5t39 -51t8.5 -53.5q0 -43 -34.5 -72.5t-72.5 -34.5 q-213 -23 -340 -147zM879 301q0 81 24 117.5t84 36.5t85.5 -37t25.5 -117q0 -79 -25.5 -115t-85.5 -36t-84 35.5t-24 115.5zM938 301q0 -54 10 -78t39 -24q30 0 40.5 24t10.5 78q0 55 -10 78.5t-41 23.5q-29 0 -39 -23.5t-10 -78.5z" />
<glyph unicode="$" d="M129 154v292q61 9 76 9q67 0 96 -37.5t29 -116.5t-29.5 -115t-97.5 -36q-47 0 -74 4zM158 780q0 53 33.5 91t93.5 38q39 0 78 -21t69.5 -55t58.5 -74.5t48 -81.5t35 -75t22 -55l8 -21q-117 148 -319 148q-49 0 -88 30t-39 76zM188 201q4 -2 19 -2q37 0 50 25t13 77 q0 54 -13 78t-50 24q-13 0 -19 -2v-200zM377 154v297h155v-52h-96v-69h82v-49h-82v-78h96v-49h-155zM437 1128.5q-7 46.5 24 83.5q23 23 53 34t65 3.5t64 -35.5q38 -37 48.5 -102t-2.5 -131t-31.5 -126.5t-35.5 -98.5l-18 -39q20 191 -125 330q-35 35 -42 81.5zM571 154 q3 156 15 297h80l39 -164l38 164h82q3 -45 13 -297h-60q0 108 -6 213l-41 -168h-55l-41 168h-2q-4 -140 -4 -213h-58zM647 633q3 8 9 22t25 53.5t39 75.5t50 80.5t59.5 76t66 53.5t71.5 22q49 0 79.5 -24.5t39 -51t8.5 -53.5q0 -43 -34.5 -72.5t-72.5 -34.5 q-213 -23 -340 -147zM879 301q0 81 24 117.5t84 36.5t85.5 -37t25.5 -117q0 -79 -25.5 -115t-85.5 -36t-84 35.5t-24 115.5zM938 301q0 -54 10 -78t39 -24q30 0 40.5 24t10.5 78q0 55 -10 78.5t-41 23.5q-29 0 -39 -23.5t-10 -78.5z" />
<glyph unicode="%" d="M129 154v292q61 9 76 9q67 0 96 -37.5t29 -116.5t-29.5 -115t-97.5 -36q-47 0 -74 4zM158 780q0 53 33.5 91t93.5 38q39 0 78 -21t69.5 -55t58.5 -74.5t48 -81.5t35 -75t22 -55l8 -21q-117 148 -319 148q-49 0 -88 30t-39 76zM188 201q4 -2 19 -2q37 0 50 25t13 77 q0 54 -13 78t-50 24q-13 0 -19 -2v-200zM377 154v297h155v-52h-96v-69h82v-49h-82v-78h96v-49h-155zM437 1128.5q-7 46.5 24 83.5q23 23 53 34t65 3.5t64 -35.5q38 -37 48.5 -102t-2.5 -131t-31.5 -126.5t-35.5 -98.5l-18 -39q20 191 -125 330q-35 35 -42 81.5zM571 154 q3 156 15 297h80l39 -164l38 164h82q3 -45 13 -297h-60q0 108 -6 213l-41 -168h-55l-41 168h-2q-4 -140 -4 -213h-58zM647 633q3 8 9 22t25 53.5t39 75.5t50 80.5t59.5 76t66 53.5t71.5 22q49 0 79.5 -24.5t39 -51t8.5 -53.5q0 -43 -34.5 -72.5t-72.5 -34.5 q-213 -23 -340 -147zM879 301q0 81 24 117.5t84 36.5t85.5 -37t25.5 -117q0 -79 -25.5 -115t-85.5 -36t-84 35.5t-24 115.5zM938 301q0 -54 10 -78t39 -24q30 0 40.5 24t10.5 78q0 55 -10 78.5t-41 23.5q-29 0 -39 -23.5t-10 -78.5z" />
<glyph unicode="&#x26;" d="M129 154v292q61 9 76 9q67 0 96 -37.5t29 -116.5t-29.5 -115t-97.5 -36q-47 0 -74 4zM158 780q0 53 33.5 91t93.5 38q39 0 78 -21t69.5 -55t58.5 -74.5t48 -81.5t35 -75t22 -55l8 -21q-117 148 -319 148q-49 0 -88 30t-39 76zM188 201q4 -2 19 -2q37 0 50 25t13 77 q0 54 -13 78t-50 24q-13 0 -19 -2v-200zM377 154v297h155v-52h-96v-69h82v-49h-82v-78h96v-49h-155zM437 1128.5q-7 46.5 24 83.5q23 23 53 34t65 3.5t64 -35.5q38 -37 48.5 -102t-2.5 -131t-31.5 -126.5t-35.5 -98.5l-18 -39q20 191 -125 330q-35 35 -42 81.5zM571 154 q3 156 15 297h80l39 -164l38 164h82q3 -45 13 -297h-60q0 108 -6 213l-41 -168h-55l-41 168h-2q-4 -140 -4 -213h-58zM647 633q3 8 9 22t25 53.5t39 75.5t50 80.5t59.5 76t66 53.5t71.5 22q49 0 79.5 -24.5t39 -51t8.5 -53.5q0 -43 -34.5 -72.5t-72.5 -34.5 q-213 -23 -340 -147zM879 301q0 81 24 117.5t84 36.5t85.5 -37t25.5 -117q0 -79 -25.5 -115t-85.5 -36t-84 35.5t-24 115.5zM938 301q0 -54 10 -78t39 -24q30 0 40.5 24t10.5 78q0 55 -10 78.5t-41 23.5q-29 0 -39 -23.5t-10 -78.5z" />
<glyph unicode="'" d="M129 154v292q61 9 76 9q67 0 96 -37.5t29 -116.5t-29.5 -115t-97.5 -36q-47 0 -74 4zM158 780q0 53 33.5 91t93.5 38q39 0 78 -21t69.5 -55t58.5 -74.5t48 -81.5t35 -75t22 -55l8 -21q-117 148 -319 148q-49 0 -88 30t-39 76zM188 201q4 -2 19 -2q37 0 50 25t13 77 q0 54 -13 78t-50 24q-13 0 -19 -2v-200zM377 154v297h155v-52h-96v-69h82v-49h-82v-78h96v-49h-155zM437 1128.5q-7 46.5 24 83.5q23 23 53 34t65 3.5t64 -35.5q38 -37 48.5 -102t-2.5 -131t-31.5 -126.5t-35.5 -98.5l-18 -39q20 191 -125 330q-35 35 -42 81.5zM571 154 q3 156 15 297h80l39 -164l38 164h82q3 -45 13 -297h-60q0 108 -6 213l-41 -168h-55l-41 168h-2q-4 -140 -4 -213h-58zM647 633q3 8 9 22t25 53.5t39 75.5t50 80.5t59.5 76t66 53.5t71.5 22q49 0 79.5 -24.5t39 -51t8.5 -53.5q0 -43 -34.5 -72.5t-72.5 -34.5 q-213 -23 -340 -147zM879 301q0 81 24 117.5t84 36.5t85.5 -37t25.5 -117q0 -79 -25.5 -115t-85.5 -36t-84 35.5t-24 115.5zM938 301q0 -54 10 -78t39 -24q30 0 40.5 24t10.5 78q0 55 -10 78.5t-41 23.5q-29 0 -39 -23.5t-10 -78.5z" />
<glyph unicode="(" d="M129 154v292q61 9 76 9q67 0 96 -37.5t29 -116.5t-29.5 -115t-97.5 -36q-47 0 -74 4zM158 780q0 53 33.5 91t93.5 38q39 0 78 -21t69.5 -55t58.5 -74.5t48 -81.5t35 -75t22 -55l8 -21q-117 148 -319 148q-49 0 -88 30t-39 76zM188 201q4 -2 19 -2q37 0 50 25t13 77 q0 54 -13 78t-50 24q-13 0 -19 -2v-200zM377 154v297h155v-52h-96v-69h82v-49h-82v-78h96v-49h-155zM437 1128.5q-7 46.5 24 83.5q23 23 53 34t65 3.5t64 -35.5q38 -37 48.5 -102t-2.5 -131t-31.5 -126.5t-35.5 -98.5l-18 -39q20 191 -125 330q-35 35 -42 81.5zM571 154 q3 156 15 297h80l39 -164l38 164h82q3 -45 13 -297h-60q0 108 -6 213l-41 -168h-55l-41 168h-2q-4 -140 -4 -213h-58zM647 633q3 8 9 22t25 53.5t39 75.5t50 80.5t59.5 76t66 53.5t71.5 22q49 0 79.5 -24.5t39 -51t8.5 -53.5q0 -43 -34.5 -72.5t-72.5 -34.5 q-213 -23 -340 -147zM879 301q0 81 24 117.5t84 36.5t85.5 -37t25.5 -117q0 -79 -25.5 -115t-85.5 -36t-84 35.5t-24 115.5zM938 301q0 -54 10 -78t39 -24q30 0 40.5 24t10.5 78q0 55 -10 78.5t-41 23.5q-29 0 -39 -23.5t-10 -78.5z" />
<glyph unicode=")" d="M129 154v292q61 9 76 9q67 0 96 -37.5t29 -116.5t-29.5 -115t-97.5 -36q-47 0 -74 4zM158 780q0 53 33.5 91t93.5 38q39 0 78 -21t69.5 -55t58.5 -74.5t48 -81.5t35 -75t22 -55l8 -21q-117 148 -319 148q-49 0 -88 30t-39 76zM188 201q4 -2 19 -2q37 0 50 25t13 77 q0 54 -13 78t-50 24q-13 0 -19 -2v-200zM377 154v297h155v-52h-96v-69h82v-49h-82v-78h96v-49h-155zM437 1128.5q-7 46.5 24 83.5q23 23 53 34t65 3.5t64 -35.5q38 -37 48.5 -102t-2.5 -131t-31.5 -126.5t-35.5 -98.5l-18 -39q20 191 -125 330q-35 35 -42 81.5zM571 154 q3 156 15 297h80l39 -164l38 164h82q3 -45 13 -297h-60q0 108 -6 213l-41 -168h-55l-41 168h-2q-4 -140 -4 -213h-58zM647 633q3 8 9 22t25 53.5t39 75.5t50 80.5t59.5 76t66 53.5t71.5 22q49 0 79.5 -24.5t39 -51t8.5 -53.5q0 -43 -34.5 -72.5t-72.5 -34.5 q-213 -23 -340 -147zM879 301q0 81 24 117.5t84 36.5t85.5 -37t25.5 -117q0 -79 -25.5 -115t-85.5 -36t-84 35.5t-24 115.5zM938 301q0 -54 10 -78t39 -24q30 0 40.5 24t10.5 78q0 55 -10 78.5t-41 23.5q-29 0 -39 -23.5t-10 -78.5z" />
<glyph unicode="*" d="M129 154v292q61 9 76 9q67 0 96 -37.5t29 -116.5t-29.5 -115t-97.5 -36q-47 0 -74 4zM158 780q0 53 33.5 91t93.5 38q39 0 78 -21t69.5 -55t58.5 -74.5t48 -81.5t35 -75t22 -55l8 -21q-117 148 -319 148q-49 0 -88 30t-39 76zM188 201q4 -2 19 -2q37 0 50 25t13 77 q0 54 -13 78t-50 24q-13 0 -19 -2v-200zM377 154v297h155v-52h-96v-69h82v-49h-82v-78h96v-49h-155zM437 1128.5q-7 46.5 24 83.5q23 23 53 34t65 3.5t64 -35.5q38 -37 48.5 -102t-2.5 -131t-31.5 -126.5t-35.5 -98.5l-18 -39q20 191 -125 330q-35 35 -42 81.5zM571 154 q3 156 15 297h80l39 -164l38 164h82q3 -45 13 -297h-60q0 108 -6 213l-41 -168h-55l-41 168h-2q-4 -140 -4 -213h-58zM647 633q3 8 9 22t25 53.5t39 75.5t50 80.5t59.5 76t66 53.5t71.5 22q49 0 79.5 -24.5t39 -51t8.5 -53.5q0 -43 -34.5 -72.5t-72.5 -34.5 q-213 -23 -340 -147zM879 301q0 81 24 117.5t84 36.5t85.5 -37t25.5 -117q0 -79 -25.5 -115t-85.5 -36t-84 35.5t-24 115.5zM938 301q0 -54 10 -78t39 -24q30 0 40.5 24t10.5 78q0 55 -10 78.5t-41 23.5q-29 0 -39 -23.5t-10 -78.5z" />
<glyph unicode="+" d="M129 154v292q61 9 76 9q67 0 96 -37.5t29 -116.5t-29.5 -115t-97.5 -36q-47 0 -74 4zM158 780q0 53 33.5 91t93.5 38q39 0 78 -21t69.5 -55t58.5 -74.5t48 -81.5t35 -75t22 -55l8 -21q-117 148 -319 148q-49 0 -88 30t-39 76zM188 201q4 -2 19 -2q37 0 50 25t13 77 q0 54 -13 78t-50 24q-13 0 -19 -2v-200zM377 154v297h155v-52h-96v-69h82v-49h-82v-78h96v-49h-155zM437 1128.5q-7 46.5 24 83.5q23 23 53 34t65 3.5t64 -35.5q38 -37 48.5 -102t-2.5 -131t-31.5 -126.5t-35.5 -98.5l-18 -39q20 191 -125 330q-35 35 -42 81.5zM571 154 q3 156 15 297h80l39 -164l38 164h82q3 -45 13 -297h-60q0 108 -6 213l-41 -168h-55l-41 168h-2q-4 -140 -4 -213h-58zM647 633q3 8 9 22t25 53.5t39 75.5t50 80.5t59.5 76t66 53.5t71.5 22q49 0 79.5 -24.5t39 -51t8.5 -53.5q0 -43 -34.5 -72.5t-72.5 -34.5 q-213 -23 -340 -147zM879 301q0 81 24 117.5t84 36.5t85.5 -37t25.5 -117q0 -79 -25.5 -115t-85.5 -36t-84 35.5t-24 115.5zM938 301q0 -54 10 -78t39 -24q30 0 40.5 24t10.5 78q0 55 -10 78.5t-41 23.5q-29 0 -39 -23.5t-10 -78.5z" />
<glyph unicode="," horiz-adv-x="442" d="M41 227q0 74 49.5 124t130.5 50q82 0 131 -52.5t49 -135.5q0 -70 -30 -136t-77.5 -112.5t-101 -78.5t-104.5 -42q-17 -3 -29 14q-10 14 2 21q48 29 82.5 59t48.5 52.5t21.5 41t7.5 28.5v10q-71 0 -125.5 45t-54.5 112z" />
<glyph unicode="-" d="M129 154v292q61 9 76 9q67 0 96 -37.5t29 -116.5t-29.5 -115t-97.5 -36q-47 0 -74 4zM158 780q0 53 33.5 91t93.5 38q39 0 78 -21t69.5 -55t58.5 -74.5t48 -81.5t35 -75t22 -55l8 -21q-117 148 -319 148q-49 0 -88 30t-39 76zM188 201q4 -2 19 -2q37 0 50 25t13 77 q0 54 -13 78t-50 24q-13 0 -19 -2v-200zM377 154v297h155v-52h-96v-69h82v-49h-82v-78h96v-49h-155zM437 1128.5q-7 46.5 24 83.5q23 23 53 34t65 3.5t64 -35.5q38 -37 48.5 -102t-2.5 -131t-31.5 -126.5t-35.5 -98.5l-18 -39q20 191 -125 330q-35 35 -42 81.5zM571 154 q3 156 15 297h80l39 -164l38 164h82q3 -45 13 -297h-60q0 108 -6 213l-41 -168h-55l-41 168h-2q-4 -140 -4 -213h-58zM647 633q3 8 9 22t25 53.5t39 75.5t50 80.5t59.5 76t66 53.5t71.5 22q49 0 79.5 -24.5t39 -51t8.5 -53.5q0 -43 -34.5 -72.5t-72.5 -34.5 q-213 -23 -340 -147zM879 301q0 81 24 117.5t84 36.5t85.5 -37t25.5 -117q0 -79 -25.5 -115t-85.5 -36t-84 35.5t-24 115.5zM938 301q0 -54 10 -78t39 -24q30 0 40.5 24t10.5 78q0 55 -10 78.5t-41 23.5q-29 0 -39 -23.5t-10 -78.5z" />
<glyph unicode="." horiz-adv-x="442" d="M41 176q0 69 53 118.5t127 49.5q75 0 127.5 -49.5t52.5 -118.5q0 -71 -52.5 -120.5t-127.5 -49.5q-74 0 -127 50t-53 120z" />
<glyph unicode="/" d="M129 154v292q61 9 76 9q67 0 96 -37.5t29 -116.5t-29.5 -115t-97.5 -36q-47 0 -74 4zM158 780q0 53 33.5 91t93.5 38q39 0 78 -21t69.5 -55t58.5 -74.5t48 -81.5t35 -75t22 -55l8 -21q-117 148 -319 148q-49 0 -88 30t-39 76zM188 201q4 -2 19 -2q37 0 50 25t13 77 q0 54 -13 78t-50 24q-13 0 -19 -2v-200zM377 154v297h155v-52h-96v-69h82v-49h-82v-78h96v-49h-155zM437 1128.5q-7 46.5 24 83.5q23 23 53 34t65 3.5t64 -35.5q38 -37 48.5 -102t-2.5 -131t-31.5 -126.5t-35.5 -98.5l-18 -39q20 191 -125 330q-35 35 -42 81.5zM571 154 q3 156 15 297h80l39 -164l38 164h82q3 -45 13 -297h-60q0 108 -6 213l-41 -168h-55l-41 168h-2q-4 -140 -4 -213h-58zM647 633q3 8 9 22t25 53.5t39 75.5t50 80.5t59.5 76t66 53.5t71.5 22q49 0 79.5 -24.5t39 -51t8.5 -53.5q0 -43 -34.5 -72.5t-72.5 -34.5 q-213 -23 -340 -147zM879 301q0 81 24 117.5t84 36.5t85.5 -37t25.5 -117q0 -79 -25.5 -115t-85.5 -36t-84 35.5t-24 115.5zM938 301q0 -54 10 -78t39 -24q30 0 40.5 24t10.5 78q0 55 -10 78.5t-41 23.5q-29 0 -39 -23.5t-10 -78.5z" />
<glyph unicode="0" horiz-adv-x="1245" d="M41 610q0 170 75 307t208 215t299 78q270 0 425.5 -164t155.5 -450q0 -168 -74.5 -305.5t-208 -216t-298.5 -78.5q-272 0 -427 165t-155 449zM406 784q0 -162 33.5 -318t100.5 -264t152 -108q30 0 53 9.5t38.5 23.5t26 40.5t16 49.5t8.5 63t3.5 68t0.5 76q0 92 -9.5 184 t-31.5 183.5t-54 161.5t-81 113.5t-109 43.5q-147 0 -147 -326z" />
<glyph unicode="1" horiz-adv-x="645" d="M41 1061q0 27 21.5 39.5t117.5 40.5q35 11 80.5 25t64 19.5t42.5 12t38 8.5t27 2q35 0 49.5 -21.5t14.5 -78.5v-864q0 -33 27 -68.5t54 -64.5t27 -48q0 -63 -172 -63h-199q-172 0 -172 63q0 19 27 48t54.5 64.5t27.5 68.5v680q0 32 -20 55.5t-44.5 34.5t-44.5 23t-20 24z " />
<glyph unicode="2" horiz-adv-x="1085" d="M49 922q46 117 184 202.5t338 85.5q211 0 328 -83.5t117 -227.5q0 -103 -95.5 -221.5t-248.5 -228t-355 -213.5h424q48 0 95 30.5t82 79.5q54 77 72.5 95t37.5 14q25 -9 -2 -197q-6 -47 -10 -74q-5 -37 -8 -58t-8 -43.5t-8 -33t-10 -21.5t-13 -14.5t-18 -7t-22.5 -4 t-29.5 -0.5h-764q-35 0 -53.5 22t-17.5 48t14 39q15 15 93 90t130.5 127.5t131.5 142.5t128 162t86 157.5t37 155.5q0 164 -115 164q-53 0 -96.5 -45t-99.5 -156q-56 -110 -87 -146.5t-75 -37.5q-47 -1 -91.5 29t-66 77.5t-4.5 90.5z" />
<glyph unicode="3" horiz-adv-x="1017" d="M51 225q-28 69 16 134.5t130 62.5q59 -3 95 -37.5t58 -128.5q23 -97 55 -127.5t87 -30.5q60 0 106.5 58t46.5 166q0 106 -68 166.5t-208 84.5q-24 5 -23 31t23 31q116 27 182.5 115.5t66.5 201.5q0 73 -26 118.5t-72 45.5q-45 0 -79.5 -29t-71.5 -104q-49 -97 -76 -125.5 t-64 -30.5q-68 -1 -109 61t-16 126q36 91 147.5 144.5t260.5 53.5q197 0 309.5 -84t112.5 -213q0 -104 -80 -185.5t-221 -119.5q161 -30 252.5 -101.5t91.5 -180.5q0 -147 -140 -238.5t-360 -91.5q-166 0 -276 62.5t-150 164.5z" />
<glyph unicode="4" d="M129 154v292q61 9 76 9q67 0 96 -37.5t29 -116.5t-29.5 -115t-97.5 -36q-47 0 -74 4zM158 780q0 53 33.5 91t93.5 38q39 0 78 -21t69.5 -55t58.5 -74.5t48 -81.5t35 -75t22 -55l8 -21q-117 148 -319 148q-49 0 -88 30t-39 76zM188 201q4 -2 19 -2q37 0 50 25t13 77 q0 54 -13 78t-50 24q-13 0 -19 -2v-200zM377 154v297h155v-52h-96v-69h82v-49h-82v-78h96v-49h-155zM437 1128.5q-7 46.5 24 83.5q23 23 53 34t65 3.5t64 -35.5q38 -37 48.5 -102t-2.5 -131t-31.5 -126.5t-35.5 -98.5l-18 -39q20 191 -125 330q-35 35 -42 81.5zM571 154 q3 156 15 297h80l39 -164l38 164h82q3 -45 13 -297h-60q0 108 -6 213l-41 -168h-55l-41 168h-2q-4 -140 -4 -213h-58zM647 633q3 8 9 22t25 53.5t39 75.5t50 80.5t59.5 76t66 53.5t71.5 22q49 0 79.5 -24.5t39 -51t8.5 -53.5q0 -43 -34.5 -72.5t-72.5 -34.5 q-213 -23 -340 -147zM879 301q0 81 24 117.5t84 36.5t85.5 -37t25.5 -117q0 -79 -25.5 -115t-85.5 -36t-84 35.5t-24 115.5zM938 301q0 -54 10 -78t39 -24q30 0 40.5 24t10.5 78q0 55 -10 78.5t-41 23.5q-29 0 -39 -23.5t-10 -78.5z" />
<glyph unicode="5" horiz-adv-x="1042" d="M51 225q-28 70 16.5 135.5t131.5 61.5q58 -2 93.5 -37t57.5 -129q20 -85 53.5 -121.5t90.5 -36.5q63 0 119.5 79.5t56.5 205.5q0 125 -63 198.5t-173 73.5q-56 0 -110 -25.5t-79 -48t-32 -34.5q-11 -19 -46.5 -14.5t-35.5 30.5q0 37 33 557q5 88 119 88h438 q112 0 144 5.5t50 31.5q27 38 43 33q33 -11 5 -150q-15 -87 -47.5 -120t-98.5 -33h-530l-21 -266q9 7 27.5 17.5t85.5 28t147 17.5q226 0 350.5 -97.5t124.5 -275.5t-145.5 -289.5t-366.5 -111.5q-167 0 -281.5 63t-156.5 164z" />
<glyph unicode="6" horiz-adv-x="1083" d="M41 602q0 163 72 302.5t199.5 222.5t281.5 83q153 0 267.5 -64.5t139.5 -144.5q20 -65 -14 -113t-104 -52q-49 -3 -83 25t-91 124q-75 125 -129 125q-74 0 -134.5 -115t-68.5 -329q102 106 272 106q180 0 286.5 -95.5t106.5 -266.5q0 -183 -131 -297.5t-356 -114.5 q-133 0 -234 47.5t-161 132t-89.5 191t-29.5 233.5zM375 547v2q5 -205 52 -327t128 -122q72 0 114 76t42 207q0 127 -42 199.5t-124 72.5q-103 0 -170 -108z" />
<glyph unicode="7" horiz-adv-x="997" d="M42 805.5q1 21.5 5.5 57t10.5 79.5q8 53 12 84q7 50 10.5 74.5t10.5 49t12.5 33t18.5 16t26 8.5t38 1h744q35 0 52 -21t16 -45.5t-11 -41.5q-13 -21 -63.5 -83t-73.5 -102q-59 -105 -119.5 -295.5t-148.5 -560.5q-6 -31 -20 -45t-42 -14h-260q-30 0 -37.5 16t6.5 54 q60 153 248.5 460.5t306.5 444.5h-440q-48 0 -94.5 -30.5t-81.5 -80.5q-53 -75 -72.5 -94t-38.5 -14q-9 3 -12.5 15.5t-2.5 34z" />
<glyph unicode="8" horiz-adv-x="1003" d="M41 270q0 97 70.5 156t201.5 98q-126 67 -186.5 151t-60.5 195q0 157 112.5 248.5t298.5 91.5q192 0 315 -79t123 -183q0 -52 -26 -95.5t-67 -69.5t-86.5 -41t-90.5 -17q166 -73 242 -164.5t76 -216.5q0 -66 -30.5 -127.5t-86.5 -110.5t-144.5 -78.5t-195.5 -29.5 q-215 0 -340 74.5t-125 197.5zM276 989q0 -54 74 -110.5t240 -128.5q40 30 66 83t26 111q0 75 -59.5 120.5t-147.5 45.5q-84 0 -141.5 -34.5t-57.5 -86.5zM291 285q0 -78 61.5 -132.5t159.5 -54.5q109 0 159 40.5t50 105.5q0 58 -77 115.5t-230 119.5q-8 3 -24.5 10.5 t-24.5 10.5q-74 -95 -74 -215z" />
<glyph unicode="9" horiz-adv-x="1083" d="M41 801q0 183 131 296t356 113q133 0 234 -47.5t161 -131.5t89.5 -190t29.5 -233q0 -122 -42.5 -234t-115.5 -195t-176 -132t-219 -49q-153 0 -267.5 65.5t-139.5 145.5q-20 63 14.5 111.5t104.5 54.5q49 3 83 -25.5t91 -124.5q42 -70 72 -97.5t57 -27.5q34 0 67.5 27 t62.5 79.5t49 140.5t24 198q-103 -107 -273 -107q-180 0 -286.5 96t-106.5 267zM373 827q0 -128 42.5 -201t123.5 -73q102 0 170 109q-5 204 -52 325t-129 121q-72 0 -113.5 -75t-41.5 -206z" />
<glyph unicode=":" horiz-adv-x="442" d="M41 231q0 71 52.5 120.5t127.5 49.5q74 0 127 -50t53 -120q0 -69 -53 -118.5t-127 -49.5q-75 0 -127.5 49.5t-52.5 118.5zM41 715q0 69 52.5 118.5t127.5 49.5q74 0 127 -49.5t53 -118.5q0 -70 -53 -120t-127 -50q-75 0 -127.5 49.5t-52.5 120.5z" />
<glyph unicode=";" horiz-adv-x="444" d="M41 227q0 74 49.5 124t130.5 50q82 0 131 -52.5t49 -135.5q0 -70 -30 -136t-77.5 -112.5t-101 -78.5t-104.5 -42q-17 -3 -29 14q-10 14 2 21q48 29 82.5 59t48.5 52.5t21.5 41t7.5 28.5v10q-71 0 -125.5 45t-54.5 112zM43 715q0 69 52.5 118.5t127.5 49.5t127.5 -49.5 t52.5 -118.5q0 -71 -52.5 -120.5t-127.5 -49.5t-127.5 49.5t-52.5 120.5z" />
<glyph unicode="&#x3c;" d="M129 154v292q61 9 76 9q67 0 96 -37.5t29 -116.5t-29.5 -115t-97.5 -36q-47 0 -74 4zM158 780q0 53 33.5 91t93.5 38q39 0 78 -21t69.5 -55t58.5 -74.5t48 -81.5t35 -75t22 -55l8 -21q-117 148 -319 148q-49 0 -88 30t-39 76zM188 201q4 -2 19 -2q37 0 50 25t13 77 q0 54 -13 78t-50 24q-13 0 -19 -2v-200zM377 154v297h155v-52h-96v-69h82v-49h-82v-78h96v-49h-155zM437 1128.5q-7 46.5 24 83.5q23 23 53 34t65 3.5t64 -35.5q38 -37 48.5 -102t-2.5 -131t-31.5 -126.5t-35.5 -98.5l-18 -39q20 191 -125 330q-35 35 -42 81.5zM571 154 q3 156 15 297h80l39 -164l38 164h82q3 -45 13 -297h-60q0 108 -6 213l-41 -168h-55l-41 168h-2q-4 -140 -4 -213h-58zM647 633q3 8 9 22t25 53.5t39 75.5t50 80.5t59.5 76t66 53.5t71.5 22q49 0 79.5 -24.5t39 -51t8.5 -53.5q0 -43 -34.5 -72.5t-72.5 -34.5 q-213 -23 -340 -147zM879 301q0 81 24 117.5t84 36.5t85.5 -37t25.5 -117q0 -79 -25.5 -115t-85.5 -36t-84 35.5t-24 115.5zM938 301q0 -54 10 -78t39 -24q30 0 40.5 24t10.5 78q0 55 -10 78.5t-41 23.5q-29 0 -39 -23.5t-10 -78.5z" />
<glyph unicode="=" d="M129 154v292q61 9 76 9q67 0 96 -37.5t29 -116.5t-29.5 -115t-97.5 -36q-47 0 -74 4zM158 780q0 53 33.5 91t93.5 38q39 0 78 -21t69.5 -55t58.5 -74.5t48 -81.5t35 -75t22 -55l8 -21q-117 148 -319 148q-49 0 -88 30t-39 76zM188 201q4 -2 19 -2q37 0 50 25t13 77 q0 54 -13 78t-50 24q-13 0 -19 -2v-200zM377 154v297h155v-52h-96v-69h82v-49h-82v-78h96v-49h-155zM437 1128.5q-7 46.5 24 83.5q23 23 53 34t65 3.5t64 -35.5q38 -37 48.5 -102t-2.5 -131t-31.5 -126.5t-35.5 -98.5l-18 -39q20 191 -125 330q-35 35 -42 81.5zM571 154 q3 156 15 297h80l39 -164l38 164h82q3 -45 13 -297h-60q0 108 -6 213l-41 -168h-55l-41 168h-2q-4 -140 -4 -213h-58zM647 633q3 8 9 22t25 53.5t39 75.5t50 80.5t59.5 76t66 53.5t71.5 22q49 0 79.5 -24.5t39 -51t8.5 -53.5q0 -43 -34.5 -72.5t-72.5 -34.5 q-213 -23 -340 -147zM879 301q0 81 24 117.5t84 36.5t85.5 -37t25.5 -117q0 -79 -25.5 -115t-85.5 -36t-84 35.5t-24 115.5zM938 301q0 -54 10 -78t39 -24q30 0 40.5 24t10.5 78q0 55 -10 78.5t-41 23.5q-29 0 -39 -23.5t-10 -78.5z" />
<glyph unicode="&#x3e;" d="M129 154v292q61 9 76 9q67 0 96 -37.5t29 -116.5t-29.5 -115t-97.5 -36q-47 0 -74 4zM158 780q0 53 33.5 91t93.5 38q39 0 78 -21t69.5 -55t58.5 -74.5t48 -81.5t35 -75t22 -55l8 -21q-117 148 -319 148q-49 0 -88 30t-39 76zM188 201q4 -2 19 -2q37 0 50 25t13 77 q0 54 -13 78t-50 24q-13 0 -19 -2v-200zM377 154v297h155v-52h-96v-69h82v-49h-82v-78h96v-49h-155zM437 1128.5q-7 46.5 24 83.5q23 23 53 34t65 3.5t64 -35.5q38 -37 48.5 -102t-2.5 -131t-31.5 -126.5t-35.5 -98.5l-18 -39q20 191 -125 330q-35 35 -42 81.5zM571 154 q3 156 15 297h80l39 -164l38 164h82q3 -45 13 -297h-60q0 108 -6 213l-41 -168h-55l-41 168h-2q-4 -140 -4 -213h-58zM647 633q3 8 9 22t25 53.5t39 75.5t50 80.5t59.5 76t66 53.5t71.5 22q49 0 79.5 -24.5t39 -51t8.5 -53.5q0 -43 -34.5 -72.5t-72.5 -34.5 q-213 -23 -340 -147zM879 301q0 81 24 117.5t84 36.5t85.5 -37t25.5 -117q0 -79 -25.5 -115t-85.5 -36t-84 35.5t-24 115.5zM938 301q0 -54 10 -78t39 -24q30 0 40.5 24t10.5 78q0 55 -10 78.5t-41 23.5q-29 0 -39 -23.5t-10 -78.5z" />
<glyph unicode="?" horiz-adv-x="962" d="M51 1014q36 91 147 144.5t259 53.5q197 0 310.5 -84t113.5 -213t-118.5 -222t-322.5 -122l-18 -92q-5 -32 -16 -44.5t-25.5 -3t-28.5 39.5q-18 39 -49 96q-27 60 12 68q115 27 182.5 116t67.5 201q0 72 -27 118t-73 46q-44 0 -79.5 -29.5t-72.5 -103.5 q-49 -97 -75.5 -125.5t-61.5 -30.5q-70 -1 -111 61t-14 126zM197 162q0 69 52.5 118.5t127.5 49.5q74 0 127 -49.5t53 -118.5q0 -70 -53 -120t-127 -50q-75 0 -127.5 49.5t-52.5 120.5z" />
<glyph unicode="@" d="M129 154v292q61 9 76 9q67 0 96 -37.5t29 -116.5t-29.5 -115t-97.5 -36q-47 0 -74 4zM158 780q0 53 33.5 91t93.5 38q39 0 78 -21t69.5 -55t58.5 -74.5t48 -81.5t35 -75t22 -55l8 -21q-117 148 -319 148q-49 0 -88 30t-39 76zM188 201q4 -2 19 -2q37 0 50 25t13 77 q0 54 -13 78t-50 24q-13 0 -19 -2v-200zM377 154v297h155v-52h-96v-69h82v-49h-82v-78h96v-49h-155zM437 1128.5q-7 46.5 24 83.5q23 23 53 34t65 3.5t64 -35.5q38 -37 48.5 -102t-2.5 -131t-31.5 -126.5t-35.5 -98.5l-18 -39q20 191 -125 330q-35 35 -42 81.5zM571 154 q3 156 15 297h80l39 -164l38 164h82q3 -45 13 -297h-60q0 108 -6 213l-41 -168h-55l-41 168h-2q-4 -140 -4 -213h-58zM647 633q3 8 9 22t25 53.5t39 75.5t50 80.5t59.5 76t66 53.5t71.5 22q49 0 79.5 -24.5t39 -51t8.5 -53.5q0 -43 -34.5 -72.5t-72.5 -34.5 q-213 -23 -340 -147zM879 301q0 81 24 117.5t84 36.5t85.5 -37t25.5 -117q0 -79 -25.5 -115t-85.5 -36t-84 35.5t-24 115.5zM938 301q0 -54 10 -78t39 -24q30 0 40.5 24t10.5 78q0 55 -10 78.5t-41 23.5q-29 0 -39 -23.5t-10 -78.5z" />
<glyph unicode="A" horiz-adv-x="1275" d="M20 63q0 24 67 108t79 120q174 542 219 696q9 27 9 48q0 14 -4 25q-10 28 -27.5 40t-34.5 25t-17 28q0 32 51 42.5t144 10.5h170q47 0 68.5 -3.5t43.5 -25t35.5 -56.5t36.5 -109l215 -688q22 -57 49 -100t49 -64.5t41.5 -37.5t30 -29t10.5 -30q0 -63 -172 -63h-198 q-172 0 -172 63q0 15 11.5 35t23.5 36.5t19.5 41.5t-1.5 51l-14 47q-8 27 -33 27h-357q-16 0 -22.5 -6t-9.5 -19l-13 -38q-5 -26 6.5 -53t28.5 -45.5t32 -40t15 -36.5q0 -35 -35.5 -49t-115.5 -14h-55q-173 0 -173 63zM365 403h352l-150 551q-7 27 -22 27q-17 0 -27 -29z " />
<glyph unicode="B" horiz-adv-x="1183" d="M41 63q0 19 27 48t54.5 64.5t27.5 68.5v719q0 33 -27 68t-54.5 64t-27.5 48q0 63 172 63h379q234 0 372 -85.5t138 -223.5q0 -97 -74.5 -164.5t-210.5 -97.5q163 -29 244.5 -104.5t81.5 -192.5q0 -154 -141 -246t-410 -92h-379q-172 0 -172 63zM475 123q0 -21 19 -21h36 q124 0 201.5 63t77.5 181q0 119 -76.5 177.5t-202.5 58.5h-38q-17 0 -17 -21v-438zM475 705q0 -19 19 -19h36q41 0 81 11.5t76 34.5t58.5 64t22.5 93q0 54 -22.5 96.5t-58.5 67.5t-76.5 38t-80.5 13h-34q-21 0 -21 -21v-378z" />
<glyph unicode="C" horiz-adv-x="1185" d="M41 608q0 137 46 252t124.5 190t181 116.5t215.5 41.5q105 0 195.5 -25t154 -66.5t107 -91.5t65.5 -105q7 -16 7 -34q-1 -28 -17 -56q-26 -48 -76 -78q-48 -30 -95 -29h-3q-45 3 -75.5 39t-86.5 145q-59 117 -95 159t-87 42q-95 0 -162 -107t-67 -282q0 -143 53 -261.5 t141 -184.5t191 -66q172 0 327 176q13 16 29 16q15 0 24 -15t5 -38q-27 -140 -172.5 -246t-333.5 -106q-287 0 -441.5 164.5t-154.5 449.5z" />
<glyph unicode="D" horiz-adv-x="1234" d="M41 63q0 19 27 48t54.5 64.5t27.5 68.5v719q0 33 -27 68t-54.5 64t-27.5 48q0 63 172 63h358q144 0 264 -48t200.5 -130.5t124.5 -192t44 -233.5q0 -123 -44.5 -232.5t-124.5 -191.5t-200 -130t-264 -48h-358q-172 0 -172 63zM475 125q0 -23 21 -23h14q70 0 132.5 29.5 t114.5 88t82.5 157.5t30.5 225q0 102 -20 187t-54.5 142.5t-81 97t-98 57.5t-106.5 18h-14q-21 0 -21 -21v-958z" />
<glyph unicode="E" horiz-adv-x="1077" d="M41 63q0 19 27 48t54.5 64.5t27.5 68.5v719q0 33 -27 68t-54.5 64t-27.5 48q0 63 172 63h729q24 0 37.5 -1t25.5 -9.5t16.5 -18t8 -35.5t4 -52.5t0.5 -77.5q0 -202 -1 -218q-4 -49 -23 -53q-22 -3 -45.5 32t-96.5 179q-34 68 -59 98t-63.5 43t-110.5 13h-135 q-15 0 -20 -6t-5 -23v-424h53h6q50 0 71 15q22 16 67 82q49 73 69.5 96.5t34.5 21.5q14 -4 17 -24q2 -15 2 -60v-34v-68v-158q0 -147 -1 -157q-4 -26 -18 -29q-13 -1 -33.5 22t-70.5 97q-44 64 -66 80t-78 16h-53v-424q0 -17 6 -23t21 -6h133q47 0 77 4.5t51.5 12t39.5 29 t30.5 42.5t34.5 66q73 144 96.5 179t45.5 32q24 -5 24 -170v-14v-86q0 -60 -1.5 -88.5t-5.5 -54.5t-15 -34.5t-26.5 -13t-43.5 -4.5h-729q-172 0 -172 63z" />
<glyph unicode="F" horiz-adv-x="1077" d="M41 63q0 19 27 48t54.5 64.5t27.5 68.5v719q0 33 -27 68t-54.5 64t-27.5 48q0 63 172 63h729q24 0 37.5 -1.5t25.5 -11.5t16.5 -21.5t8 -43t4 -63.5t0.5 -94q0 -189 -3 -212q-6 -34 -23 -38q-21 -3 -40.5 25.5t-103.5 177.5q-61 107 -80 130q-36 42 -98 49q-21 3 -51 3 h-127q-21 0 -27 -6.5t-6 -30.5v-416h53h7q49 -1 67 13q20 14 60 73q5 7 8 11q51 73 71.5 96.5t34.5 21.5q14 -4 16.5 -27t2.5 -105v-54v-158v-54v-36q0 -50 -2 -68q-3 -24 -17 -28q-13 -1 -34 22t-72 97q-33 47 -46 62.5t-35 24.5t-61 9h-53v-309q0 -26 23.5 -54.5t51.5 -48 t51.5 -41.5t23.5 -37q0 -63 -193 -63h-219q-172 0 -172 63z" />
<glyph unicode="G" horiz-adv-x="1296" d="M41 608q0 137 46 252t124.5 190t181 116.5t215.5 41.5q105 0 195.5 -25t154 -66.5t107 -91.5t65.5 -105q7 -16 7 -33q0 -27 -17 -57q-27 -47 -77 -78q-48 -29 -94 -29h-3q-45 3 -75.5 39t-86.5 145q-59 116 -95.5 158.5t-86.5 42.5q-95 0 -163 -110.5t-68 -288.5 q0 -145 49.5 -264.5t139.5 -189t202 -69.5q94 0 94 45v72q0 33 -23.5 69.5t-47 67t-23.5 49.5q0 34 39 49t119 15h178q80 0 118.5 -15t38.5 -49q0 -19 -23.5 -44t-47 -56.5t-23.5 -64.5v-209q0 -53 -17 -87t-54 -34h-5q-8 0 -15 0.5t-14 3t-12 4t-13 7t-12 8t-14.5 12 t-15.5 14t-19.5 17.5t-21.5 20q-2 2 -6.5 5.5t-5.5 4.5q-127 -96 -299 -96q-287 0 -441.5 164.5t-154.5 449.5z" />
<glyph unicode="H" horiz-adv-x="1304" d="M41 63q0 19 27 48t54.5 64.5t27.5 68.5v719q0 33 -27 68t-54.5 64t-27.5 48q0 63 172 63h199q172 0 172 -63q0 -15 -17 -37t-37.5 -41.5t-37.5 -47.5t-17 -54v-308h354v308q0 33 -27 68t-54 64t-27 48q0 63 172 63h199q172 0 172 -63q0 -15 -17 -37t-37.5 -41.5 t-37.5 -47.5t-17 -54v-719q0 -33 27.5 -68.5t54.5 -64.5t27 -48q0 -63 -172 -63h-199q-172 0 -172 63q0 19 27 48t54 64.5t27 68.5v309h-354v-309q0 -33 27.5 -68.5t54.5 -64.5t27 -48q0 -63 -172 -63h-199q-172 0 -172 63z" />
<glyph unicode="I" horiz-adv-x="624" d="M41 63q0 19 27 48t54.5 64.5t27.5 68.5v719q0 33 -27 68t-54.5 64t-27.5 48q0 63 172 63h199q172 0 172 -63q0 -15 -17 -37t-37.5 -41.5t-37.5 -47.5t-17 -54v-719q0 -33 27.5 -68.5t54.5 -64.5t27 -48q0 -63 -172 -63h-199q-172 0 -172 63z" />
<glyph unicode="J" horiz-adv-x="622" d="M-60 -242q-3 9 -3 17q0 26 36 49q104 63 139 105t35 116v918q0 33 -27 68t-54 64t-27 48q0 63 172 63h199q172 0 172 -63q0 -15 -17 -37t-37.5 -41.5t-37.5 -47.5t-17 -54v-758q0 -114 -26 -192.5t-86 -131.5t-139.5 -85t-205.5 -60q-16 -3 -29 -3q-36 0 -47 25z" />
<glyph unicode="K" horiz-adv-x="1277" d="M41 63q0 19 27 48t54.5 64.5t27.5 68.5v719q0 33 -27 68t-54.5 64t-27.5 48q0 63 172 63h199q172 0 172 -63q0 -15 -17 -37t-37.5 -41.5t-37.5 -47.5t-17 -54v-379l318 407q18 21 12.5 42.5t-20 35.5t-29.5 34t-15 38q0 34 37 48.5t117 14.5h170q80 0 116 -14t36 -49 q0 -24 -29 -45.5t-68 -38t-92 -50.5t-90 -75l-178 -227l278 -414q52 -70 99 -114t70 -55.5t36.5 -24.5t13.5 -34q0 -63 -178 -63h-153q-14 0 -24.5 1t-19.5 2t-18.5 6t-15.5 7.5t-15.5 12.5t-14.5 14.5t-17 20t-18 23.5t-22.5 30.5t-25.5 34.5l-260 380v-288 q0 -33 27.5 -68.5t54.5 -64.5t27 -48q0 -63 -172 -63h-199q-172 0 -172 63z" />
<glyph unicode="L" horiz-adv-x="972" d="M41 63q0 19 27 48t54.5 64.5t27.5 68.5v719q0 33 -27 68t-54.5 64t-27.5 48q0 63 172 63h199q172 0 172 -63q0 -15 -17 -37t-37.5 -41.5t-37.5 -47.5t-17 -54v-832q0 -31 33 -31h22q44 0 69 3.5t45.5 11.5t36.5 29t31 47t40 76l14 28q72 146 95 180t46 31q23 -5 23 -175 v-14v-81q0 -62 -0.5 -94t-4 -63.5t-8 -43t-16.5 -22t-25.5 -12t-37.5 -1.5h-625q-172 0 -172 63z" />
<glyph unicode="M" horiz-adv-x="1511" d="M41 63q0 19 28 48t56.5 64.5t28.5 68.5v710q0 26 -17.5 55.5t-39 50.5t-39 44.5t-17.5 38.5q0 63 176 63h90q91 0 143 -29.5t80 -105.5l209 -508l236 492q43 92 75 121.5t83 29.5h165q172 0 172 -63q0 -19 -27 -48t-54 -64t-27 -68v-719q0 -33 27 -68.5t54 -64.5t27 -48 q0 -63 -172 -63h-198q-172 0 -172 63q0 19 27 48t54 64.5t27 68.5v553l-331 -680q-20 -41 -30.5 -57.5t-22 -16t-21.5 17.5t-27 58l-285 665q-2 7 -5 4q-1 -1 -1 -4v-540q0 -33 27.5 -68.5t54.5 -64.5t27 -48q0 -63 -172 -63h-33q-176 0 -176 63z" />
<glyph unicode="N" horiz-adv-x="1171" d="M41 63q0 19 27.5 48t55.5 64.5t28 68.5v690q0 33 -27.5 75.5t-55.5 78.5t-28 55q0 63 174 63h33q80 0 116.5 -17t81.5 -79l416 -567v420q0 33 -27 68t-54 64t-27 48q0 63 172 63h32q172 0 172 -63q0 -19 -27 -48t-54 -64t-27 -68v-846q0 -65 -17 -91t-67 -26h-33 q-29 0 -50 14t-46 49l-498 680v-499q0 -33 27.5 -68.5t54.5 -64.5t27 -48q0 -63 -172 -63h-33q-174 0 -174 63z" />
<glyph unicode="O" horiz-adv-x="1325" d="M41 610q0 169 79 305.5t221.5 214.5t320.5 78q293 0 457.5 -163.5t164.5 -450.5q0 -126 -46.5 -236.5t-127.5 -190t-197 -125.5t-251 -46q-292 0 -456.5 164t-164.5 450zM406 782q0 -157 43.5 -316.5t120.5 -266.5t161 -107q189 0 189 330q0 112 -22.5 231t-63 221.5 t-104.5 168t-138 65.5q-83 0 -134.5 -93.5t-51.5 -232.5z" />
<glyph unicode="P" horiz-adv-x="1196" d="M41 63q0 19 27 48t54.5 64.5t27.5 68.5v719q0 33 -27 68t-54.5 64t-27.5 48q0 63 172 63h360q287 0 434.5 -100.5t147.5 -278.5q0 -176 -147.5 -276t-434.5 -100h-98v-207q0 -26 23.5 -54.5t51.5 -48t51.5 -41.5t23.5 -37q0 -63 -193 -63h-219q-172 0 -172 63zM475 575 q0 -13 5 -17.5t18 -4.5h14q140 0 224.5 68.5t84.5 205.5q0 139 -84 208t-225 69h-16q-9 0 -13 -2q-8 -5 -8 -33v-494z" />
<glyph unicode="Q" horiz-adv-x="1327" d="M41 610q0 169 79 306t222 215.5t322 78.5q293 0 457.5 -163.5t164.5 -450.5q0 -168 -79.5 -305.5t-222 -216t-320.5 -78.5q-46 0 -66 2q22 -8 79 -31.5t89 -35t81.5 -27t93.5 -22.5t87 -7q40 0 70 22t43 48q6 14 18.5 15.5t22.5 -9t10 -27.5q-5 -117 -79.5 -192.5 t-197.5 -75.5q-65 0 -152.5 29t-159.5 64t-156.5 64t-145.5 29q-77 0 -121 -75q-12 -21 -27.5 -25t-25 8t-6.5 35q17 115 85.5 186.5t168.5 77.5q-162 68 -248 212t-86 349zM406 782q0 -158 44 -316.5t121 -265t162 -106.5q187 0 187 328q0 112 -22.5 231t-62.5 221.5 t-103.5 168t-137.5 65.5q-85 0 -136.5 -93t-51.5 -233z" />
<glyph unicode="R" horiz-adv-x="1234" d="M41 63q0 19 27 48t54.5 64.5t27.5 68.5v719q0 33 -27 68t-54.5 64t-27.5 48q0 63 172 63h360q255 0 395 -98.5t140 -239.5q0 -135 -97.5 -220t-314.5 -124q120 0 197 -28t115 -99l61 -135q21 -46 45 -77.5t43 -45.5t35 -24.5t24.5 -22t8.5 -29.5q0 -63 -183 -63h-120 q-25 0 -42 2t-34 12.5t-26.5 19.5t-26.5 36t-27.5 48t-34.5 70l-115 232q-41 72 -116 72h-25v-248q0 -26 23.5 -54.5t51.5 -48t51.5 -41.5t23.5 -37q0 -63 -193 -63h-219q-172 0 -172 63zM475 616q0 -13 5 -17.5t18 -4.5h34q115 0 194 68t79 186q0 119 -79 187.5t-194 68.5 h-36q-9 0 -13 -2q-8 -5 -8 -33v-453z" />
<glyph unicode="S" horiz-adv-x="1144" d="M53 242q-2 8 -2 17q0 35 31 73q38 48 94.5 77t102.5 29q38 0 67.5 -44t77.5 -150q21 -47 35 -73.5t37.5 -50.5t48.5 -24q113 0 189.5 43t76.5 103q0 57 -79 112t-249 123q-107 44 -177 81.5t-126 84t-81 101.5t-25 124q0 160 135.5 251t353.5 91q99 0 194 -25.5t161 -64 t106.5 -82.5t40.5 -82q0 -61 -68 -108t-147 -47q-34 0 -57.5 27.5t-74.5 115.5q-11 18 -16 27q-23 38 -32 52.5t-28 40t-35.5 35t-35.5 9.5q-106 0 -175.5 -32.5t-69.5 -80.5q0 -60 76 -111.5t296 -142.5q219 -92 307.5 -174t88.5 -205q0 -160 -134 -263t-372 -103 q-217 0 -364.5 68t-170.5 178z" />
<glyph unicode="T" horiz-adv-x="1134" d="M43 971q0 62 0.5 94t4 63.5t8 43t16.5 21.5t25.5 11.5t37.5 1.5h866q24 0 37 -1.5t24.5 -11.5t16.5 -22t8.5 -42.5t4 -63t0.5 -94.5q0 -194 -6 -222q-6 -25 -21 -28h-4q-22 0 -46 38q-12 20 -79 152q-74 147 -86 164q-26 29 -53 31h-33q-33 0 -33 -31v-831 q0 -33 27.5 -68.5t54.5 -64.5t27 -48q0 -63 -172 -63h-199q-172 0 -172 63q0 15 17 37t37.5 41.5t37.5 48t17 54.5v831q0 31 -35 31h-31q-30 0 -46 -21t-60 -108q-6 -13 -10 -20.5t-10.5 -20.5l-12.5 -25q-75 -146 -89 -164q-20 -30 -40 -26q-22 4 -25.5 44.5t-3.5 205.5z " />
<glyph unicode="U" horiz-adv-x="1185" d="M20 1143q0 63 173 63h198q172 0 172 -63q0 -19 -27 -48t-54 -64t-27 -68v-553q0 -85 59 -154.5t162 -69.5q101 0 161 71t60 149v557q0 26 -17 54t-37.5 47.5t-37.5 41.5t-17 37q0 63 173 63h32q172 0 172 -63q0 -19 -27 -48t-54 -64t-27 -68v-584q0 -84 -25.5 -153 t-77.5 -123.5t-140.5 -84.5t-205.5 -30q-232 0 -355.5 109.5t-123.5 283.5v582q0 33 -27 68t-54.5 64t-27.5 48z" />
<glyph unicode="V" horiz-adv-x="1255" d="M20 1143q0 63 173 63h198q172 0 172 -63q0 -15 -11.5 -35t-23.5 -36.5t-19.5 -41.5t1.5 -51l197 -727q6 -19 15 -18.5t13 20.5l201 715q9 26 -2 52.5t-28.5 45t-33.5 40t-16 36.5q0 63 172 63h35q172 0 172 -63q0 -24 -66.5 -108t-78.5 -120q-186 -579 -220 -696 q-14 -47 -23 -72.5t-24.5 -58t-31.5 -49t-40.5 -28t-54.5 -11.5h-96q-46 0 -68 4t-44 25.5t-35.5 56.5t-36.5 109l-217 688q-22 57 -48.5 100t-48.5 64t-41 37t-30 29t-11 30z" />
<glyph unicode="W" horiz-adv-x="1822" d="M20 1143q0 63 173 63h198q172 0 172 -63q0 -15 -11.5 -35t-23.5 -36.5t-18.5 -41.5t2.5 -51l176 -727q4 -19 13.5 -18.5t15.5 20.5l135 537l-23 92q-16 58 -37.5 101t-41 64t-37 36.5t-27.5 29t-10 29.5q0 63 172 63h199q172 0 172 -63q0 -15 -14 -33.5t-30.5 -34.5 t-28 -41.5t-7.5 -54.5l157 -727q4 -19 13.5 -18.5t15.5 20.5l180 715q6 32 -5.5 60t-29 44.5t-32.5 35.5t-15 34q0 63 172 63h35q172 0 172 -63q0 -15 -18 -40t-41.5 -49.5t-49 -63t-36.5 -75.5q-15 -46 -105.5 -366.5t-93.5 -329.5q-12 -41 -19 -61.5t-19.5 -51 t-23.5 -45.5t-27.5 -31.5t-37 -23t-45.5 -6.5h-98q-31 0 -48 1t-35.5 9t-28 18t-23 35t-23.5 53.5t-26 78.5l-76 297q-14 -49 -33 -117t-30 -105.5t-15 -50.5q-13 -46 -22 -72.5t-24 -58.5t-31 -48.5t-40.5 -28t-54.5 -11.5h-98q-46 0 -67.5 3.5t-43.5 25.5t-35.5 57 t-36.5 109l-196 688q-22 57 -48.5 100t-49 64t-42 37t-30.5 29t-11 30z" />
<glyph unicode="X" horiz-adv-x="1341" d="M41 63q0 24 28.5 43.5t67.5 34.5t91 47.5t89 75.5l211 277l-168 264q-55 81 -107 142t-85 89t-58.5 47.5t-37 31.5t-11.5 28q0 63 172 63h220q172 0 172 -63q0 -13 -7 -43.5t-4.5 -59t21.5 -61.5q43 -68 106 -168l133 182q17 22 10 43.5t-22.5 35t-31 32.5t-15.5 37 q0 34 37 48.5t117 14.5h172q80 0 115.5 -14t35.5 -49q0 -23 -28.5 -43t-67 -34.5t-90 -47t-86.5 -76.5l-193 -266q37 -58 101.5 -157t75.5 -116q54 -81 105.5 -143t84 -91t58 -49t37 -31t11.5 -24q0 -63 -172 -63h-219q-172 0 -172 63q0 13 7 45.5t4.5 60.5t-21.5 58 q-11 15 -113 179l-153 -201q-18 -21 -11 -41t22 -33t30.5 -31.5t15.5 -36.5q0 -34 -36.5 -48.5t-116.5 -14.5h-172q-80 0 -116 14t-36 49z" />
<glyph unicode="Y" horiz-adv-x="1271" d="M0 1143q0 63 172 63h219q172 0 172 -63q0 -13 -7 -45t-5.5 -62.5t18.5 -64.5q49 -86 119 -205l156 231q16 22 10.5 42.5t-19 33.5t-27 31.5t-13.5 36.5q0 34 36.5 48.5t116.5 14.5h172q80 0 116 -14t36 -49q0 -19 -19 -33.5t-51 -27t-67.5 -27t-75.5 -42t-68 -63.5 l-215 -321v-383q0 -26 17 -54.5t37.5 -48t37.5 -41.5t17 -37q0 -63 -172 -63h-199q-172 0 -172 63q0 19 27 48t54.5 64.5t27.5 68.5l-2 293l-160 268q-52 84 -101.5 145.5t-82 89t-57.5 46t-36.5 30.5t-11.5 27z" />
<glyph unicode="Z" horiz-adv-x="1095" d="M41 59q0 30 12.5 57.5t44.5 76.5l574 913h-191q-47 0 -77.5 -5t-52.5 -12.5t-40.5 -29t-32 -42.5t-36.5 -65q-66 -128 -89 -160.5t-44 -29.5q-19 4 -23 39.5t-4 153.5v57q0 49 0.5 75.5t4 51.5t9 35.5t16.5 19t25 10.5t37 2h729q152 0 152 -59q0 -29 -12.5 -56t-45.5 -77 l-573 -914h190q47 0 77 5t51 12t39.5 29t30.5 42t36 66q72 146 95 180t46 31q23 -5 23 -175v-14v-81q0 -59 -1.5 -88t-5.5 -55t-14.5 -34.5t-25.5 -13t-43 -4.5h-729q-152 0 -152 59z" />
<glyph unicode="[" d="M129 154v292q61 9 76 9q67 0 96 -37.5t29 -116.5t-29.5 -115t-97.5 -36q-47 0 -74 4zM158 780q0 53 33.5 91t93.5 38q39 0 78 -21t69.5 -55t58.5 -74.5t48 -81.5t35 -75t22 -55l8 -21q-117 148 -319 148q-49 0 -88 30t-39 76zM188 201q4 -2 19 -2q37 0 50 25t13 77 q0 54 -13 78t-50 24q-13 0 -19 -2v-200zM377 154v297h155v-52h-96v-69h82v-49h-82v-78h96v-49h-155zM437 1128.5q-7 46.5 24 83.5q23 23 53 34t65 3.5t64 -35.5q38 -37 48.5 -102t-2.5 -131t-31.5 -126.5t-35.5 -98.5l-18 -39q20 191 -125 330q-35 35 -42 81.5zM571 154 q3 156 15 297h80l39 -164l38 164h82q3 -45 13 -297h-60q0 108 -6 213l-41 -168h-55l-41 168h-2q-4 -140 -4 -213h-58zM647 633q3 8 9 22t25 53.5t39 75.5t50 80.5t59.5 76t66 53.5t71.5 22q49 0 79.5 -24.5t39 -51t8.5 -53.5q0 -43 -34.5 -72.5t-72.5 -34.5 q-213 -23 -340 -147zM879 301q0 81 24 117.5t84 36.5t85.5 -37t25.5 -117q0 -79 -25.5 -115t-85.5 -36t-84 35.5t-24 115.5zM938 301q0 -54 10 -78t39 -24q30 0 40.5 24t10.5 78q0 55 -10 78.5t-41 23.5q-29 0 -39 -23.5t-10 -78.5z" />
<glyph unicode="\" d="M129 154v292q61 9 76 9q67 0 96 -37.5t29 -116.5t-29.5 -115t-97.5 -36q-47 0 -74 4zM158 780q0 53 33.5 91t93.5 38q39 0 78 -21t69.5 -55t58.5 -74.5t48 -81.5t35 -75t22 -55l8 -21q-117 148 -319 148q-49 0 -88 30t-39 76zM188 201q4 -2 19 -2q37 0 50 25t13 77 q0 54 -13 78t-50 24q-13 0 -19 -2v-200zM377 154v297h155v-52h-96v-69h82v-49h-82v-78h96v-49h-155zM437 1128.5q-7 46.5 24 83.5q23 23 53 34t65 3.5t64 -35.5q38 -37 48.5 -102t-2.5 -131t-31.5 -126.5t-35.5 -98.5l-18 -39q20 191 -125 330q-35 35 -42 81.5zM571 154 q3 156 15 297h80l39 -164l38 164h82q3 -45 13 -297h-60q0 108 -6 213l-41 -168h-55l-41 168h-2q-4 -140 -4 -213h-58zM647 633q3 8 9 22t25 53.5t39 75.5t50 80.5t59.5 76t66 53.5t71.5 22q49 0 79.5 -24.5t39 -51t8.5 -53.5q0 -43 -34.5 -72.5t-72.5 -34.5 q-213 -23 -340 -147zM879 301q0 81 24 117.5t84 36.5t85.5 -37t25.5 -117q0 -79 -25.5 -115t-85.5 -36t-84 35.5t-24 115.5zM938 301q0 -54 10 -78t39 -24q30 0 40.5 24t10.5 78q0 55 -10 78.5t-41 23.5q-29 0 -39 -23.5t-10 -78.5z" />
<glyph unicode="]" d="M129 154v292q61 9 76 9q67 0 96 -37.5t29 -116.5t-29.5 -115t-97.5 -36q-47 0 -74 4zM158 780q0 53 33.5 91t93.5 38q39 0 78 -21t69.5 -55t58.5 -74.5t48 -81.5t35 -75t22 -55l8 -21q-117 148 -319 148q-49 0 -88 30t-39 76zM188 201q4 -2 19 -2q37 0 50 25t13 77 q0 54 -13 78t-50 24q-13 0 -19 -2v-200zM377 154v297h155v-52h-96v-69h82v-49h-82v-78h96v-49h-155zM437 1128.5q-7 46.5 24 83.5q23 23 53 34t65 3.5t64 -35.5q38 -37 48.5 -102t-2.5 -131t-31.5 -126.5t-35.5 -98.5l-18 -39q20 191 -125 330q-35 35 -42 81.5zM571 154 q3 156 15 297h80l39 -164l38 164h82q3 -45 13 -297h-60q0 108 -6 213l-41 -168h-55l-41 168h-2q-4 -140 -4 -213h-58zM647 633q3 8 9 22t25 53.5t39 75.5t50 80.5t59.5 76t66 53.5t71.5 22q49 0 79.5 -24.5t39 -51t8.5 -53.5q0 -43 -34.5 -72.5t-72.5 -34.5 q-213 -23 -340 -147zM879 301q0 81 24 117.5t84 36.5t85.5 -37t25.5 -117q0 -79 -25.5 -115t-85.5 -36t-84 35.5t-24 115.5zM938 301q0 -54 10 -78t39 -24q30 0 40.5 24t10.5 78q0 55 -10 78.5t-41 23.5q-29 0 -39 -23.5t-10 -78.5z" />
<glyph unicode="^" d="M129 154v292q61 9 76 9q67 0 96 -37.5t29 -116.5t-29.5 -115t-97.5 -36q-47 0 -74 4zM158 780q0 53 33.5 91t93.5 38q39 0 78 -21t69.5 -55t58.5 -74.5t48 -81.5t35 -75t22 -55l8 -21q-117 148 -319 148q-49 0 -88 30t-39 76zM188 201q4 -2 19 -2q37 0 50 25t13 77 q0 54 -13 78t-50 24q-13 0 -19 -2v-200zM377 154v297h155v-52h-96v-69h82v-49h-82v-78h96v-49h-155zM437 1128.5q-7 46.5 24 83.5q23 23 53 34t65 3.5t64 -35.5q38 -37 48.5 -102t-2.5 -131t-31.5 -126.5t-35.5 -98.5l-18 -39q20 191 -125 330q-35 35 -42 81.5zM571 154 q3 156 15 297h80l39 -164l38 164h82q3 -45 13 -297h-60q0 108 -6 213l-41 -168h-55l-41 168h-2q-4 -140 -4 -213h-58zM647 633q3 8 9 22t25 53.5t39 75.5t50 80.5t59.5 76t66 53.5t71.5 22q49 0 79.5 -24.5t39 -51t8.5 -53.5q0 -43 -34.5 -72.5t-72.5 -34.5 q-213 -23 -340 -147zM879 301q0 81 24 117.5t84 36.5t85.5 -37t25.5 -117q0 -79 -25.5 -115t-85.5 -36t-84 35.5t-24 115.5zM938 301q0 -54 10 -78t39 -24q30 0 40.5 24t10.5 78q0 55 -10 78.5t-41 23.5q-29 0 -39 -23.5t-10 -78.5z" />
<glyph unicode="_" d="M129 154v292q61 9 76 9q67 0 96 -37.5t29 -116.5t-29.5 -115t-97.5 -36q-47 0 -74 4zM158 780q0 53 33.5 91t93.5 38q39 0 78 -21t69.5 -55t58.5 -74.5t48 -81.5t35 -75t22 -55l8 -21q-117 148 -319 148q-49 0 -88 30t-39 76zM188 201q4 -2 19 -2q37 0 50 25t13 77 q0 54 -13 78t-50 24q-13 0 -19 -2v-200zM377 154v297h155v-52h-96v-69h82v-49h-82v-78h96v-49h-155zM437 1128.5q-7 46.5 24 83.5q23 23 53 34t65 3.5t64 -35.5q38 -37 48.5 -102t-2.5 -131t-31.5 -126.5t-35.5 -98.5l-18 -39q20 191 -125 330q-35 35 -42 81.5zM571 154 q3 156 15 297h80l39 -164l38 164h82q3 -45 13 -297h-60q0 108 -6 213l-41 -168h-55l-41 168h-2q-4 -140 -4 -213h-58zM647 633q3 8 9 22t25 53.5t39 75.5t50 80.5t59.5 76t66 53.5t71.5 22q49 0 79.5 -24.5t39 -51t8.5 -53.5q0 -43 -34.5 -72.5t-72.5 -34.5 q-213 -23 -340 -147zM879 301q0 81 24 117.5t84 36.5t85.5 -37t25.5 -117q0 -79 -25.5 -115t-85.5 -36t-84 35.5t-24 115.5zM938 301q0 -54 10 -78t39 -24q30 0 40.5 24t10.5 78q0 55 -10 78.5t-41 23.5q-29 0 -39 -23.5t-10 -78.5z" />
<glyph unicode="`" d="M129 154v292q61 9 76 9q67 0 96 -37.5t29 -116.5t-29.5 -115t-97.5 -36q-47 0 -74 4zM158 780q0 53 33.5 91t93.5 38q39 0 78 -21t69.5 -55t58.5 -74.5t48 -81.5t35 -75t22 -55l8 -21q-117 148 -319 148q-49 0 -88 30t-39 76zM188 201q4 -2 19 -2q37 0 50 25t13 77 q0 54 -13 78t-50 24q-13 0 -19 -2v-200zM377 154v297h155v-52h-96v-69h82v-49h-82v-78h96v-49h-155zM437 1128.5q-7 46.5 24 83.5q23 23 53 34t65 3.5t64 -35.5q38 -37 48.5 -102t-2.5 -131t-31.5 -126.5t-35.5 -98.5l-18 -39q20 191 -125 330q-35 35 -42 81.5zM571 154 q3 156 15 297h80l39 -164l38 164h82q3 -45 13 -297h-60q0 108 -6 213l-41 -168h-55l-41 168h-2q-4 -140 -4 -213h-58zM647 633q3 8 9 22t25 53.5t39 75.5t50 80.5t59.5 76t66 53.5t71.5 22q49 0 79.5 -24.5t39 -51t8.5 -53.5q0 -43 -34.5 -72.5t-72.5 -34.5 q-213 -23 -340 -147zM879 301q0 81 24 117.5t84 36.5t85.5 -37t25.5 -117q0 -79 -25.5 -115t-85.5 -36t-84 35.5t-24 115.5zM938 301q0 -54 10 -78t39 -24q30 0 40.5 24t10.5 78q0 55 -10 78.5t-41 23.5q-29 0 -39 -23.5t-10 -78.5z" />
<glyph unicode="a" horiz-adv-x="1009" d="M31 268q0 78 35 138.5t93 95t125.5 52t141.5 17.5q88 0 152 -20v147q0 76 -13 108t-39 32q-21 0 -46.5 -24t-76.5 -97q-49 -71 -82 -96t-71 -25q-63 0 -125 44q-47 34 -47 71q0 11 4 22q30 74 163.5 135t280.5 64h14q170 0 258 -93q92 -97 93 -288v-266q0 -42 13.5 -65.5 t30.5 -30t30.5 -19t13.5 -33.5q0 -50 -61 -93.5t-150 -43.5q-66 0 -119 35t-67 104q-77 -147 -252 -147q-130 0 -214.5 75t-84.5 201zM354 311q0 -69 29.5 -107t77.5 -38q51 0 84 60t33 157v96q-23 3 -44 3q-69 0 -117 -38q-63 -50 -63 -133z" />
<glyph unicode="b" horiz-adv-x="1050" d="M10 1149q0 28 26.5 44t108.5 40q150 39 193 39q39 0 56.5 -25.5t17.5 -83.5v-315q81 84 211 84q184 0 290.5 -127.5t106.5 -347.5q0 -206 -94.5 -335.5t-261.5 -129.5q-78 0 -135 14t-82 30t-51 30t-50 14q-28 0 -53.5 -16t-41.5 -35.5t-38.5 -35.5t-44.5 -16 q-39 0 -56.5 24t-17.5 87v899q0 33 -21 63.5t-42 55t-21 43.5zM416 471q12 -164 56 -259q43 -91 103 -91h5q60 4 88 106q20 75 21 173q0 36 -3 75q-10 161 -52 255q-40 90 -103 89h-5q-67 -6 -94 -98q-19 -65 -19 -164q0 -40 3 -86z" />
<glyph unicode="c" horiz-adv-x="954" d="M31 467q0 141 63.5 248.5t166 162t224.5 54.5q159 0 277 -68t149 -157q4 -11 4 -22q1 -41 -51 -89q-62 -59 -119 -59h-6q-34 0 -60 30t-69 115q-46 93 -71.5 124.5t-55.5 31.5q-55 0 -88 -66.5t-33 -171.5q0 -183 82 -287t207 -104q47 0 91 13.5t70 28t65 40.5 q20 12 36 -2t7 -37q-52 -108 -166 -184t-246 -76q-226 0 -351.5 127t-125.5 348z" />
<glyph unicode="d" horiz-adv-x="1069" d="M31 469q0 204 95 333.5t261 129.5q66 0 155 -19t99 -20v92q0 33 -22 63.5t-44 55t-22 43.5q0 29 26 44.5t107 39.5q150 39 195 39q37 0 55 -25.5t18 -83.5v-876q0 -42 14 -65.5t30 -30t30 -19t14 -33.5q0 -51 -56.5 -94t-145.5 -43q-60 0 -105 29t-63 88 q-85 -125 -244 -125q-183 0 -290 128.5t-107 348.5zM365 467q9 -162 51 -256q40 -90 103 -90h5q66 6 94 99q20 66 20 166q0 40 -3 85q-11 163 -55 257q-43 91 -104 91h-5q-60 -4 -88 -106q-21 -75 -21 -173q0 -35 3 -73z" />
<glyph unicode="e" horiz-adv-x="954" d="M31 467q0 141 65 248.5t171.5 162t236.5 54.5q91 0 165 -20.5t120 -52.5t77 -73.5t43.5 -80.5t12.5 -76q0 -46 -34 -69.5t-173 -74.5l-305 -112q38 -79 101 -121.5t140 -42.5q47 0 91 13.5t70 28t65 40.5q20 12 36 -2t7 -37q-52 -108 -166 -184t-246 -76 q-226 0 -351.5 127t-125.5 348zM362 600q0 -54 9 -104l215 79q-3 129 -35.5 196t-75.5 67q-49 0 -81 -67t-32 -171z" />
<glyph unicode="f" horiz-adv-x="634" d="M31 63q0 19 22 43t44 54t22 63v588h-39q-20 0 -34.5 14.5t-14.5 34.5v17q0 20 14.5 34.5t34.5 14.5h39q0 27 -20.5 93.5t-20.5 113.5q0 86 100 151q95 62 250 62h14q126 -3 205.5 -72t79.5 -139q0 -58 -36 -98t-95 -40q-42 0 -66 29t-55 107q-26 65 -42 90.5t-38 25.5 q-45 0 -45 -73q0 -50 41 -149t41 -101h162q20 0 34.5 -14.5t14.5 -34.5v-17q0 -20 -14.5 -34.5t-34.5 -14.5h-162v-588q0 -26 23.5 -49t51.5 -37.5t51.5 -34t23.5 -39.5q0 -63 -152 -63h-248q-80 0 -115.5 14t-35.5 49z" />
<glyph unicode="g" horiz-adv-x="927" d="M10 -193q0 39 45 70t117 43q-111 40 -111 133q0 57 49 99.5t136 64.5q-99 46 -152 133.5t-53 206.5q0 162 122.5 268.5t313.5 106.5q104 0 193 -29q33 112 96 177t129 65q56 0 98 -46q32 -35 32 -74q0 -12 -3 -24q-5 -18 -22 -28t-36.5 -13.5t-55.5 -9.5t-64 -14 q-70 -21 -96 -68q167 -101 167 -321q0 -161 -123.5 -268t-314.5 -107q-81 0 -141 14q-43 -15 -43 -41q0 -23 69.5 -31t251.5 -8q165 0 243.5 -42t78.5 -130q0 -111 -131 -191.5t-369 -80.5q-211 0 -318.5 38t-107.5 107zM209 -168q0 -34 64.5 -56t164.5 -22q129 0 203 22 t74 54q0 19 -21.5 30.5t-84.5 19t-173 7.5q-88 0 -155 9q-31 -5 -51.5 -22.5t-20.5 -41.5zM354 657q0 -92 21 -182.5t58.5 -150.5t78.5 -60q90 0 90 182q0 89 -18.5 177.5t-56 151.5t-83.5 63q-40 0 -65 -50.5t-25 -130.5z" />
<glyph unicode="h" horiz-adv-x="1081" d="M31 63q0 19 22.5 43t45 54t22.5 63v762q0 33 -22 63.5t-44 55t-22 43.5q0 29 27 45.5t108 38.5q136 39 192 39q39 0 56.5 -25.5t17.5 -83.5v-393q51 42 80 63.5t72 48.5t82 39t80 13h8q112 0 158 -82q48 -84 49 -256v-371q0 -33 22 -63t44 -54t22 -43q0 -35 -36 -49 t-116 -14h-184q-80 0 -116 14t-36 49q0 19 21.5 43t43 54t21.5 63v395q0 59 -11 85t-42 26q-59 0 -162 -53v-453q0 -33 21.5 -63t43 -54t21.5 -43q0 -35 -35.5 -49t-115.5 -14h-187q-80 0 -115.5 14t-35.5 49z" />
<glyph unicode="i" horiz-adv-x="530" d="M20 63q0 15 14 34t30.5 34.5t30.5 40.5t14 51v424q0 33 -21.5 63.5t-43 55t-21.5 43.5q0 29 26.5 45.5t106.5 38.5q139 39 194 39q37 0 54.5 -25.5t17.5 -83.5v-600q0 -33 22 -63t44 -54t22 -43q0 -35 -36 -49t-116 -14h-186q-80 0 -116 14t-36 49zM70 1149 q0 69 53 118.5t127 49.5q75 0 127.5 -49.5t52.5 -118.5q0 -71 -52.5 -120.5t-127.5 -49.5q-74 0 -127 50t-53 120z" />
<glyph unicode="j" horiz-adv-x="483" d="M-295 -207q-3 13 -3 25q0 42 31 77q40 46 107 46q115 0 162 -119q39 -94 80 -94q59 0 59 79q0 41 -30.5 109.5t-30.5 75.5v655q0 33 -21.5 63.5t-43 55t-21.5 43.5q0 29 27 45.5t108 38.5q136 39 193 39q38 0 54.5 -25t16.5 -84v-831q0 -201 -99 -284q-92 -77 -265 -77 h-21q-138 3 -212.5 47.5t-90.5 114.5zM43 1149q0 69 52.5 118.5t127.5 49.5q74 0 127 -49.5t53 -118.5q0 -70 -53 -120t-127 -50q-75 0 -127.5 49.5t-52.5 120.5z" />
<glyph unicode="k" horiz-adv-x="1083" d="M31 63q0 19 22.5 43t45 54t22.5 63v762q0 33 -22 63.5t-44 55t-22 43.5q0 28 26.5 44t108.5 40q150 39 192 39q39 0 56.5 -25.5t17.5 -83.5v-651l-8 -8l8 -88v-191q0 -33 21.5 -63t43 -54t21.5 -43q0 -35 -35.5 -49t-115.5 -14h-187q-80 0 -115.5 14t-35.5 49zM434 487 v23l187 195q17 15 10 37.5t-22 39.5t-30.5 37t-15.5 31q0 35 36 49t116 14h186q79 0 112.5 -14t33.5 -49q0 -18 -26 -34t-64 -31t-96.5 -55.5t-110.5 -98.5l-23 -25l156 -321q29 -61 65.5 -103.5t62.5 -58t44 -30.5t18 -30q0 -34 -39.5 -48.5t-120.5 -14.5h-176 q-28 0 -45 5.5t-31 24.5t-22 36t-25.5 58.5t-33.5 74.5l-134 268z" />
<glyph unicode="l" horiz-adv-x="550" d="M31 63q0 19 22 43t44 54t22 63v762q0 33 -21.5 63.5t-43 55t-21.5 43.5q0 29 27 45.5t108 38.5q136 39 192 39q37 0 54.5 -25.5t17.5 -83.5v-938q0 -33 22 -63t44 -54t22 -43q0 -35 -35.5 -49t-115.5 -14h-187q-80 0 -115.5 14t-35.5 49z" />
<glyph unicode="m" horiz-adv-x="1613" d="M31 63q0 19 22 43t44 54t22 63v404q0 33 -22 65t-44 58t-22 45q0 30 24.5 47t108.5 45q125 45 188 45q80 0 80 -109v-57q54 43 82 64.5t72 49t82.5 39.5t79.5 13h4q84 0 130 -43q47 -44 66 -135q122 97 170 126q86 50 162 52h8q112 0 158 -82q48 -84 49 -256v-371 q0 -33 22 -63t44 -54t22 -43q0 -35 -35.5 -49t-115.5 -14h-187q-80 0 -115.5 14t-35.5 49q0 19 22 43t44 54t22 63v395q0 58 -11.5 84.5t-42.5 26.5q-59 0 -170 -49q5 -68 5 -86v-371q0 -33 22 -63t44 -54t22 -43q0 -35 -36 -49t-116 -14h-186q-80 0 -116 14t-36 49 q0 19 22 43t44 54t22 63v395q0 59 -11 85t-42 26q-54 0 -164 -47v-459q0 -33 22 -63t44 -54t22 -43q0 -35 -35.5 -49t-115.5 -14h-187q-80 0 -115.5 14t-35.5 49z" />
<glyph unicode="n" horiz-adv-x="1081" d="M31 63q0 19 22 43t44 54t22 63v404q0 33 -22 65t-44 58t-22 45q0 30 24 47t107 45q128 45 190 45q80 0 80 -109v-57q54 43 82 64.5t72 49t82.5 39.5t79.5 13h8q112 0 158 -82q48 -84 49 -256v-371q0 -33 22 -63t44 -54t22 -43q0 -35 -36 -49t-116 -14h-186q-80 0 -116 14 t-36 49q0 19 22 43t44 54t22 63v395q0 59 -11 85t-42 26q-54 0 -164 -47v-459q0 -33 22 -63t44 -54t22 -43q0 -35 -35.5 -49t-115.5 -14h-187q-80 0 -115.5 14t-35.5 49z" />
<glyph unicode="o" horiz-adv-x="1015" d="M31 471q0 200 133 330.5t344 130.5q227 0 352 -125.5t125 -345.5q0 -199 -133 -331t-344 -132q-227 0 -352 126.5t-125 346.5zM362 604q0 -121 25 -239.5t68.5 -196.5t91.5 -78q106 0 106 238q0 85 -12.5 174t-35 165t-58.5 124.5t-78 48.5q-49 0 -78 -65.5t-29 -170.5z " />
<glyph unicode="p" horiz-adv-x="1075" d="M31 -203q0 19 22 43t44 54t22 63v670q0 33 -22 65t-44 58t-22 45q0 27 22.5 43.5t102.5 48.5q113 45 170 45q38 0 51.5 -31.5t13.5 -112.5q85 144 256 144q183 0 290 -127.5t107 -347.5q0 -205 -95 -335t-261 -130t-256 96v-131q0 -26 17 -51t37.5 -40.5t37.5 -34.5 t17 -34q0 -63 -172 -63h-187q-80 0 -115.5 14t-35.5 49zM440 471q11 -164 56 -259q42 -91 103 -91h5q60 4 88 107q22 76 22 175q0 35 -3 72q-9 161 -51 255q-41 89 -104 89h-5q-67 -6 -95 -99q-19 -66 -19 -165q0 -39 3 -84z" />
<glyph unicode="q" horiz-adv-x="1062" d="M31 467q0 205 95 335t261 130q68 0 121 -18.5t79 -41t53 -41t48 -18.5q28 0 54.5 18.5t44 41t42.5 41t50 18.5q39 0 56 -27t17 -96v-852q0 -33 22 -63t44 -54t22 -43q0 -35 -35.5 -49t-115.5 -14h-187q-172 0 -172 63q0 15 17 34t37.5 34.5t37.5 40.5t17 51v119 q-81 -84 -211 -84q-183 0 -290 127.5t-107 347.5zM365 465q9 -162 51 -256q40 -90 103 -90h5q67 6 96 99q20 68 20 168q0 39 -3 83q-10 163 -55 259q-44 91 -103 91h-6q-41 -3 -68.5 -54t-36.5 -129q-5 -47 -5 -99q0 -35 2 -72z" />
<glyph unicode="r" horiz-adv-x="884" d="M31 63q0 19 22 43t44 54t22 63v404q0 33 -22 65t-44 58t-22 45q0 30 24 46t109 46q128 45 188 45q80 0 80 -109v-116q50 88 89.5 140.5t90.5 84.5q53 31 103 31q4 -1 8 -1q54 -2 92.5 -48t38.5 -119q0 -44 -9.5 -80.5t-24 -57.5t-31 -36t-30 -15.5t-22.5 4.5 q-27 21 -40.5 30.5t-39.5 19.5t-55 10q-74 0 -170 -84v-363q0 -33 22 -63t44 -54t22 -43q0 -35 -35.5 -49t-115.5 -14h-187q-80 0 -115.5 14t-35.5 49z" />
<glyph unicode="s" horiz-adv-x="870" d="M35 180q-2 9 -2 18q1 44 49 90q58 56 115 56q19 0 29.5 -17t25 -64.5t29.5 -80.5q45 -96 155 -96q64 0 117 22.5t53 59.5t-53 71t-186 87q-169 69 -243.5 137.5t-74.5 183.5q0 130 106 207.5t273 77.5q157 0 266.5 -52t124.5 -128q2 -9 2 -18q1 -40 -39 -70 q-48 -36 -110 -37q-11 0 -19 3t-13.5 7t-13 15t-13 21.5t-17.5 33t-23 41.5q-54 88 -141 88q-70 0 -115 -19.5t-45 -50.5q0 -39 51.5 -71t211.5 -99q165 -69 236 -143.5t71 -178.5q0 -122 -110 -203t-288 -81q-168 0 -280 52.5t-129 137.5z" />
<glyph unicode="t" horiz-adv-x="720" d="M10 860q0 24 24 52.5t113 111.5q15 14 35.5 33.5t31 29t25.5 23t22.5 20t18 15t17 11.5t15 7t15.5 5t15 1q39 0 57.5 -26t18.5 -84v-133h196q20 0 35 -14.5t15 -34.5v-17q0 -20 -15 -34.5t-35 -14.5h-196v-459q0 -69 24 -106t64 -37q32 0 63.5 14t50 28.5t42.5 37.5 q17 15 33 -0.5t7 -38.5q-124 -258 -331 -258q-118 0 -194.5 76t-76.5 221v522h-41q-20 0 -34.5 14.5t-14.5 34.5z" />
<glyph unicode="u" horiz-adv-x="1079" d="M31 809q0 29 27 45.5t108 38.5q139 39 192 39q39 0 56.5 -25.5t17.5 -83.5v-518q0 -110 66 -110q16 0 68 12t83 12v428q0 33 -22 63.5t-44 55t-22 43.5q0 29 27 45.5t108 38.5q139 39 193 39q39 0 56.5 -25.5t17.5 -83.5v-538q0 -33 21.5 -65t43 -58t21.5 -45 q0 -28 -22 -41.5t-109 -40.5q-113 -35 -191 -35q-22 0 -38 9t-23.5 20.5t-11.5 33t-4.5 34t-0.5 36.5v33q-179 -172 -317 -174h-8q-112 0 -158 82q-48 84 -47 256v317q0 33 -22 63.5t-44 55t-22 43.5z" />
<glyph unicode="v" horiz-adv-x="1085" d="M0 862q0 35 36 49.5t116 14.5h186q79 0 115 -14.5t36 -49.5q0 -13 -13 -25t-27 -20.5t-22 -24t1 -34.5l162 -383l127 299q10 31 3 52.5t-26 41.5t-39 34t-35.5 30t-15.5 30q0 35 36 49.5t116 14.5h184q78 0 111.5 -14.5t33.5 -49.5q0 -18 -26 -38t-60.5 -38.5t-75 -57 t-63.5 -85.5l-246 -600q-13 -29 -27.5 -36t-51.5 -7h-48q-24 0 -34.5 1t-28 7t-29.5 21t-22 41l-234 567q-21 57 -56.5 101.5t-59 71.5t-23.5 52z" />
<glyph unicode="w" horiz-adv-x="1570" d="M0 862q0 35 36 49.5t116 14.5h186q79 0 115 -14.5t36 -49.5q0 -13 -11.5 -24.5t-24 -19.5t-20.5 -23.5t-3 -36.5l137 -369l97 248q-12 45 -35 83t-42.5 57.5t-34.5 42t-15 42.5q0 35 36 49.5t115 14.5h186q134 0 134 -64q0 -15 -17.5 -30t-31.5 -32t-7 -42l138 -367 l110 283q9 33 1.5 55t-26.5 41.5t-38.5 33t-34.5 29t-15 29.5q0 35 36 49.5t116 14.5h186q79 0 112.5 -14.5t33.5 -49.5q0 -15 -17.5 -30t-46 -31.5t-58.5 -36t-60 -51.5t-46 -70l-225 -600q-13 -29 -28 -36t-52 -7h-47q-24 0 -34.5 1t-27.5 7t-29 21t-23 41l-136 360 l-147 -387q-11 -29 -26 -36t-52 -7h-47q-24 0 -35 1t-28.5 7t-30 21t-23.5 41l-211 567q-14 45 -39 83t-47 57.5t-38.5 42t-16.5 42.5z" />
<glyph unicode="x" horiz-adv-x="1069" d="M31 63q0 24 17 42t42 33t65 52t74 89l117 200q-62 94 -65 99q-46 69 -96.5 122t-81 75.5t-50.5 44.5t-20 42q0 35 36 49.5t115 14.5h205q80 0 116 -14.5t36 -49.5q0 -13 -8 -31.5t-8 -35.5t16 -41q10 -15 36.5 -56t43.5 -67l43 65q21 30 14 56t-23.5 41t-33.5 34t-17 35 q0 35 33.5 49.5t105.5 14.5h146q145 0 145 -64q0 -19 -24 -41.5t-57.5 -44t-78.5 -60t-77 -79.5l-90 -139q73 -110 100 -150q47 -68 95.5 -121.5t75 -76.5t43.5 -44.5t17 -42.5q0 -35 -35.5 -49t-115.5 -14h-187q-80 0 -115.5 14t-35.5 49q0 14 8 33t8 36.5t-16 41.5 q-48 74 -111 168l-71 -115q-14 -29 -10 -47.5t21 -35t35.5 -27.5t33 -25.5t14.5 -28.5q0 -34 -33.5 -48.5t-105.5 -14.5h-146q-145 0 -145 63z" />
<glyph unicode="y" horiz-adv-x="1138" d="M10 862q0 35 36 49.5t116 14.5h186q80 0 116 -14.5t36 -49.5q0 -13 -12 -25t-24 -20t-18.5 -23.5t3.5 -35.5l182 -406l145 320q11 30 3.5 51.5t-27 41.5t-40.5 34.5t-37 31.5t-16 31q0 35 35.5 49.5t114.5 14.5h184q79 0 112.5 -14.5t33.5 -49.5q0 -18 -25 -39.5 t-58.5 -41.5t-73 -59.5t-62.5 -86.5l-347 -711q-29 -59 -59.5 -104.5t-70.5 -86.5t-90 -63t-107 -22q-86 0 -147.5 42t-78.5 122q-3 18 -3 36q0 45 21 86q31 58 95 58q43 0 66 -20t53 -74q4 -7 10 -18l9 -16.5t7.5 -13.5t7 -11.5t6.5 -9t6.5 -7.5t6 -5t7 -4t7.5 -2t9 -1 q29 0 54 29.5t77 137.5l-297 652q-22 56 -61 102.5t-65 76t-26 54.5z" />
<glyph unicode="z" horiz-adv-x="890" d="M31 791q0 135 49 135h690q82 0 82 -54q0 -31 -12.5 -59t-61.5 -113l-366 -585h129q34 0 47 11t55 69q9 13 20 28.5t18.5 25.5t17 23t15 20.5t14 17.5t13.5 14l12.5 10t12.5 6.5t13 3t14 -1.5q30 -9 48.5 -65t18.5 -142q0 -135 -49 -135h-690q-42 0 -62 20t-20 50 q0 55 76 172l366 569h-131q-34 0 -45.5 -10.5t-54.5 -69.5l-22.5 -31.5t-20 -28.5t-18 -25t-16.5 -21t-15.5 -17.5t-14.5 -13.5t-14 -8.5t-14.5 -3.5t-14.5 2q-31 9 -50 64.5t-19 142.5z" />
<glyph unicode="{" d="M129 154v292q61 9 76 9q67 0 96 -37.5t29 -116.5t-29.5 -115t-97.5 -36q-47 0 -74 4zM158 780q0 53 33.5 91t93.5 38q39 0 78 -21t69.5 -55t58.5 -74.5t48 -81.5t35 -75t22 -55l8 -21q-117 148 -319 148q-49 0 -88 30t-39 76zM188 201q4 -2 19 -2q37 0 50 25t13 77 q0 54 -13 78t-50 24q-13 0 -19 -2v-200zM377 154v297h155v-52h-96v-69h82v-49h-82v-78h96v-49h-155zM437 1128.5q-7 46.5 24 83.5q23 23 53 34t65 3.5t64 -35.5q38 -37 48.5 -102t-2.5 -131t-31.5 -126.5t-35.5 -98.5l-18 -39q20 191 -125 330q-35 35 -42 81.5zM571 154 q3 156 15 297h80l39 -164l38 164h82q3 -45 13 -297h-60q0 108 -6 213l-41 -168h-55l-41 168h-2q-4 -140 -4 -213h-58zM647 633q3 8 9 22t25 53.5t39 75.5t50 80.5t59.5 76t66 53.5t71.5 22q49 0 79.5 -24.5t39 -51t8.5 -53.5q0 -43 -34.5 -72.5t-72.5 -34.5 q-213 -23 -340 -147zM879 301q0 81 24 117.5t84 36.5t85.5 -37t25.5 -117q0 -79 -25.5 -115t-85.5 -36t-84 35.5t-24 115.5zM938 301q0 -54 10 -78t39 -24q30 0 40.5 24t10.5 78q0 55 -10 78.5t-41 23.5q-29 0 -39 -23.5t-10 -78.5z" />
<glyph unicode="|" d="M129 154v292q61 9 76 9q67 0 96 -37.5t29 -116.5t-29.5 -115t-97.5 -36q-47 0 -74 4zM158 780q0 53 33.5 91t93.5 38q39 0 78 -21t69.5 -55t58.5 -74.5t48 -81.5t35 -75t22 -55l8 -21q-117 148 -319 148q-49 0 -88 30t-39 76zM188 201q4 -2 19 -2q37 0 50 25t13 77 q0 54 -13 78t-50 24q-13 0 -19 -2v-200zM377 154v297h155v-52h-96v-69h82v-49h-82v-78h96v-49h-155zM437 1128.5q-7 46.5 24 83.5q23 23 53 34t65 3.5t64 -35.5q38 -37 48.5 -102t-2.5 -131t-31.5 -126.5t-35.5 -98.5l-18 -39q20 191 -125 330q-35 35 -42 81.5zM571 154 q3 156 15 297h80l39 -164l38 164h82q3 -45 13 -297h-60q0 108 -6 213l-41 -168h-55l-41 168h-2q-4 -140 -4 -213h-58zM647 633q3 8 9 22t25 53.5t39 75.5t50 80.5t59.5 76t66 53.5t71.5 22q49 0 79.5 -24.5t39 -51t8.5 -53.5q0 -43 -34.5 -72.5t-72.5 -34.5 q-213 -23 -340 -147zM879 301q0 81 24 117.5t84 36.5t85.5 -37t25.5 -117q0 -79 -25.5 -115t-85.5 -36t-84 35.5t-24 115.5zM938 301q0 -54 10 -78t39 -24q30 0 40.5 24t10.5 78q0 55 -10 78.5t-41 23.5q-29 0 -39 -23.5t-10 -78.5z" />
<glyph unicode="}" d="M129 154v292q61 9 76 9q67 0 96 -37.5t29 -116.5t-29.5 -115t-97.5 -36q-47 0 -74 4zM158 780q0 53 33.5 91t93.5 38q39 0 78 -21t69.5 -55t58.5 -74.5t48 -81.5t35 -75t22 -55l8 -21q-117 148 -319 148q-49 0 -88 30t-39 76zM188 201q4 -2 19 -2q37 0 50 25t13 77 q0 54 -13 78t-50 24q-13 0 -19 -2v-200zM377 154v297h155v-52h-96v-69h82v-49h-82v-78h96v-49h-155zM437 1128.5q-7 46.5 24 83.5q23 23 53 34t65 3.5t64 -35.5q38 -37 48.5 -102t-2.5 -131t-31.5 -126.5t-35.5 -98.5l-18 -39q20 191 -125 330q-35 35 -42 81.5zM571 154 q3 156 15 297h80l39 -164l38 164h82q3 -45 13 -297h-60q0 108 -6 213l-41 -168h-55l-41 168h-2q-4 -140 -4 -213h-58zM647 633q3 8 9 22t25 53.5t39 75.5t50 80.5t59.5 76t66 53.5t71.5 22q49 0 79.5 -24.5t39 -51t8.5 -53.5q0 -43 -34.5 -72.5t-72.5 -34.5 q-213 -23 -340 -147zM879 301q0 81 24 117.5t84 36.5t85.5 -37t25.5 -117q0 -79 -25.5 -115t-85.5 -36t-84 35.5t-24 115.5zM938 301q0 -54 10 -78t39 -24q30 0 40.5 24t10.5 78q0 55 -10 78.5t-41 23.5q-29 0 -39 -23.5t-10 -78.5z" />
<glyph unicode="~" d="M129 154v292q61 9 76 9q67 0 96 -37.5t29 -116.5t-29.5 -115t-97.5 -36q-47 0 -74 4zM158 780q0 53 33.5 91t93.5 38q39 0 78 -21t69.5 -55t58.5 -74.5t48 -81.5t35 -75t22 -55l8 -21q-117 148 -319 148q-49 0 -88 30t-39 76zM188 201q4 -2 19 -2q37 0 50 25t13 77 q0 54 -13 78t-50 24q-13 0 -19 -2v-200zM377 154v297h155v-52h-96v-69h82v-49h-82v-78h96v-49h-155zM437 1128.5q-7 46.5 24 83.5q23 23 53 34t65 3.5t64 -35.5q38 -37 48.5 -102t-2.5 -131t-31.5 -126.5t-35.5 -98.5l-18 -39q20 191 -125 330q-35 35 -42 81.5zM571 154 q3 156 15 297h80l39 -164l38 164h82q3 -45 13 -297h-60q0 108 -6 213l-41 -168h-55l-41 168h-2q-4 -140 -4 -213h-58zM647 633q3 8 9 22t25 53.5t39 75.5t50 80.5t59.5 76t66 53.5t71.5 22q49 0 79.5 -24.5t39 -51t8.5 -53.5q0 -43 -34.5 -72.5t-72.5 -34.5 q-213 -23 -340 -147zM879 301q0 81 24 117.5t84 36.5t85.5 -37t25.5 -117q0 -79 -25.5 -115t-85.5 -36t-84 35.5t-24 115.5zM938 301q0 -54 10 -78t39 -24q30 0 40.5 24t10.5 78q0 55 -10 78.5t-41 23.5q-29 0 -39 -23.5t-10 -78.5z" />
<glyph unicode="&#xad;" d="M129 154v292q61 9 76 9q67 0 96 -37.5t29 -116.5t-29.5 -115t-97.5 -36q-47 0 -74 4zM158 780q0 53 33.5 91t93.5 38q39 0 78 -21t69.5 -55t58.5 -74.5t48 -81.5t35 -75t22 -55l8 -21q-117 148 -319 148q-49 0 -88 30t-39 76zM188 201q4 -2 19 -2q37 0 50 25t13 77 q0 54 -13 78t-50 24q-13 0 -19 -2v-200zM377 154v297h155v-52h-96v-69h82v-49h-82v-78h96v-49h-155zM437 1128.5q-7 46.5 24 83.5q23 23 53 34t65 3.5t64 -35.5q38 -37 48.5 -102t-2.5 -131t-31.5 -126.5t-35.5 -98.5l-18 -39q20 191 -125 330q-35 35 -42 81.5zM571 154 q3 156 15 297h80l39 -164l38 164h82q3 -45 13 -297h-60q0 108 -6 213l-41 -168h-55l-41 168h-2q-4 -140 -4 -213h-58zM647 633q3 8 9 22t25 53.5t39 75.5t50 80.5t59.5 76t66 53.5t71.5 22q49 0 79.5 -24.5t39 -51t8.5 -53.5q0 -43 -34.5 -72.5t-72.5 -34.5 q-213 -23 -340 -147zM879 301q0 81 24 117.5t84 36.5t85.5 -37t25.5 -117q0 -79 -25.5 -115t-85.5 -36t-84 35.5t-24 115.5zM938 301q0 -54 10 -78t39 -24q30 0 40.5 24t10.5 78q0 55 -10 78.5t-41 23.5q-29 0 -39 -23.5t-10 -78.5z" />
<glyph unicode="&#x2000;" horiz-adv-x="682" />
<glyph unicode="&#x2001;" horiz-adv-x="1365" />
<glyph unicode="&#x2002;" horiz-adv-x="682" />
<glyph unicode="&#x2003;" horiz-adv-x="1365" />
<glyph unicode="&#x2004;" horiz-adv-x="455" />
<glyph unicode="&#x2005;" horiz-adv-x="341" />
<glyph unicode="&#x2006;" horiz-adv-x="227" />
<glyph unicode="&#x2007;" horiz-adv-x="227" />
<glyph unicode="&#x2008;" horiz-adv-x="170" />
<glyph unicode="&#x2009;" horiz-adv-x="273" />
<glyph unicode="&#x200a;" horiz-adv-x="75" />
<glyph unicode="&#x2010;" d="M129 154v292q61 9 76 9q67 0 96 -37.5t29 -116.5t-29.5 -115t-97.5 -36q-47 0 -74 4zM158 780q0 53 33.5 91t93.5 38q39 0 78 -21t69.5 -55t58.5 -74.5t48 -81.5t35 -75t22 -55l8 -21q-117 148 -319 148q-49 0 -88 30t-39 76zM188 201q4 -2 19 -2q37 0 50 25t13 77 q0 54 -13 78t-50 24q-13 0 -19 -2v-200zM377 154v297h155v-52h-96v-69h82v-49h-82v-78h96v-49h-155zM437 1128.5q-7 46.5 24 83.5q23 23 53 34t65 3.5t64 -35.5q38 -37 48.5 -102t-2.5 -131t-31.5 -126.5t-35.5 -98.5l-18 -39q20 191 -125 330q-35 35 -42 81.5zM571 154 q3 156 15 297h80l39 -164l38 164h82q3 -45 13 -297h-60q0 108 -6 213l-41 -168h-55l-41 168h-2q-4 -140 -4 -213h-58zM647 633q3 8 9 22t25 53.5t39 75.5t50 80.5t59.5 76t66 53.5t71.5 22q49 0 79.5 -24.5t39 -51t8.5 -53.5q0 -43 -34.5 -72.5t-72.5 -34.5 q-213 -23 -340 -147zM879 301q0 81 24 117.5t84 36.5t85.5 -37t25.5 -117q0 -79 -25.5 -115t-85.5 -36t-84 35.5t-24 115.5zM938 301q0 -54 10 -78t39 -24q30 0 40.5 24t10.5 78q0 55 -10 78.5t-41 23.5q-29 0 -39 -23.5t-10 -78.5z" />
<glyph unicode="&#x2011;" d="M129 154v292q61 9 76 9q67 0 96 -37.5t29 -116.5t-29.5 -115t-97.5 -36q-47 0 -74 4zM158 780q0 53 33.5 91t93.5 38q39 0 78 -21t69.5 -55t58.5 -74.5t48 -81.5t35 -75t22 -55l8 -21q-117 148 -319 148q-49 0 -88 30t-39 76zM188 201q4 -2 19 -2q37 0 50 25t13 77 q0 54 -13 78t-50 24q-13 0 -19 -2v-200zM377 154v297h155v-52h-96v-69h82v-49h-82v-78h96v-49h-155zM437 1128.5q-7 46.5 24 83.5q23 23 53 34t65 3.5t64 -35.5q38 -37 48.5 -102t-2.5 -131t-31.5 -126.5t-35.5 -98.5l-18 -39q20 191 -125 330q-35 35 -42 81.5zM571 154 q3 156 15 297h80l39 -164l38 164h82q3 -45 13 -297h-60q0 108 -6 213l-41 -168h-55l-41 168h-2q-4 -140 -4 -213h-58zM647 633q3 8 9 22t25 53.5t39 75.5t50 80.5t59.5 76t66 53.5t71.5 22q49 0 79.5 -24.5t39 -51t8.5 -53.5q0 -43 -34.5 -72.5t-72.5 -34.5 q-213 -23 -340 -147zM879 301q0 81 24 117.5t84 36.5t85.5 -37t25.5 -117q0 -79 -25.5 -115t-85.5 -36t-84 35.5t-24 115.5zM938 301q0 -54 10 -78t39 -24q30 0 40.5 24t10.5 78q0 55 -10 78.5t-41 23.5q-29 0 -39 -23.5t-10 -78.5z" />
<glyph unicode="&#x2012;" d="M129 154v292q61 9 76 9q67 0 96 -37.5t29 -116.5t-29.5 -115t-97.5 -36q-47 0 -74 4zM158 780q0 53 33.5 91t93.5 38q39 0 78 -21t69.5 -55t58.5 -74.5t48 -81.5t35 -75t22 -55l8 -21q-117 148 -319 148q-49 0 -88 30t-39 76zM188 201q4 -2 19 -2q37 0 50 25t13 77 q0 54 -13 78t-50 24q-13 0 -19 -2v-200zM377 154v297h155v-52h-96v-69h82v-49h-82v-78h96v-49h-155zM437 1128.5q-7 46.5 24 83.5q23 23 53 34t65 3.5t64 -35.5q38 -37 48.5 -102t-2.5 -131t-31.5 -126.5t-35.5 -98.5l-18 -39q20 191 -125 330q-35 35 -42 81.5zM571 154 q3 156 15 297h80l39 -164l38 164h82q3 -45 13 -297h-60q0 108 -6 213l-41 -168h-55l-41 168h-2q-4 -140 -4 -213h-58zM647 633q3 8 9 22t25 53.5t39 75.5t50 80.5t59.5 76t66 53.5t71.5 22q49 0 79.5 -24.5t39 -51t8.5 -53.5q0 -43 -34.5 -72.5t-72.5 -34.5 q-213 -23 -340 -147zM879 301q0 81 24 117.5t84 36.5t85.5 -37t25.5 -117q0 -79 -25.5 -115t-85.5 -36t-84 35.5t-24 115.5zM938 301q0 -54 10 -78t39 -24q30 0 40.5 24t10.5 78q0 55 -10 78.5t-41 23.5q-29 0 -39 -23.5t-10 -78.5z" />
<glyph unicode="&#x2013;" horiz-adv-x="1279" d="M129 154v292q64 9 80 9q71 0 101.5 -37.5t30.5 -116.5t-31 -115t-103 -36q-49 0 -78 4zM160 780q0 53 35 91t99 38q41 0 82 -21t73.5 -55t62 -74.5t50.5 -81.5t37 -75t24 -55l8 -21q-124 148 -337 148q-52 0 -93 30t-41 76zM191 201q5 -2 20 -2q40 0 53.5 25t13.5 77 q0 54 -13.5 78t-53.5 24q-13 0 -20 -2v-200zM391 154v297h164v-52h-102v-69h87v-49h-87v-78h102v-49h-164zM454.5 1128.5q-7.5 46.5 25.5 83.5q24 23 56 34t69 3.5t67 -35.5q40 -37 51.5 -102t-2.5 -131t-33.5 -126.5t-37.5 -98.5l-19 -39q21 191 -132 330 q-37 35 -44.5 81.5zM596 154q3 156 16 297h84l42 -164l40 164h87q3 -45 13 -297h-63q0 108 -7 213l-43 -168h-58l-43 168h-2q-5 -140 -5 -213h-61zM676 633q4 8 10 22t26 53.5t41.5 75.5t53 80.5t62.5 76t70 53.5t76 22q51 0 83.5 -24.5t41.5 -51t9 -53.5q0 -43 -36.5 -72.5 t-76.5 -34.5q-225 -23 -360 -147zM922 301q0 81 25 117.5t88.5 36.5t90.5 -37t27 -117q0 -79 -27 -115t-90.5 -36t-88.5 35.5t-25 115.5zM984 301q0 -54 10.5 -78t41.5 -24t42.5 24t11.5 78q0 55 -11 78.5t-43 23.5q-31 0 -41.5 -23.5t-10.5 -78.5z" />
<glyph unicode="&#x2014;" horiz-adv-x="2303" d="M129 154v292q129 9 161 9q141 0 202.5 -37.5t61.5 -116.5t-62.5 -115t-206.5 -36q-99 0 -156 4zM190 780q0 53 71 91t198 38q82 0 164.5 -21t147 -55t123.5 -74.5t101.5 -81.5t74 -75t46.5 -55l17 -21q-247 148 -674 148q-104 0 -186.5 30t-82.5 76zM254 201q8 -2 40 -2 q78 0 105.5 25t27.5 77q0 54 -27.5 78t-105.5 24q-28 0 -40 -2v-200zM653 154v297h328v-52h-203v-69h173v-49h-173v-78h203v-49h-328zM780 1128.5q-15 46.5 51 83.5q48 23 111.5 34t137.5 3.5t135 -35.5q81 -37 103 -102t-5.5 -131t-66.5 -126.5t-75 -98.5l-38 -39 q42 191 -264 330q-74 35 -89 81.5zM1063 154q7 156 32 297h169l82 -164l81 164h173q6 -45 27 -297h-126q0 108 -13 213l-87 -168h-116l-87 168h-4q-8 -140 -8 -213h-123zM1224 633q6 8 19 22t53 53.5t82 75.5t105.5 80.5t126 76t139.5 53.5t151 22q104 0 168.5 -24.5 t82.5 -51t18 -53.5q0 -43 -73 -72.5t-154 -34.5q-450 -23 -718 -147zM1714 301q0 81 51 117.5t177.5 36.5t180.5 -37t54 -117q0 -79 -54 -115t-180.5 -36t-177.5 35.5t-51 115.5zM1839 301q0 -54 21 -78t82 -24q64 0 86 24t22 78q0 55 -21 78.5t-87 23.5q-61 0 -82 -23.5 t-21 -78.5z" />
<glyph unicode="&#x202f;" horiz-adv-x="273" />
<glyph unicode="&#x205f;" horiz-adv-x="341" />
<glyph unicode="&#x25fc;" horiz-adv-x="921" d="M0 0v922h922v-922h-922z" />
</font>
</defs>
</svg>
