<?xml version="1.0" standalone="no"?>
<!DOCTYPE svg PUBLIC "-//W3C//DTD SVG 1.1//EN" "http://www.w3.org/Graphics/SVG/1.1/DTD/svg11.dtd" >
<svg xmlns="http://www.w3.org/2000/svg" xmlns:xlink="http://www.w3.org/1999/xlink" version="1.1">
<metadata></metadata>
<defs>
<font id="la_obrigepersonal_use" horiz-adv-x="2185" >
<font-face units-per-em="2048" ascent="1638" descent="-410" />
<missing-glyph horiz-adv-x="754" />
<glyph horiz-adv-x="0" />
<glyph horiz-adv-x="682" />
<glyph unicode=" "  horiz-adv-x="754" />
<glyph unicode="&#x09;" horiz-adv-x="754" />
<glyph unicode="&#xa0;" horiz-adv-x="754" />
<glyph unicode="!" horiz-adv-x="562" />
<glyph unicode="&#x22;" horiz-adv-x="688" />
<glyph unicode="#" horiz-adv-x="2479" />
<glyph unicode="$" horiz-adv-x="1394" />
<glyph unicode="%" horiz-adv-x="1642" />
<glyph unicode="&#x26;" horiz-adv-x="1711" d="M63 510q-35 139 1 281q40 145 141 255t237 174q-111 126 -129 294v2q-6 60 3 119q34 220 218 352q52 36 111 57q168 60 337 8q61 -19 119 -55l3 -3q38 -17 60 -50q20 -32 20 -70q0 -55 -39 -94q-38 -38 -92 -38q-55 0 -93 38q-38 40 -38 94q0 56 41 95q22 20 49 29 q-39 17 -79 26q-4 1 -11 1q-104 2 -194.5 -73.5t-143 -204t-51.5 -277.5q0 -120 35 -228q27 -86 70 -151q24 -36 47 -61q1 -1 4 -3.5t5 -4.5q3 -3 9.5 -10t10.5 -11q2 -1 5.5 -3.5t4.5 -4.5q0 -1 1 -1q1 -1 3 -4l69 -69q46 -47 139 -140q58 -59 175.5 -176t176.5 -175 q9 -9 26 -26.5t25 -25.5q12 -12 35 -34.5t34 -33.5q10 13 28 39q46 101 46 217q0 24 -1 36q0 4 -0.5 11.5t-1.5 11.5q-20 131 -110 217q-89 87 -211 87h182h154q10 -19 19 -38q1 -3 3.5 -9t4.5 -9q1 -1 1 -3q1 -1 1 -2q1 -1 1 -2q0 -2 1 -2q1 -4 5 -12q67 -184 12 -373 q-34 -107 -106 -198q48 -47 95 -95q24 -23 47 -47l121 -121q13 -14 -0.5 -27.5t-27.5 -0.5h-1q0 1 -1 2q-48 43 -99 98q-16 17 -49 50q-19 19 -56 55t-55 55q0 -1 -1 -2l-6 -6q-19 -21 -61 -59q-132 -109 -297 -156q-162 -46 -334 -28q-153 18 -287.5 85t-231.5 179 q-94 111 -129 249zM341 568q-1 -193 106.5 -343.5t268.5 -187.5q22 -3 66 -5q53 -1 112 5q277 27 464 214q8 8 24 26l-163 163l-176 176l-176 176q-44 44 -66 65q-6 5 -16.5 16t-15.5 17l-166 166q-118 -69 -190 -198t-72 -290z" />
<glyph unicode="'" horiz-adv-x="273" />
<glyph unicode="(" horiz-adv-x="936" />
<glyph unicode=")" horiz-adv-x="987" />
<glyph unicode="*" horiz-adv-x="214" />
<glyph unicode="+" horiz-adv-x="1169" />
<glyph unicode="," horiz-adv-x="373" d="M60 134q0 57 40 97t97 40t97 -40q41 -41 41 -97q0 -7 -2 -19q-2 -48 -17 -87q-49 -130 -196 -225q-10 -7 -19.5 -0.5t-10 16.5t8.5 18q121 79 169 180q-32 -20 -71 -20q-47 0 -81 27q-18 13 -31 31q-25 34 -25 79z" />
<glyph unicode="-" horiz-adv-x="1161" />
<glyph unicode="." horiz-adv-x="319" d="M24 136q0 57 40 97t97 40t97 -40q41 -41 41 -97q0 -44 -26 -79q-11 -17 -30 -31q-36 -27 -82 -27q-47 0 -81 27q-18 13 -31 31q-25 34 -25 79z" />
<glyph unicode="/" horiz-adv-x="1062" />
<glyph unicode="0" horiz-adv-x="1990" />
<glyph unicode="1" horiz-adv-x="2454" d="M199 1248q138 -1 269.5 35.5t243.5 102t206.5 160t160.5 206.5t102.5 244t35.5 270q-1 -207 80 -395.5t217.5 -325.5t325.5 -217.5t396 -79.5q-165 1 -321 -50.5t-281.5 -146t-220 -220t-146 -281.5t-50.5 -321q1 206 -80 395.5t-218 326t-325.5 217.5t-394.5 80z" />
<glyph unicode="2" horiz-adv-x="2272" d="M0 2385q117 -1 218.5 58.5t161 161t58.5 218.5q-2 -117 57.5 -219t161.5 -161t218 -58q-116 2 -218 -57.5t-161.5 -161.5t-57.5 -218q1 116 -58.5 218t-161 161.5t-218.5 57.5zM686 1736q138 -1 269.5 35.5t243.5 102t206.5 160t160.5 206.5t102.5 244t35.5 270 q-1 -207 80 -395.5t217.5 -325.5t325.5 -217.5t396 -79.5q-165 1 -321 -50.5t-281.5 -146t-220 -220t-146 -281.5t-50.5 -321q1 206 -80 395.5t-218 326t-325.5 217.5t-394.5 80zM2004 3126q179 -2 309.5 128.5t128.5 309.5q-2 -179 128.5 -309.5t309.5 -128.5 q-179 2 -309.5 -128.5t-128.5 -309.5q2 179 -128.5 309.5t-309.5 128.5z" />
<glyph unicode="3" horiz-adv-x="2671" d="M116 -623q179 -2 309.5 128.5t128.5 309.5q-2 -179 128.5 -309.5t309.5 -128.5q-179 2 -309.5 -128.5t-128.5 -309.5q2 179 -128.5 309.5t-309.5 128.5zM197 1124q138 -1 269.5 35.5t243.5 102t206.5 160t160.5 206.5t102.5 244t35.5 270q-1 -207 80 -395.5t217.5 -325.5 t325.5 -217.5t395 -79.5q-165 1 -320.5 -50.5t-281 -146t-220 -220t-146 -281.5t-50.5 -321q0 210 -80 396q-79 185 -219 324t-324 219q-186 80 -395 80zM1795 101q117 -2 219 57.5t161 161.5t58 218q-1 -116 58 -218t161 -161.5t219 -57.5q-179 1 -309.5 -129.5 t-128.5 -308.5q2 178 -128.5 308.5t-309.5 129.5z" />
<glyph unicode="4" horiz-adv-x="3806" d="M0 -1014q398 369 711 723q314 351 507 671q192 320 222 582q31 263 -139 452q163 -173 418 -173q699 -1 2085 1287q-386 -357 -713 -718q-313 -346 -511 -664q-194 -314 -227 -574q-32 -260 138 -448q-165 173 -406 170q-261 -3 -594 -173q-332 -170 -709 -463 q-381 -296 -782 -672zM728 -333q198 154 398 287q579 382 959 380q145 0 262 -55q-52 133 -34 297q30 258 233 590q187 307 528 685q-209 -161 -394 -279q-581 -371 -961 -371q-151 0 -273 57q133 -347 -194 -898q-190 -317 -524 -693z" />
<glyph unicode="5" horiz-adv-x="2521" d="M159.5 1021.5q2.5 10.5 14.5 13.5q2 1 4 1t4 1q12 2 34 7t34 7q336 72 504 107q6 1 18 3.5t19 4.5q12 2 19.5 -6.5t5 -18.5t-13.5 -13l-69 -15q-1 0 -3.5 -0.5t-3.5 -1.5q-91 -19 -271 -57q-40 -8 -131 -28t-140 -30q-11 -2 -19 6.5t-5.5 19zM168.5 1511q4.5 18 24.5 15 q7 -2 19 -5t19 -4q6 -2 18.5 -5t19.5 -4q360 -80 540 -121q11 -4 13.5 -14.5t-5 -18.5t-19.5 -6q-6 1 -20 4t-20 5t-18 4.5t-18 3.5q-90 21 -270 61.5t-270 60.5q-18 6 -13.5 24zM320 1266q0 18 19 20q9 -1 28 -1q9 -1 27 -1q7 0 21 -1t21 -1l351 -12q19 -2 19 -20t-19 -20 q-9 1 -28 1q-9 1 -27 1q-66 3 -197 7.5t-196 6.5q-19 2 -19 20zM366.5 566.5q-1.5 8.5 6.5 17.5q20 16 30 25q20 16 31 24q175 138 434 343q10 7 21.5 2.5t13 -13t-6.5 -17.5q-4 -3 -11 -9t-8 -7l-42 -33q-30 -23 -89 -69.5t-89 -70.5q-103 -82 -256 -203q-10 -7 -21.5 -2.5 t-13 13zM382.5 1952q2.5 10 13 13.5t21.5 -3.5q9 -7 29 -23q23 -19 31 -26q31 -26 95 -77t95 -77q60 -49 241 -194q9 -9 5.5 -19t-13.5 -13t-21 4l-30 24q-20 16 -30 25q-71 58 -214.5 174t-215.5 174q-9 8 -6.5 18zM398 867.5q0 9.5 11 16.5q9 4 50 23q59 27 179 81t179 81 q11 5 20.5 -2t9.5 -16.5t-10 -16.5q-2 0 -5 -1.5l-5 -2.5q-6 -3 -19.5 -9t-20.5 -9q-26 -12 -76 -35t-76 -34q-34 -16 -103 -46.5t-103 -46.5q-11 -5 -21 1.5t-10 16zM418 1667.5q0 9.5 9.5 16t20.5 1.5q2 -1 8 -3.5t8 -4.5q5 -3 16 -8t17 -8q29 -14 88 -43.5t88 -44.5 q147 -75 176 -89q10 -7 10 -16.5t-10 -16t-21 -1.5q-9 5 -29 15q-3 2 -10 5.5t-10 4.5q-59 30 -176 88t-175 88q-10 7 -10 16.5zM651 530.5q-3 10.5 4 20.5q1 1 19 22q3 3 8.5 9.5t8.5 9.5l153 177l105 120q13 13 26.5 0t1.5 -28l-18 -21l-18 -21q-53 -61 -161 -185 q-64 -74 -97 -111q-8 -9 -18.5 -6t-13.5 13.5zM679 1989.5q6 9.5 16.5 10t19.5 -8.5q9 -13 17 -22q3 -4 8 -11.5t8 -10.5q40 -52 118.5 -156.5t118.5 -157.5q7 -10 1.5 -19t-16 -9.5t-20.5 8.5q-2 4 -3 5l-30 39q-8 10 -51.5 68t-66.5 89q-22 29 -62.5 82t-56.5 75 q-7 9 -1 18.5zM745 265l36 69q41 81 251 494q10 16 26.5 6.5t8.5 -27.5q-5 -10 -15 -29t-15 -29q-4 -8 -6 -11q-27 -55 -83 -163l-168 -330q-10 -16 -26.5 -7t-8.5 27zM772 2240q-8 18 8.5 27t26.5 -7q5 -11 17 -34.5t17 -35.5q22 -43 43 -86q33 -68 100.5 -204.5 t101.5 -205.5q5 -11 -1.5 -20.5t-16 -9.5t-16.5 10q-6 13 -18 37q-5 11 -17 33q-112 228 -169 342q-12 25 -37.5 76.5t-38.5 77.5zM913 1247q-1 71 27.5 137t76.5 114t114 76.5t137 27.5q71 1 137 -27.5t114 -76.5t76.5 -114t27.5 -137q1 -71 -27.5 -137t-76.5 -114 t-114 -76.5t-137 -27.5q-71 -1 -137 27.5t-114 76.5t-76.5 114t-27.5 137zM1010 353l6.5 26t7.5 27q2 6 4 16.5t4 15.5q31 116 91 348q6 20 24 14.5t15 -24.5q-2 -5 -4.5 -15t-3.5 -15q-2 -7 -6 -23l-57 -219q-28 -108 -43 -162q-6 -18 -24 -13t-14 24zM1054 2152 q-2 12 6.5 19.5t18.5 5t13 -13.5l12 -54l84 -384q3 -19 -15 -23.5t-24 12.5l-6 30q-4 16 -5 24zM1220 136v36v42q3 169 7 507v46q1 12 11 17t19.5 0t9.5 -17q0 -51 -1 -77q-2 -183 -6 -547v-7q-2 -19 -21 -19t-19 19zM1248 1729v78v277v277q0 19 20 19t20 -19v-78v-277v-277 q0 -19 -20 -19t-20 19zM1346 770q-2 13 6.5 20t19 4.5t13.5 -13.5l9 -54l69 -387q1 -12 -7.5 -19.5t-18.5 -5.5t-13 14l-9 54q-4 23 -12 68t-12 68q-30 168 -45 251zM1352 1723q3 15 7 26l6 27q5 18 14 53t13 53q12 46 34.5 138t33.5 138q6 18 24 13t15 -24q-3 -9 -7 -27 q-3 -15 -7 -26q-15 -63 -47 -190.5t-47 -191.5q-6 -18 -24 -13t-15 24zM1447 797q-4 11 3 20.5t16 9.5t16 -10q0 -1 1.5 -5t2.5 -5q9 -21 27 -61l102 -228q21 -47 62 -139t61 -139q5 -11 -1.5 -21t-16 -10t-16.5 11q-3 8 -10 23.5t-11 22.5q-3 9 -11 25q-5 12 -16 36t-16 36 q-99 225 -193 434zM1487 1675q7 11 19 35q3 6 9 17.5t9 16.5q90 172 135 257q13 25 56 107t66 126q11 16 27 7t7 -27q-5 -11 -16 -32.5t-17 -31.5q-1 -1 -3 -5q-7 -13 -21 -41q-45 -85 -128 -243t-108 -206q-10 -16 -26.5 -7t-8.5 27zM1533 865q6 9 16.5 9t19.5 -8 q12 -16 18 -25q3 -4 14 -19q123 -166 233 -317q7 -9 1 -18.5t-16 -10t-19 8.5q-2 3 -6 7.5t-4 5.5q-21 29 -23 32q-99 133 -233 316q-7 10 -1 19zM1574 1599q-3 10 4 21q3 4 9 10.5t9 9.5l18 21q127 141 131 146q22 24 65.5 73t64.5 74q15 13 28 0t1 -28q-7 -7 -19 -21 t-18 -20l-141 -159l-120 -135q-9 -9 -19 -5.5t-13 13.5zM1608 933.5q3 10.5 13.5 13.5t20.5 -4q11 -9 35 -29q16 -14 25 -21q33 -27 100 -83t101 -83q75 -63 225 -187q9 -9 5.5 -19t-13.5 -13t-21 4q-8 7 -31 26q-11 10 -28 23q-16 14 -142.5 118.5t-192.5 159.5 q-18 15 -52.5 44t-38.5 32q-9 8 -6 18.5zM1639.5 1528.5q-0.5 10.5 8.5 19.5q22 16 33 23q20 16 30 23q81 59 190 137q43 31 129 93.5t129 94.5q10 7 19 1t9 -16.5t-8 -19.5l-63 -45q-71 -53 -215 -157q-29 -21 -109 -79t-124 -90q-9 -7 -18.5 -1t-10 16.5zM1679 1036 q9 16 27 7q8 -5 24 -13.5t24 -12.5q29 -17 196 -109q25 -13 74 -40.5t74 -41.5q16 -10 6.5 -26.5t-26.5 -7.5q-14 7 -42 23l-6 3q-29 16 -86.5 48t-85.5 48q-89 48 -172 95q-16 11 -7 27zM1690.5 1443q2.5 11 13.5 16q4 2 13.5 6t14.5 6q7 3 23 9l258 105q85 34 106 43 q12 4 18.5 -3.5t4.5 -18.5t-12 -17q-5 -2 -26 -11q-5 -2 -13.5 -5.5t-11.5 -4.5q-97 -38 -182 -73q-30 -12 -90.5 -36.5t-91.5 -37.5q-12 -4 -19.5 3.5t-5 18.5zM1714.5 1127q5.5 18 24.5 15q13 -4 37.5 -10t37.5 -10q179 -48 535 -144q19 -6 14 -24.5t-24 -13.5 q-13 4 -38 10t-38 10q-43 11 -128 34t-127 34l-279 75q-20 6 -14.5 24zM1723 1322q-5 18 14 24q6 2 20 4.5t20 3.5q24 4 36 7l543 108q11 2 19 -6.5t5.5 -18.5t-14.5 -13q-7 -2 -19 -4.5t-19 -3.5q-15 -3 -38 -7q-13 -3 -39 -8t-39 -8l-465 -93q-19 -3 -24 15zM1731 1222 q0 19 19 19h8q8 -1 23.5 -1.5t23.5 -0.5q32 -1 97.5 -4.5t99.5 -5.5q33 -2 98.5 -5t97.5 -4q19 -2 19 -20t-19 -20q-5 0 -14.5 1t-13.5 1q-18 0 -27 1l-393 18q-19 2 -19 21z" />
<glyph unicode="6" horiz-adv-x="2793" d="M243 -4v2191v50v163v18q0 15 1 22q0 16 1 23q3 60 14 129l3 21q0 4 2 11.5t2 10.5q15 65 31 117q1 4 3 10t3 10q3 11 7 20q22 60 43 104l9 18q6 12 9 19q23 45 49 85q1 2 10 17q8 12 11 17q23 33 50 68q1 1 13 16q8 10 13 15q29 35 62 68q2 3 6 7l8 8q9 9 14 13 q34 34 79 69q15 12 16 13q2 2 8 6t8 6q44 31 90 60q12 8 19 11q3 2 9 5t9 5q44 25 100 50q4 2 10 4t10 4q3 1 9.5 3.5t10.5 4.5q72 29 137 44q3 1 10.5 3t11.5 3q9 1 22 5q104 22 216 25h23h6h16q474 -11 811 -342q166 -167 254 -379.5t88 -446.5v-596v-1748v-60h-2337z M303 56h209v416h510v90v353h479v447h509v89v353h510v596q1 326 -176 598t-464 406l-4 -4q-29 -21 -32 -23q-6 -4 -16.5 -12t-14.5 -11q-81 -59 -190 -137q-43 -31 -129 -93.5t-129 -94.5q-10 -7 -19 -1t-9 16t8 19q4 3 14.5 11t16.5 12q29 21 32 23q19 14 208 151 q118 85 223 163q-198 85 -427 85h-16q-57 -109 -173 -329q-1 -1 -2 -4t-2 -5q-10 -16 -26.5 -6t-8.5 27l18 33l18 36q7 13 29.5 55t34.5 66l66 126q-104 -6 -201 -30q-10 -41 -30.5 -124t-31.5 -125q-6 -19 -24.5 -13.5t-13.5 23.5q8 36 13 54q18 75 25 100q12 48 18 73 q-61 -18 -120 -42v-178q0 -19 -20 -19t-20 19v160q-45 -19 -87 -45l27 -120q2 -11 -6.5 -19t-19 -5.5t-13.5 14.5l-6 27q-1 4 -3 12.5t-3 13.5t-3 14.5t-3 13.5l-6 27q-40 -25 -76 -52q3 -7 9 -19t9 -19q10 -19 19 -38q5 -11 -1.5 -21t-16 -10t-16.5 11q-6 11 -18 35 q-8 17 -17 34v1q-30 -23 -70 -61q9 -14 19 -25q9 -14 19 -25q7 -10 1 -19t-16.5 -9.5t-19.5 8.5q-2 3 -7.5 9.5t-8.5 10.5q-2 4 -7.5 11t-8.5 10q-27 -27 -51 -57q3 -3 9.5 -8.5t10.5 -7.5q1 -1 20 -17q9 -8 6 -18t-13.5 -13.5t-20.5 3.5q-13 10 -37 30q-30 -38 -43 -58 q16 -8 25 -12l24 -12q16 -10 7 -26.5t-27 -8.5q-30 16 -45 23l-2 1l-2 1q-1 0 -2 1q-22 -35 -42 -72q7 -2 19 -4.5t18 -3.5l36 -9q13 -3 15 -13t-6 -18.5t-19 -6.5q-19 4 -31 7q-8 1 -23 4.5t-22 5.5h-3q-1 1 -3 1q-21 -45 -39 -93q38 0 57 -1q9 0 26.5 -1t25.5 -1 q12 -1 17 -11t0 -19.5t-17 -9.5h-2q-9 1 -26.5 1.5t-26.5 0.5q-23 0 -34 1q-23 0 -34 1q-18 -54 -29 -102q52 12 79 17q26 5 78 17q19 3 24 -15t-14 -24q-7 -2 -22 -5t-22 -4q-13 -4 -32 -7q-6 -1 -22 -4.5t-25 -5.5q-36 -8 -53 -11q-11 -57 -15 -115q35 16 103.5 47 t102.5 46q11 5 21 -1.5t10 -16t-10 -16.5q-17 -7 -51 -23q-14 -6 -43 -19.5t-44 -20.5q-17 -7 -92 -41q-1 -15 -1 -46v-115q44 34 131 102.5t131 103.5q9 8 20 3.5t13.5 -13.5t-5.5 -18q-20 -16 -31 -24l-30 -24q-45 -36 -112 -89q-20 -15 -59 -46t-58 -46v-2178zM352 2066 l36 42q172 198 257 297q5 5 11.5 6t11.5 -2t8 -8t3 -12t-5 -13q-4 -3 -10.5 -10.5t-9.5 -11.5t-9 -11t-7 -8q-21 -24 -63.5 -73t-64.5 -74t-65.5 -75t-64.5 -75q-14 -14 -27 -0.5t-1 28.5zM442 1781q5 11 17 33l18 36q84 165 252 493q7 10 16.5 10t16 -9.5t1.5 -20.5l-6 -12 q-20 -38 -29 -57q-42 -83 -126 -247t-125 -247q-10 -16 -26.5 -6.5t-8.5 27.5zM610 2763q-1 71 27.5 137t76.5 114t114 76.5t137 27.5q71 1 137 -27.5t114 -76.5t76.5 -114t27.5 -137q1 -71 -27.5 -137t-76.5 -114t-114 -76.5t-137 -27.5q-71 -1 -137 27.5t-114 76.5 t-76.5 114t-27.5 137zM706 1868l12 45q0 1 1 4t1 5q9 36 28 107t28 106q6 24 21 80.5t23 86.5q6 18 24 13t14 -24q-3 -9 -7.5 -27l-6.5 -26q-17 -64 -50 -190.5t-49 -189.5q-6 -19 -24 -14t-15 24zM916 1652q1 26 1 77q4 367 7 554q2 19 20 19t20 -19q-1 -26 -1 -78 q-1 -47 -2 -140.5t-2 -139.5l-3 -273q-2 -20 -20 -20t-20 20zM1043 2286q-2 12 6.5 19.5t18.5 5t13 -14.5q1 -8 4 -26t5 -26q1 -1 1 -2q10 -57 30 -173q6 -36 18.5 -107.5t19.5 -106.5q2 -12 -6.5 -19.5t-18.5 -5t-13 14.5q-1 9 -4.5 27t-5.5 27q-19 111 -59 335q-2 8 -5 26 t-4 26zM1144 2312q-5 11 1.5 21t16 10t16.5 -11q6 -13 17 -37.5t15 -33.5q37 -84 112 -253t113 -253q5 -11 -2 -20.5t-16.5 -9.5t-15.5 10q-4 9 -15 33.5t-17 37.5q-26 59 -78 175t-78 175zM1230 2380.5q6 9.5 16 10t19 -8.5q12 -16 17 -24q3 -3 8 -10t8 -11q20 -27 58 -79 t58 -79t59 -79.5t58 -78.5q7 -10 1 -19t-16.5 -9.5t-19.5 8.5q0 1 -1 2q-11 14 -31 42q-18 23 -53 70.5t-52 71.5q-27 36 -128 175q-7 9 -1 18.5zM1274 3135q22 24 33 37l4 4l261 294q9 9 19.5 6t13 -13.5t-4.5 -21.5q-3 -4 -11 -12q-9 -9 -25 -29q-4 -5 -131 -146 q-22 -25 -65.5 -74t-64.5 -73q-14 -14 -27.5 -0.5t-1.5 28.5zM1309 2457q13 13 30 2q10 -9 30 -25q9 -9 29 -25q56 -47 170 -141t170 -141q14 -12 43 -36t43 -36q16 -12 1.5 -26t-29.5 -2q-10 8 -30 24.5t-30 25.5q-142 117 -426 353q-14 14 -1 27zM1375.5 2550.5 q9.5 16.5 26.5 8.5q2 -1 25 -14q16 -8 24 -13l162 -90q30 -17 90.5 -50.5t91.5 -49.5q15 -11 6 -26.5t-27 -8.5q-27 15 -29 16q-12 8 -19 11q-2 1 -8.5 4.5t-10.5 5.5q-216 120 -325 180q-16 10 -6.5 26.5zM1388 2958q2 11 13 17q9 3 27 11q4 1 12 4.5t12 5.5q14 5 40.5 16 t39.5 16q133 55 284 115q11 4 18.5 -3.5t5 -18.5t-13.5 -16q-4 -2 -13.5 -6t-14.5 -6q-7 -3 -23 -9q-112 -46 -169 -69q-130 -52 -195 -79q-11 -4 -18 3.5t-5 18.5zM1412 2643q5 18 24 14q5 -1 17 -4t17 -5q28 -8 41 -11l237 -63q49 -14 149 -40.5t149 -39.5q18 -6 13 -24 t-24 -15q-7 2 -19.5 5.5t-17.5 4.5q-6 1 -19 5t-19 5q-40 11 -119.5 32t-118.5 32q-50 13 -149 39.5t-148 40.5q-18 6 -13 24zM1419.5 2848q2.5 10 13.5 13q6 1 19 4t19 4q15 3 38 7q28 6 84 17.5t84 16.5l375 75q20 3 24.5 -15t-13.5 -24q-24 -4 -36 -7q-6 -1 -20 -4 t-20 -4q-46 -9 -136 -27t-136 -27q-91 -18 -271 -54q-13 -2 -20 6.5t-4.5 18.5zM1427 2737q0 18 20 20q36 -2 55 -3q32 -1 98 -4t98 -5q33 -1 98 -4t98 -5q12 -1 17 -11t0 -19.5t-17 -9.5q-18 0 -27 1t-28 1q-33 1 -98 4t-98 5q-33 1 -98 4.5t-98 5.5q-20 2 -20 20z" />
<glyph unicode="7" horiz-adv-x="1533" />
<glyph unicode="8" horiz-adv-x="2040" />
<glyph unicode="9" horiz-adv-x="1948" />
<glyph unicode=":" horiz-adv-x="456" />
<glyph unicode=";" horiz-adv-x="467" />
<glyph unicode="&#x3c;" horiz-adv-x="927" />
<glyph unicode="=" horiz-adv-x="914" />
<glyph unicode="&#x3e;" horiz-adv-x="938" />
<glyph unicode="?" horiz-adv-x="1227" />
<glyph unicode="@" horiz-adv-x="2956" />
<glyph unicode="A" horiz-adv-x="2444" d="M94 0q158 27 265 113q109 89 163 172q56 84 67 111l525 1568h1v1v1q1 1 1 3t1 3l13 37q12 45 12 94q0 51 -14 101q-15 40 -37 62q-71 65 -194 70h436l22 -55l764 -1938q22 -37 47.5 -72.5t70 -82.5t92.5 -82.5t116 -65.5t140 -40h-893q86 0 160 38.5t124 105.5l-235 597 h-990l-116 -347q-3 -20 -3 -44q0 -68 28 -132q28 -66 76 -114t114 -76q64 -28 132 -28h5h-893zM767 788h955l-516 1309l-4 -11l-31 -94l-4 -12l-29 -86z" />
<glyph unicode="B" horiz-adv-x="2553" d="M113 -1q115 5 201 68q86 64 124 167q17 48 20 98v1671q-12 141 -108 232q-96 93 -237 99v1l345 -1h128q21 0 32 -1h42q3 0 4 1v-1l364 -1h11q280 0 518.5 -71t377.5 -193q138 -122 138 -266q0 -17 -1 -25v-1l-3 -21q-16 -97 -85 -173q-70 -76 -150 -124 q-222 -133 -527 -173h-1q308 -4 554 -98q247 -94 383 -247q143 -134 143 -293q0 -22 -3 -44q-18 -119 -97 -208q-117 -166 -356 -273t-550 -123h-166h-550h-171h-35h-345zM664 317q7 -44 28 -91q14 -30 33 -57q58 -81 151 -122q100 -8 200 -8l294 17q182 40 327 114 q40 20 80 44q139 86 215 196t76 233q0 130 -85 245.5t-241 203.5q-262 148 -646 174h-7v3v4v4q117 13 228 49q204 67 327 192t123 275q0 138 -100 250q-99 114 -268 186q-55 24 -123 43l-2 1l-2 1q-4 0 -5 1t-4 1t-5 1q-120 14 -239 14q-79 0 -158 -6h-6q-108 -58 -160 -166 l-6 -15q-16 -36 -22 -81l-3 -18v-1688z" />
<glyph unicode="C" horiz-adv-x="2180" d="M39 1168q0 241 83 454q82 210 229 372q144 159 339 251q192 91 414 91q304 0 563 -177q60 -36 94 -95.5t34 -130.5q0 -108 -77 -185t-185 -77q-109 0 -186 77q-76 76 -76 185q0 110 76 186q77 77 186 77q47 0 87 -15q-165 74 -348 74h-5q-185 -1 -355 -81 q-172 -82 -298 -220t-200 -329q-73 -188 -73 -393v-6v-6q0 -205 73 -393q74 -191 200 -329q126 -139 298 -221q170 -81 355 -81h5h3q263 0 483 151q222 152 340 403q-80 -222 -226 -389q-145 -168 -344 -264q-198 -96 -424 -96q-144 0 -282 41.5t-255 117t-215.5 183.5 t-167.5 236.5t-107 279.5t-38 309z" />
<glyph unicode="D" horiz-adv-x="2488" d="M97 1q149 0 255 94q108 95 121 236v1673q-13 140 -121 234q-106 94 -255 94h450h124h4h4h121q138 -1 415 -1q387 -4 701 -230q67 -50 120 -101q350 -349 365 -841v-16q0 -227 -85 -433q-88 -213 -256 -376q-89 -84 -189 -146q-302 -184 -659 -185h-34h-33h-5 q-32 0 -47 -1h-47h24h-213h-160h-18h-79h-9h-93v-1h-401zM695 328q9 -94 62 -168.5t139 -117.5h158q53 1 158 1q57 0 102 4q254 87 436 263q158 152 251 364q92 211 92 458q0 278 -112 515q-113 239 -307 405q-195 168 -445 238q-17 1 -49 1h-142h-141q-88 -42 -141.5 -119 t-60.5 -173v-1671z" />
<glyph unicode="E" horiz-adv-x="2156" d="M109 -2q127 0 219 93t105 234l3 4v1680q-14 139 -105 231q-92 93 -218 93h350h101h31h19h28h1h1095h296h1v-46h-1v-353q0 136 -83 236q-82 100 -208 117h-937q-143 -93 -163 -281v-650h368q9 0 16 -7t7 -16q0 -10 -7 -17t-16 -7h-368v-983v-1q20 -189 164 -281h937 q124 16 207 116t83 237v-399h-296h-2h-769h-387h-23h-61h-387zM1132 1333h5q148 0 255 117.5t107 277.5v6q-1 -108 49 -201q48 -93 134 -147q84 -53 181 -53h4h-4q-97 1 -180 -53q-85 -54 -135 -147.5t-49 -201.5v6q0 159 -107 277q-108 119 -257 119h-3z" />
<glyph unicode="F" horiz-adv-x="2012" d="M108 1q128 0 219 93q92 95 105 235l3 3v1680q-14 141 -105 232q-92 92 -218 92h350h101h31h19h28h1h1094h297h1v-46h-1v-353q0 137 -83 237q-83 99 -208 116h-937q-143 -91 -163 -281v-650h368q9 0 16 -6.5t7 -16.5t-7 -16.5t-16 -6.5h-368v-983v-1q14 -142 104 -235 q92 -93 220 -93h-387h-84h-387zM1131 1336h5q148 0 255 117.5t107 277.5v6v-6q0 -160 107.5 -277.5t255.5 -117.5h5h-5q-148 0 -255.5 -117.5t-107.5 -277.5v-6v6q0 160 -107 277.5t-255 117.5h-5z" />
<glyph unicode="G" horiz-adv-x="2203" d="M5 1168q-1 332 172.5 612t459.5 427q245 128 530 128q120 0 234 -24q86 -18 170 -48q92 -34 168 -74q146 -74 252 -194q15 -14 25 -26q33 -39 50 -93q11 -38 11 -75v-3v-1v-4q-6 -111 -83 -184q-74 -70 -179 -70q-110 0 -186 76t-76 186q0 109 76 185q77 77 186 77 q10 0 30 -2q16 -2 23 -3q-116 90 -252 144q-82 34 -164 56q-117 25 -210 25q-32 0 -60 -3q-114 -11 -137 -20q-273 -80 -466 -300q-19 -23 -31 -38q-120 -149 -186 -332.5t-66 -381.5q0 -218 78 -408t213 -336q138 -146 316 -227t374 -81q21 0 31 1q142 4 272 53 q28 10 66 26q14 8 21 13q39 18 69 48q26 24 40 46q23 37 32 79q0 1 0.5 3.5t1.5 3.5v1q3 18 3 38q0 93 -68 161q-67 67 -168 73l237 135l206 118h1v-1v1l127 73v-1q-2 -1 -17 -10q-27 -19 -47 -42q-57 -67 -63 -168v-266v-165v-367h-2q-10 68 -57.5 114.5t-116.5 55.5 q-7 1 -22 1h-4h-1h-4q-24 -2 -35 -5l-1 -1q-1 0 -2 -1t-2 -1l-2 -2l-12 -6v-1q-8 -4 -11 -6q-1 -1 -5 -3t-5 -3h-1l-1 -1q-8 -4 -11 -6q-1 0 -8 -5q-2 0 -3 -1q-1 0 -2 -1t-5 -3t-5 -3t-4 -2t-4 -2t-3 -1l-2 -1l-2 -1l-6 -3l-1 -1q-1 -1 -5 -2.5t-5 -1.5l-2 -2q-2 0 -3 -1 l-4 -2l-4 -2t-5 -2t-4 -2q-1 0 -2 -1h-1q-8 -4 -11 -5q-2 -1 -4.5 -2.5t-3.5 -1.5t-2 -1q-5 -1 -13 -5q-1 -1 -4 -2t-5 -2h-1q-5 -2 -13 -6l-9 -3h-1q-2 -1 -6.5 -3t-7.5 -3l-9 -3q-10 -4 -15 -5l-9 -3q-10 -4 -15 -5l-9 -3q-2 -1 -8 -2t-8 -2q0 -1 -1 -1q-1 -1 -3.5 -1.5 t-3.5 -0.5q-2 0 -8 -1.5t-9 -2.5q0 -1 -1 -1t-3.5 -0.5t-3.5 -1.5q-2 0 -8 -1.5t-9 -2.5h-2q-1 0 -2.5 -0.5t-2.5 -1.5q-3 -1 -9 -2t-9 -2h-3q-1 -1 -4 -1t-9 -2t-9 -2h-3q-1 -1 -4 -1l-10 -2.5t-9 -1.5h-3q-1 -1 -4 -1q-4 0 -10.5 -1t-9.5 -2h-3q-1 -1 -2 -1q-4 0 -12.5 -1 t-13.5 -2q-69 -9 -141 -9h-7q-154 0 -301 41q-151 42 -278.5 117.5t-235 183.5t-182.5 236.5t-117 279.5q-41 148 -41 303v7zM746 1259q69 0 115 52q48 53 48 126q0 -73 47 -126q48 -52 115 -52q-67 0 -115 -52q-47 -53 -47 -125q0 72 -48 125q-46 52 -115 52z" />
<glyph unicode="H" horiz-adv-x="2371" d="M109 2341h388h62h14h388q-127 0 -218 -91q-90 -92 -105 -229v-1685l1 -2q14 -141 104 -234q91 -93 220 -93h-364h-3q-2 -1 -5 -1h-159v1h-321q121 0 210 84t111 213v1726q-18 134 -108 223q-89 88 -215 88zM638 1333v46h1161v647q-17 138 -107 225q-90 90 -216 90h388h62 h14h388q-126 0 -217 -90q-89 -88 -106 -225v-1691l1 -1q14 -142 104 -234q92 -93 220 -93h-388h-76h-388q122 0 211 84q89 86 110 215v1027h-1161z" />
<glyph unicode="I" horiz-adv-x="999" d="M109 2341h387h63h14h387q-126 0 -217 -91t-106 -229v-1686l1 -1q14 -142 104 -234q92 -93 220 -93h-364q-2 0 -3 -1h-4h-160v1h-320q121 0 210 84q89 85 110 213v1726q-17 134 -108 222q-91 89 -214 89z" />
<glyph unicode="J" horiz-adv-x="1885" d="M88 -10q0 109 77 186t185 77q11 0 31 -2q83 -10 146 -67q9 -8 25 -26q61 -71 61 -168v-4q-5 -110 -80 -184q-76 -74 -183 -74q-57 0 -105 22q95 -117 211.5 -180t242.5 -63q180 0 343 94q165 95 276 289q112 194 138 492v1085v256v60q-10 96 -69 159q-57 64 -137 64 q-41 0 -77 -18l283 162l206 118h1v-155v-806h-1v-766v-6v-5v-3v-2q0 -274 -106 -519q-112 -255 -324 -410q-209 -154 -446 -154q-189 0 -353 101q-163 100 -280 274q-65 74 -65 173zM1663 2113v155l127 73v-1q-116 -64 -127 -227z" />
<glyph unicode="K" horiz-adv-x="2241" d="M101 2q124 0 215 89q92 90 108 226v1705q-16 136 -108 225q-90 90 -215 90h388h62h14h388q-125 0 -217 -90q-89 -88 -106 -225v-673l949 672q146 111 146 191q0 36 -29 66q-35 35 -114 58l399 1h10h12h22h12h370l-35 -5q-35 -5 -101 -21.5t-146 -42.5t-185 -76.5 t-202 -114.5l-95 -67l-630 -447l841 -1320q60 -78 158 -149q97 -69 237 -92h-893q94 0 173 45t128 122l-813 1275l-214 -152v-975q16 -137 106 -226q92 -89 217 -89h-370h-18h-76h-65h-323z" />
<glyph unicode="L" horiz-adv-x="2080" d="M110 0q126 0 218 92q92 93 105 232v1688q-13 140 -105 231q-92 92 -218 92h349h101h32h42h5h324q-129 0 -220 -93q-90 -92 -104 -234v-1686q23 -185 163 -276h938q125 18 208 117q83 100 83 236v-399h-297h-1h-770h-388h-21h-57h-387z" />
<glyph unicode="M" horiz-adv-x="3425" d="M108 6q122 0 210 84q89 85 110 213l1 15v1725q-21 128 -110 213q-88 85 -210 85h320h47h20h13l1236 -2071l1110 1772l147 233v1l40 64h1h1h17h324q-127 0 -219 -92t-105 -231v-1707q19 -131 109 -218q91 -86 213 -86h-368h-116h-44h-324q123 0 212 86q90 86 110 218 q1 4 1.5 11.5t0.5 11.5v1622l-1084 -1729l-123 -196l-26 44l-1146 1921v-1694q23 -131 110 -212q89 -83 210 -83h-320h-47h-1h-320z" />
<glyph unicode="N" horiz-adv-x="2328" d="M95 6q143 0 250 83t133 211l1 15v1729q-4 25 -14 53q-33 89 -106 150q-110 94 -263 94h383v1h12h43v-1h10l13 -18l1393 -1959v1674q-24 132 -131 218t-253 86h384h55h384q-147 0 -254 -86q-108 -86 -130 -218v-1751v-281h-54h-1l-109 152l2 1l-1309 1841v-1702 q26 -128 132 -210t250 -82h-382h-57h-382z" />
<glyph unicode="O" horiz-adv-x="2430" d="M12 1167v6q0 186 58 361q58 178 166.5 321.5t252 251.5t321.5 167q175 58 360 58h6h6q186 0 361 -58q178 -59 321.5 -167t251.5 -251.5t167 -321.5q58 -175 58 -361v-6v-6q0 -185 -58 -360q-59 -178 -167 -321.5t-252 -251.5q-143 -110 -321 -168q-175 -58 -361 -57h-6 h-7q-153 1 -301 41q-151 42 -279 117t-236 183t-183.5 236t-117.5 279q-41 147 -40 301v7zM311 1167v-8q1 -176 43 -341q44 -169 124 -306t186 -240t238 -159q129 -55 267 -55h5h4q174 0 332 87q160 88 276 237t184 355q68 203 68 424v6v8q0 175 -42 341q-44 170 -124 306.5 t-186 239.5q-108 104 -240 160q-130 55 -267 55h-5q-177 0 -335 -87q-156 -85 -276 -238q-117 -149 -185 -354q-67 -200 -67 -431zM1014 1165q68 0 114 52q48 53 48 125q0 -72 48 -125q48 -52 115 -52q-67 0 -115 -52q-48 -53 -48 -126q0 73 -48 126q-46 52 -114 52z" />
<glyph unicode="P" horiz-adv-x="1966" d="M117 1q115 5 201 67q87 64 124 167q10 30 13 45v1778q-29 121 -120 197q-92 77 -218 83l380 -1v-1h86h10v1h18h40h638h5q124 0 240 -49q118 -50 203 -135.5t135 -203t49 -244.5v-98q1 -127 -49 -244.5t-136 -202.5q-84 -86 -202 -136q-115 -49 -240 -49h-5h-628v-684 q24 -127 112 -209q89 -81 208 -81h-324h-46h-18h-96v-1zM661 1021h331q125 0 239.5 53t205.5 144q88 88 136.5 202.5t48.5 243.5q0 173 -86 316q-85 142 -229 226q-143 84 -318 84l-165 3q-132 -83 -163 -247v-1025z" />
<glyph unicode="Q" horiz-adv-x="2661" d="M11 1166q0 240 90 452q93 214 251 371q160 159 371 251q210 91 452 91q243 0 453 -91q212 -92 370 -251q158 -157 251 -371q91 -210 91 -452q0 -217 -78.5 -418.5t-213.5 -353.5t-322.5 -253.5t-398.5 -128.5q59 -74 116 -158q126 -188 232 -275q138 -108 311 -108 q48 0 98 8q136 25 263 91q-103 10 -172 84q-68 74 -68 177q0 108 77 185t185 77q11 0 31 -2q84 -10 146 -66q9 -8 25 -26q53 -65 60 -151q1 -6 1 -17v-4q-2 -46 -14 -80q-14 -41 -39 -74q-33 -42 -76 -68q-22 -13 -39 -19q-227 -127 -410 -151q-35 -4 -69 -4 q-176 0 -323 108q-70 55 -128.5 126t-123.5 167l-21 30q-51 75 -111 144q-45 -4 -103 -4h-7q-154 0 -301 41q-151 42 -279 117t-236 183t-183.5 235.5t-116.5 278.5q-41 147 -41 302v7zM310 1166q0 -306 120.5 -564t321.5 -404q81 41 169 41h5q90 -1 175 -42 q105 -52 178 -132q217 36 386 189q171 153 271 391q101 240 101 521v8q0 176 -43 342q-43 169 -123 305.5t-186.5 240t-238.5 159.5q-131 55 -268 55h-5q-177 0 -335 -87q-156 -85 -276 -238q-117 -149 -185 -354q-67 -200 -67 -431zM789 172q176 -115 384 -115q19 0 55 2 q-58 56 -135 98q-74 37 -151 42q-11 1 -21 1q-67 0 -132 -28zM1013 1163q68 0 114 52q48 53 48 126q0 -73 48 -126q48 -52 115 -52q-67 0 -115 -52q-48 -53 -48 -125q0 72 -48 125q-46 52 -114 52z" />
<glyph unicode="R" horiz-adv-x="2222" d="M116 1q116 5 201 67q88 65 125 167q10 30 13 46v1777q-29 122 -120 198q-93 78 -218 82l380 -1v-1h85h11v1h18h40h638q176 0 318 -85q143 -86 228 -229q86 -143 86 -317v-99q0 -173 -86 -318q-85 -143 -228 -228q-142 -85 -318 -85h-370q236 -16 374 -77 q137 -60 221 -159q83 -96 166 -233q23 -38 75 -116q95 -139 204 -218q106 -77 209 -116q95 -36 163 -47l65 -9h-372q-223 0 -404 131q-179 130 -250 349q0 2 -1.5 6t-2.5 7q-30 104 -79 186.5t-100.5 132.5t-114.5 86t-113.5 52t-104.5 25h-193v-685q22 -125 111 -208 q88 -82 208 -82h-323h-12h-148h-381zM661 1022h330q126 0 240.5 52.5t205.5 143.5q88 88 136 203t48 243q0 175 -85 317q-86 143 -229 225q-144 84 -318 84l-165 3q-132 -82 -163 -246v-1025z" />
<glyph unicode="S" horiz-adv-x="2048" d="M60 674q0 60 24 109q33 70 96.5 111.5t142.5 41.5q108 0 185 -77t77 -185q0 -109 -77 -186q-76 -76 -185 -76q-84 0 -149 46q101 -166 268 -269t359 -136q31 -6 65 -9q40 -2 74 -3q12 0 22 1q82 2 202 58q125 60 234 155q111 97 156 222q17 47 17 96q0 79 -46 163 q-74 135 -323 269l-538 200q-9 3 -44 17q-1 0 -2.5 0.5t-2.5 1.5q-2 0 -5 2t-4 2q-59 26 -98 50q-137 80 -238 183q-137 144 -137 304q0 158 106 286q107 131 283 207q180 77 394 77h4q290 0 510 -141q222 -142 261 -350q28 -53 28 -117q0 -109 -77 -186q-76 -76 -185 -76 q-110 0 -186 76t-76 186q0 109 76 185q77 77 186 77t185 -76q-21 40 -53 81q-94 136 -268 218q-175 82 -405 84q-14 0 -76 -5q-51 -9 -98 -31t-79 -48.5t-47.5 -42t-23.5 -26.5q-97 -121 -139 -245q-22 -64 -22 -128t22 -129q45 -130 214 -259q36 -22 187 -94 q155 -74 397 -155h1q88 -27 167 -66q3 -2 9 -4.5t8 -3.5q14 -8 21 -11q155 -81 262 -178q111 -100 142 -221q10 -36 10 -77q0 -11 -2 -35q-21 -179 -187 -312q-165 -134 -424 -192q-139 -35 -278 -35q-73 0 -147 10q-82 10 -172 37q-138 42 -259 121q-104 68 -183 160 q-81 95 -128 213q0 2 -1 3v2h-1v1v1q-1 1 -1 2v1l-1 1v3q-1 0 -1 1q0 2 -1 3v1q-1 1 -1 3v1l-1 1q0 2 -1 3q0 1 -1 4t-1 5q-1 1 -1 4l-1 1v3q-1 1 -1 2q0 2 -1 3q0 2 -1 3v2q0 1 -0.5 2.5t-1.5 2.5v1q0 4 -1 5v1q-1 1 -1 4q0 1 -1 1q-9 41 -9 42q-1 7 -1 22z" />
<glyph unicode="T" horiz-adv-x="1841" d="M-211 1936v353v46h2322v-46v-353q0 136 -83 236q-82 100 -209 117h-1h-598q-141 -90 -164 -275v-1685l1 -1q13 -140 105 -235q92 -93 220 -93h-372h-1h-159h-321q121 0 210 84t111 213v1726q-25 177 -164 266h-604q-1 0 -2 -1q-127 -17 -208 -116q-83 -100 -83 -236z" />
<glyph unicode="U" horiz-adv-x="2273" d="M39 2336l351 -1h164l381 1q-138 -6 -232 -94q-96 -88 -112 -221v-1225q0 -214 102 -391q103 -178 274 -284q19 -8 57 -23q61 -24 146 -37q36 -6 74 -6q57 0 118 13q53 12 115 37q202 98 325 290t123 425v1193q-15 138 -111 226q-94 89 -234 97l345 -1h22l369 1 q-135 -6 -229 -91q-95 -85 -114 -216v-1188v-10v-35q0 -201 -92 -371q-93 -172 -247 -280q-153 -109 -352 -136q-48 -7 -103 -7q-201 0 -371 92q-192 101 -308 289.5t-116 412.5v1207q-11 140 -107 233q-95 92 -238 100zM1333 62h1h-1zM1338 63q4 1 10 2t10 2q-1 0 -5 -1 t-7.5 -1.5t-7.5 -1.5z" />
<glyph unicode="V" horiz-adv-x="1733" d="M-371 2335h893h-4q-62 0 -112 -27q-52 -28 -78 -73q-24 -45 -34 -99q-3 -20 -4 -39q0 -34 11 -67l707 -1792l34 100l5 17l29 86l531 1582q1 11 1 22q0 81 -47 142q-53 69 -146 109q-91 39 -188 39h893q-160 -26 -257 -89q-100 -66 -148 -130q-51 -67 -62 -96l-554 -1649 v-2q-1 -1 -1 -3t-1 -3l-13 -36l-38 -114l-13 -39l-1 -3l-27 -82l-12 -34l-14 -43l-4 -12h-94l-4 9v1l-18 44l-783 1984q-17 29 -39 59t-62.5 70.5t-87.5 72t-115 58.5t-143 37z" />
<glyph unicode="W" horiz-adv-x="3175" d="M-354 2334h893q-2 0 -4 1q-82 -1 -138 -45q-58 -46 -78 -111q-11 -38 -11 -76q0 -29 6 -58l713 -1807l34 100l5 17l29 86l476 1419l-52 132q-28 47 -64.5 93t-94 101.5t-137.5 96t-169 51.5h192h701h192q-200 -30 -307 -117q-104 -87 -104 -188v-6l705 -1785l33 100l6 17 l29 86l530 1580q2 15 2 29q0 73 -47 135q-56 75 -146 113q-88 38 -184 37q-2 0 -5 -1h893q-158 -26 -254 -87q-98 -64 -149 -129q-49 -64 -63 -96l-554 -1651v-1v-1q0 -1 -1 -1q-1 -1 -1 -3t-1 -3l-12 -36l-38 -113l-13 -39l-1 -3l-28 -83l-11 -34l-15 -43l-4 -11h-38h-56 l-3 9l-1 1l-17 44l-687 1742l-478 -1425v-1l-1 -1q0 -1 -0.5 -3.5t-1.5 -3.5l-12 -36l-38 -113l-13 -39l-1 -3l-28 -83l-12 -34l-14 -43l-4 -11h-38h-56l-4 9v1l-17 44l-778 1971q-15 28 -36 57.5t-62 72t-88 76.5t-118.5 63t-150.5 40z" />
<glyph unicode="X" horiz-adv-x="2366" d="M34 2335h417h238l315 -1l-8 -4q-7 -4 -19 -13t-27 -21.5t-29 -31t-26.5 -41t-19 -52.5t-6.5 -63.5t11 -75.5t34 -88l381 -660l353 612l41 71q41 83 41 152q0 90 -70 156q-37 34 -94 59h335l1 1h40h15h1l434 -1q-23 -4 -69 -11q-64 -10 -173 -52q-104 -40 -222 -128 q-117 -88 -217 -236l-388 -672l18 -31l495 -856q97 -130 202 -201q108 -73 201 -104q92 -31 153 -37l60 -6h-415h-238h-316l7 4q8 4 20.5 13t27.5 22t29.5 32.5t27 43t18.5 54.5q5 27 5 55v10q-1 34 -14 77.5t-38 90.5l-25 45q-6 8 -9 13l3 -4l-331 573l-383 -665 q-21 -44 -31 -84q-8 -32 -7 -59q1 -7 1 -13q2 -32 11 -60.5t24 -49t32.5 -37.5t34.5 -28t31 -18.5t23 -10.5l8 -4h-337h-57h-434q23 4 68 11q64 10 173 52q103 40 221 127q117 87 218 236l376 652l-20 35l-501 868q-97 131 -204 204q-106 73 -202 105q-97 32 -155 38z" />
<glyph unicode="Y" horiz-adv-x="1467" d="M-416 2335h426h122h12h94l316 -1q0 1 -13 -6.5t-31 -22t-38 -36.5t-34 -55.5t-20 -73.5q-1 -12 -1 -25q0 -31 9 -68q12 -54 43 -113l27 -48q1 -1 2.5 -3t3 -4.5t2.5 -3.5l-3 3l343 -594l365 632l-16 -20q82 124 82 221q0 78 -53 140q-40 45 -111 77h339l1 1h36h15h5 l430 -1q-22 -3 -65 -10q-63 -10 -164 -48q-100 -38 -213 -117q-115 -81 -214 -216l-402 -696v-435v-496q17 -136 106 -226q91 -90 217 -90h-388h-76h-388q125 0 215 90q92 90 108 226v573v98v182l-472 817q-172 229 -403 305q-93 31 -154 37z" />
<glyph unicode="Z" horiz-adv-x="2131" d="M146 0l695 1204l18 31l7 12l22 37l381 660q46 100 46 172q0 25 -6 47q-21 85 -68 126h-592q-127 -17 -209 -117q-83 -100 -83 -236v399h189h1108h78l-705 -1222l-20 -35l-5 -8l-24 -41l-369 -639q-46 -100 -46 -173q0 -25 5 -46q23 -85 69 -125h1080q126 17 209 116 q83 100 83 237v-353v-46h-297h-1490h-76z" />
<glyph unicode="[" horiz-adv-x="465" />
<glyph unicode="\" horiz-adv-x="762" />
<glyph unicode="]" horiz-adv-x="465" />
<glyph unicode="^" horiz-adv-x="1056" />
<glyph unicode="_" horiz-adv-x="1232" />
<glyph unicode="`" horiz-adv-x="405" />
<glyph unicode="a" horiz-adv-x="1531" d="M24 667q24 140 109 252q86 114 214 173q104 46 218 49q8 0 17 1q163 0 304 -94q78 -51 136 -128v117q-1 58 -1 160q1 23 1 66q0 145 -32 240.5t-76 143.5q-62 20 -125 20q-39 0 -78 -8q-158 -35 -270 -185q14 2 22 2q55 0 92 -39q39 -37 39 -93q0 -54 -39 -93 q-38 -38 -92 -38q-53 0 -93 38q-38 40 -38 93q0 46 29 83q66 115 178 200q117 78 251 79q38 0 78 -7q41 -5 83 -21q28 -8 65 -28q1 0 2 -1q0 -1 2 -1q1 0 2 -1q0 -1 2 -1t2 -1q108 -58 160 -160q42 -81 42 -172v-999q16 -136 107 -225q89 -88 215 -88h-369q-12 0 -18 1 q-56 8 -95 45q-46 46 -46 113v688q-76 128 -210 198q-113 56 -232 56q-44 0 -89 -8q-78 -71 -127 -206q-47 -135 -47 -299q0 -193 63 -342q64 -147 165 -201q19 -1 37 -1q123 0 236 58q11 5 20.5 -1.5t9.5 -16t-10 -16.5q-41 -21 -78 -35q-91 -30 -181 -30q-100 0 -200 37 q-100 38 -179 111q-107 101 -153 235q-30 92 -30 187q0 46 7 93z" />
<glyph unicode="b" horiz-adv-x="1994" d="M24 0q120 0 209 83q88 82 111 211v1017v5v218h-1v256q1 1 1 4v2v47v3q0 3 -1 4q-11 96 -69 159q-57 63 -137 63q-41 0 -77 -18l283 162l1 1l206 118v-595v-95v-73q227 150 487 150q77 0 158 -13q355 -72 560 -369q144 -225 144 -476q0 -98 -22 -199q-88 -349 -394 -542 q-173 -103 -369 -119q-39 -3 -78 -3q-157 0 -306 55q-10 6 -12 17t4.5 18.5t18.5 3.5q50 -19 104 -33q98 -22 187 -22h8q234 64 388 292q153 227 153 518q0 217 -79 393q-79 178 -214 293q-136 117 -305 145q-239 -18 -433 -159v-1364v-4q-3 -65 -47 -109q-37 -37 -90 -45 h-2h-40h-27h-320z" />
<glyph unicode="c" horiz-adv-x="1609" d="M-24 856q0 236 105 429q107 194 283 309q178 116 393 116q225 0 413 -130q94 -58 94 -164q0 -80 -57 -136q-56 -56 -135 -56t-137 56q-56 56 -56 136q0 79 56 135q58 56 137 56q34 0 63 -10q-120 54 -255 54q-138 0 -253 -61t-191 -165t-118 -242.5t-42 -294.5 q0 -209 71.5 -376.5t210 -267t322.5 -99.5q197 0 358 110q159 110 248 295q-84 -244 -284 -396q-198 -152 -442 -152h-3q-217 0 -393 115t-283 309q-105 194 -105 430z" />
<glyph unicode="d" horiz-adv-x="1877" d="M9 751q-6 56 -6 110q0 301 193 546q236 278 598 314q31 2 62 2q268 0 492 -149v216q0 6 1 9v41q-1 3 -1 10q-10 96 -69 159t-137 63q-41 0 -77 -18l283 162l1 1l103 59l102 58v1v-122h1v-857q2 -26 3 -40v-5v-1017q11 -68 41 -121q45 -78 117 -123t159 -45h-51 q28 -5 54 -5h-348h-40h-1q-53 7 -91 45q-14 14 -25 33q-22 36 -24 80v1v4v1362q-193 139 -430 157q-170 -30 -306 -146q-136 -118 -214 -293q-79 -176 -79 -389q0 -200 70 -368q72 -170 193 -285.5t276 -159.5h5q151 0 296 54q12 4 19.5 -3.5t5 -18.5t-13.5 -17 q-53 -20 -108 -33q-98 -23 -197 -23q-88 0 -176 18q-186 37 -341 152q-288 223 -340 581z" />
<glyph unicode="e" horiz-adv-x="1559" d="M22 1013q38 235 181 423q133 170 333 245q113 39 227 39q95 0 191 -27q210 -66 347 -231q135 -162 182 -376l1 -3q0 -1 1 -4t1 -5l10 -49h-23h-2h-232h-350h-403q-12 0 -17 10t0 20t17 10h162h500h31q-37 239 -141 396q-103 156 -248 182q-3 1 -10 1q-6 1 -17 1 q-3 1 -10 1q-121 0 -222 -105q-100 -106 -158 -280q-60 -177 -61 -391v-2v-3q0 -25 1 -38v-4v-2q1 -8 1 -24q0 -8 1 -13v-4q0 -8 1 -12v-1q0 -7 1 -10v-2v-1q1 -5 1 -14v-1q0 -1 1 -2q0 -9 1 -14q2 -24 6 -48q1 -2 1.5 -5.5t0.5 -5.5v-5q0 -2 1 -6t1 -6t1 -3q0 -2 0.5 -5.5 t1.5 -5.5v-3q1 -2 1 -7q4 -13 5 -23q1 -3 2 -8t1 -8q1 -1 1 -4q1 -2 1 -5t1 -4q1 -2 2 -6.5t2 -7.5v-1l3 -12q1 -1 1 -4q1 -2 2 -5.5t1 -4.5q1 -1 1.5 -3.5t0.5 -3.5q1 -1 1.5 -3.5t0.5 -3.5q0 -2 2 -6.5t2 -7.5q6 -20 9 -29q1 -1 2 -3.5t1 -4.5q0 -1 1 -5t2 -5l6 -15v-1 q1 -2 2.5 -6t1.5 -5t0.5 -2.5t1.5 -2.5q5 -12 5 -13q10 -25 19 -43q4 -8 7 -12v-2q4 -5 7 -13q4 -8 7 -13q4 -8 7 -13q3 -4 7 -12l12 -18l3 -6q2 -2 4.5 -6t3.5 -6t4 -5q2 -3 6.5 -10t7.5 -10q4 -4 5 -6l2 -2q1 -1 3 -4t3 -4q2 -3 6 -7q1 -1 4 -4.5t5 -5.5l8 -8q1 -2 5 -6 l10 -10q2 -1 5 -3.5t4 -4.5l5 -5q17 -18 71 -52q55 -33 146 -46q14 -2 20 -2q10 -1 31 -1q74 0 164 31q89 30 193 103q157 137 230 333q7 17 25.5 12t13.5 -23q-21 -56 -48 -108q-110 -211 -312 -329q-158 -87 -333 -87q-47 0 -95 6q-221 38 -377 188q-156 152 -225 357 q-50 153 -50 308q0 76 12 152z" />
<glyph unicode="f" horiz-adv-x="1403" d="M-46 1350q0 20 19 20h1h1q30 2 63 2q25 0 51 -1q19 -1 56 -1h327v571q0 92 41 172q17 31 39 60q49 63 121 101h2q0 1 1 1q1 1 2 1q77 41 152 51q40 8 81 8q46 0 92 -10q110 -25 194 -100q85 -75 141 -170q29 -35 29 -82q0 -53 -38 -93q-38 -38 -93 -38q-53 0 -93 38 q-38 40 -38 93q0 54 38 92q39 39 93 39q9 0 23 -2q-54 73 -125 123q-103 69 -222 69q-41 0 -84 -8q-22 -4 -42 -9q-38 -39 -73 -133q-34 -93 -35 -251v-15v-52q1 -37 1 -76.5t-1 -82.5v-297h218h333h138q19 0 19 -20t-19 -20h-2q-29 -2 -57 -2l-57 2h-56h-349h-168v-541v-5 v-469q0 -8 1 -11q19 -131 109 -218q91 -86 212 -86h-367h-1h-1h-159h-323q123 0 212 86q89 85 109 218q0 1 1 4.5t1 5.5v1016h-28h-333h-138q-19 0 -19 20z" />
<glyph unicode="g" horiz-adv-x="2021" d="M-85 -635q0 81 78 120l3 3q35 34 77 56q135 75 310 75q49 0 101 -6q226 -25 425 -145q5 -3 35 -22q100 -67 205 -103q64 -19 131 -19q43 0 87 8q114 21 205 86.5t142 165.5q48 100 48 212v9q-2 118 -53 219q-57 112 -165 175q-64 34 -138 34q-58 0 -121 -21 q-124 -42 -286 -182q-80 -70 -167 -125q-111 -72 -239 -82h-12q-106 0 -201 51q-211 121 -249 364q-5 37 -5 73q0 85 25 169q35 121 112 221l3 3q-143 165 -143 376q0 171 95 313q96 142 256 226t356 84q154 0 288 -54q87 109 209 163q90 35 182 35q84 0 170 -30 q58 -19 113 -49q92 -38 92 -125q0 -54 -39 -93q-38 -38 -92 -38q-53 0 -93 38q-38 40 -38 93q0 83 83 122q-96 40 -200 42q-198 -1 -349 -174q173 -80 277 -227q104 -146 104 -326q0 -171 -95 -314q-94 -140 -256 -225q-160 -84 -356 -84q-159 0 -298 57.5t-239 160.5 q-35 -48 -60 -97q-61 -117 -67 -252q40 -120 158 -178q78 -36 167 -36q76 0 160 26q125 42 296 152q3 3 11 7q160 106 283 151q96 36 184 36q74 0 143 -26q122 -51 198 -160q122 -171 122 -376q0 -34 -3 -69q-22 -164 -148 -310q-23 -41 -51 -74q-72 -84 -173 -132t-213 -52 h-22q-104 0 -200 42q-86 40 -154 85q-56 34 -85 51q-199 107 -426 115q-15 1 -29 1q-186 0 -316 -84q48 -9 78.5 -45.5t30.5 -84.5q0 -55 -39 -92q-38 -39 -92 -39q-56 0 -93 39q-38 38 -38 92zM422 1080v-7q0 -116 32 -224q32 -111 87 -191t131 -127q74 -46 154 -46h3h5 q107 0 200 79q94 80 149 218q54 136 54 292v6v6q0 155 -54 292q-55 138 -150 218q-93 79 -199 79h-5h-5q-106 0 -198 -79q-95 -80 -150 -218q-54 -137 -54 -292v-6z" />
<glyph unicode="h" horiz-adv-x="1826" d="M10 0q123 0 212 86q90 86 110 218q0 7 1 11v1219v256v1v4v49v2v4q-11 96 -69 159t-138 63q-41 0 -77 -18l284 162v1l103 59l103 58v1v-595v-285q34 53 83 99q106 97 245 130q64 16 128 16q74 0 149 -21q247 -79 352 -316q40 -101 40 -256v-625v-184q22 -128 111 -214 q89 -84 210 -84h-357h-11h-116h-16h-352q123 0 211 84q91 86 110 216v857q0 176 -104 313t-269 188q-123 -11 -225.5 -74.5t-167.5 -169.5l-21 -39v-1060q1 -4 1 -11q19 -131 109 -218q91 -86 213 -86h-323h-1h-44h-1h-1h-159h-323z" />
<glyph unicode="i" horiz-adv-x="925" d="M81 0q123 0 212 86q90 86 110 218q1 3 1 11v588v-1v256v2v3v50v2v3q-10 96 -69 159q-58 64 -138 64q-39 0 -77 -18l284 162v1l103 58l103 59v-594v-794q0 -2 0.5 -5.5t1.5 -5.5q20 -133 108 -218q91 -86 213 -86h-346h-24h-159h-323zM376 1953q0 54 38 92q39 39 93 39 q55 0 93 -39q38 -38 38 -92q0 -55 -38 -93t-93 -38q-53 0 -93 38q-38 38 -38 93z" />
<glyph unicode="j" horiz-adv-x="741" d="M-370 -350q0 56 39 93q38 38 92 38q53 0 93 -38q38 -38 38 -93q0 -54 -38 -92q-39 -39 -93 -39q-21 0 -40 6q42 -71 106 -120q37 0 72.5 4.5t83 19.5t88 39.5t82.5 68.5t72.5 102t51.5 145t25 192v927v-1v256v2v3v50v2v3q-10 96 -69 159q-58 64 -137 64q-41 0 -77 -18 l283 162h1l103 59l102 59h1v-594v-1133q0 -21 1 -31q1 -33 1 -62q0 -44 -2 -78q-1 -13 -3 -37q-1 -30 -10 -70q-51 -207 -194 -323q-49 -40 -99 -61l-15 -6q-1 0 -5 -1.5t-6 -2.5q-40 -15 -89 -20q-26 -2 -38 -2q-45 0 -94 11q-30 10 -45 16q-67 29 -128 80q-4 3 -11.5 9.5 t-10.5 10.5q-95 92 -129 217q-2 2 0 4q-2 14 -2 20z" />
<glyph unicode="k" horiz-adv-x="1824" d="M81 0q123 0 212 86q90 86 110 218q0 7 1 11v588v255v2v3v50v2v3q-10 96 -69 159q-58 64 -138 64q-39 0 -77 -18l284 162l103 59l103 59v-594v-314q9 4 56 29q273 145 503 352q240 220 339 468q-44 -28 -100 -28q-79 0 -135 56t-56 135q0 80 56 136t135 56q80 0 136 -56 t56 -136q0 -55 -27 -98q-51 -168 -149 -304q-164 -230 -401 -401l386 -607h1q0 -1 2 -4t3 -5l83 -131q59 -81 161 -157q101 -75 246 -99h-893q92 0 171 44.5t128 120.5l-458 721q-111 -73 -243 -137v-435q1 -4 1 -11q19 -131 109 -218q91 -86 213 -86h-346h-24h-159h-323z " />
<glyph unicode="l" horiz-adv-x="869" d="M12 0q122 0 211 86q90 86 110 218q1 3 1 11v1219v256v1v4v49v2v4q-10 96 -69 159t-138 63q-40 0 -76 -18l283 162v1h1l103 59l102 58v1v-42v-553v-1425q0 -2 0.5 -5.5t1.5 -5.5q20 -133 108 -218q91 -86 213 -86h-349h-20h-160h-322z" />
<glyph unicode="m" horiz-adv-x="2919" d="M72 1q123 0 212 86q89 85 109 218q1 2 1.5 5.5t0.5 5.5v587h-1v256v1q1 1 1 4v49v2q-1 1 -1 4q-10 96 -69 159q-57 63 -137 63q-40 0 -77 -17l283 162h1l103 59l102 58l1 1v-247q35 53 83 98q107 98 244 131q64 15 127 15l151 -21q248 -78 351 -315q10 -26 14 -39 q42 128 143 224q106 97 245 130q64 16 128 16q74 0 149 -21q247 -78 352 -316q40 -101 40 -255v-622v-183q22 -128 111 -214q89 -84 210 -84h-357h-11h-116h-16h-352q123 0 211 85q91 86 110 215v857q0 175 -100 308q-101 135 -259 189q-127 -8 -234 -72t-173 -173 q-45 -75 -62 -167q8 -70 8 -135v-625v-184q21 -128 110 -214q88 -84 211 -84h-358h-10h-116h-17h-351q123 0 211 85q89 86 110 215v857q0 177 -104 314q-102 135 -269 188q-123 -11 -225.5 -74.5t-167.5 -169.5q-3 -7 -10 -20.5t-11 -19.5v-29v-238v-793q0 -8 1 -11 q19 -131 109 -218q91 -86 213 -86h-323h-1h-1h-43h-1h-1h-159h-323z" />
<glyph unicode="n" horiz-adv-x="1892" d="M78 1q123 0 212 86q90 86 110 218q0 7 1 11v587v255v2v4v49v2v3q-10 97 -69 160q-58 63 -138 63q-41 0 -77 -18l284 162v1l103 59l103 58v-247q34 53 83 99q107 98 245 131q63 15 127 15q75 0 150 -21q247 -78 352 -316q40 -101 40 -256v-625v-184q22 -128 111 -214 q89 -84 210 -84h-357h-11h-116h-16h-352q123 0 211 85q91 86 110 215v857q0 176 -104 313t-269 188q-123 -11 -225.5 -74.5t-167.5 -169.5l-21 -39v-30v-237v-793q1 -4 1 -11q19 -131 109 -218q91 -86 213 -86h-323h-1h-1h-43h-1h-1h-159h-323z" />
<glyph unicode="o" horiz-adv-x="1879" d="M66 854q0 235 115 428q116 194 308 309q193 115 429 115q235 0 428 -115q194 -115 309 -309q115 -193 115 -428q0 -237 -115 -430q-115 -192 -309 -308q-193 -115 -428 -115q-236 0 -429 115t-308 308t-115 430zM368 854q0 -224 74 -410q73 -183 199 -294 q124 -109 278 -109q153 0 277 109q126 111 199 294q74 186 74 410q0 222 -74 408q-73 183 -199 294q-125 110 -277 110q-153 0 -278 -110q-126 -111 -199 -294q-74 -186 -74 -408z" />
<glyph unicode="p" horiz-adv-x="1965" d="M-39 -723q123 0 212 86q90 86 110 218q0 7 1 11v1312h-1v256l1 1v4v49v2q0 3 -1 4q-11 97 -68 159q-59 63 -138 63q-40 0 -77 -17l283 162h1l103 59l103 59v-152q238 171 517 171q77 0 158 -13q355 -72 560 -369q144 -226 144 -476q0 -98 -22 -199q-89 -350 -395 -542 q-171 -102 -368 -120q-39 -3 -77 -3q-158 0 -307 56q-10 5 -12 16t5 19t18 4q50 -19 104 -33q98 -22 187 -22h8q234 62 388 292q153 226 153 515v7q0 213 -79 389q-79 178 -214 293q-136 117 -306 145q-259 -19 -462 -182v-391v-1518q1 -4 1 -11q19 -131 109 -218 q91 -86 213 -86h-368h-2h-114h-45h-323z" />
<glyph unicode="q" horiz-adv-x="1904" d="M74 752q-6 56 -6 110q0 302 193 547q236 278 598 314q32 2 64 2q270 0 495 -153l28 16v1h1l103 58l102 58v-416v-173v-1524q1 -2 1.5 -5.5t0.5 -5.5q20 -133 109 -218q91 -86 212 -86h-323h-159h-14h-355q122 0 211 86q90 86 110 218q1 3 1 11v1320v164v319v14 q-7 94 -66 142q-182 115 -396 132q-169 -28 -305 -145q-137 -117 -215 -293q-79 -176 -79 -389v-5q0 -190 69 -361q71 -172 194 -289.5t276 -157.5h5q152 0 296 54q12 4 19.5 -4t5 -19t-13.5 -16q-52 -20 -108 -33q-98 -23 -197 -23q-88 0 -176 18q-186 37 -341 152 q-288 223 -340 580z" />
<glyph unicode="r" horiz-adv-x="1384" d="M73 -1q122 0 211 86q90 86 110 217q1 4 1 11v589v-1v256v2v3v50v1v4q-11 96 -69 159q-58 64 -137 64q-41 0 -77 -18l283 162h1l47 28l56 31l102 59v-293q158 224 430 280q64 11 127 11q43 0 86 -5q6 0 9 -1h1q57 -10 89 -59q20 -32 20 -70q0 -55 -39 -94q-38 -38 -92 -38 q-53 0 -93 38q-38 40 -38 94q0 56 41 95q-96 -1 -194 -34q-235 -84 -347 -297v-496v-77v-443q1 -2 1.5 -5.5t0.5 -5.5q20 -132 109 -217q91 -86 212 -86h-336h-33h-160h-322z" />
<glyph unicode="s" horiz-adv-x="1451" d="M75 494v7q1 34 16 71v1q4 10 10 20l2 4v-1q40 64 112 64q55 0 92 -39q39 -37 39 -92t-39 -93q-38 -38 -92 -38q-51 0 -89 35q16 -47 42 -95q121 -196 367 -274q100 -20 195 -23q32 0 69 10q89 28 170 107q78 78 107 186q9 35 9 70q0 74 -41 151q-61 114 -250 215 l-290 108q-15 5 -43 17q-37 16 -71 37q-98 57 -174 133q-100 105 -100 222q0 119 95 220q116 132 290 167q87 18 174 18q50 0 101 -6q118 -12 229 -62q150 -73 223 -226q27 -60 37 -116q3 -15 3 -31q0 -54 -39 -93q-38 -38 -92 -38q-53 0 -93 38q-38 40 -38 93q0 55 38 93 q40 38 93 38q33 0 61 -15q-5 13 -17 37q-82 145 -239 203q-90 33 -179 40h-9q-38 0 -72 -7q-38 -8 -63 -20.5t-43.5 -25t-26.5 -21.5l-8 -9q-96 -110 -121 -232q-5 -24 -5 -48q0 -100 82 -208q4 -7 64 -61q62 -54 165 -113q85 -36 206 -76h1q70 -22 134 -55q1 0 2.5 -0.5 t2.5 -1.5q3 -2 11 -6q130 -67 212 -151q86 -86 90 -193v-3q0 -116 -90 -210t-240 -150q-138 -66 -294 -66q-17 0 -34 1q-99 3 -191 22q-7 1 -16 5q-102 31 -192 89q-50 33 -90 72q-28 26 -45 47q-24 28 -49 68q-28 45 -45 89q-5 11 -9 27q-12 44 -14 56v1v1q-1 5 -1 16z" />
<glyph unicode="t" horiz-adv-x="1350" d="M-201 1488q0 20 19 20h1h2q30 2 63 2q25 0 51 -1q19 -1 56 -1h348h74v18h-1v255v2q1 1 1 4v49v2q-1 1 -1 3q-10 97 -69 160q-57 63 -137 63q-41 0 -77 -18l283 162l1 1l103 59l102 58l1 1v-456v-3v-136l-1 -224h124h333h138q19 0 19 -20t-19 -20h-1h-2q-28 -2 -56 -2 t-57 2h-57h-348h-74v-598v-186q1 -1 1 -4q5 -104 26 -190t51.5 -143.5t72.5 -101.5t83 -68t88 -39t83 -19.5t72 -4.5h4q125 101 165 248q5 15 19 14.5t19 -12.5q2 -8 1 -12q-10 -32 -17 -47q-1 -3 -4.5 -11.5t-5.5 -13.5h-1q-24 -54 -64 -109h-1q-25 -33 -64 -67h-1v-1 q-1 0 -3 -1.5t-4 -3.5l-1 -1q-24 -18 -36 -26h-1q-57 -36 -139 -60l-10 -2.5t-9 -1.5h-1q-35 -7 -77 -7q-24 0 -46 3q-42 5 -73 14q-21 6 -53 19q-37 16 -75 41q-167 117 -200 333q-1 6 -2 19t-2 20v1v8v57q-2 34 -2 77q0 29 1 62q0 17 1 26v2v786h-124h-332h-139 q-19 0 -19 20z" />
<glyph unicode="u" horiz-adv-x="1787" d="M-51 1422l285 164h1l19 11l85 48l36 21l28 16l1 1l5 3l6 3l27 15v1v-19l2 -1135q0 -177 104 -314q104 -135 270 -188q4 1 11 1q143 16 255 102q112 87 165 221q7 20 11 35v490v258v60q-10 97 -69 160q-58 64 -139 64q-41 0 -77 -18l285 164h1l103 59l104 59v1v-84 q0 -121 -1 -195q0 -142 -1 -203v-114v-795q17 -135 107 -224q92 -89 216 -89h-370q-12 0 -18 1q-57 6 -94 40q-47 41 -47 99v161q-26 -48 -50 -80q-90 -115 -221 -171q-101 -43 -211 -43q-32 0 -65 4q-245 34 -387 237q-67 98 -85 217q-7 59 -7 126v445v182q-12 97 -70 158 q-58 63 -138 63q-41 0 -77 -18z" />
<glyph unicode="v" horiz-adv-x="1647" d="M-215 1705h893h-3q-119 1 -181 -85q-48 -66 -47 -144q0 -23 4 -48l321 -796l3 -7l154 -380l31 95l6 17l13 39l327 1008q1 9 1 19q0 75 -51 138q-57 71 -146 108q-87 36 -179 36h-5h893q-148 -22 -245 -83q-94 -57 -148 -122q-52 -63 -69 -99l-455 -1400h-51h-51l-4 10v1 l-18 44l-189 480l-340 841q-15 33 -65 99q-49 68 -149 137q-95 66 -250 92z" />
<glyph unicode="w" horiz-adv-x="2673" d="M-266 1705h893q-82 0 -139 -42t-78 -104q-14 -41 -14 -84q0 -23 4 -47l321 -795l3 -7l154 -380l31 95l6 17l13 39l329 1012q-18 30 -40 59t-62.5 69.5t-87 72t-114.5 58.5t-143 37h893q-81 0 -138 -41.5t-79 -103.5q-14 -41 -14 -86q0 -23 4 -46l321 -795h1l2 -7 l154 -380l31 95l6 17l13 38l327 1008q1 10 1 19q0 76 -51 139q-57 72 -146 108q-87 36 -179 35h-5h893q-85 -12 -159.5 -41.5t-122.5 -63t-88.5 -76t-59 -69.5t-32.5 -54l-455 -1400h-9h-42h-51l-4 11v1l-18 44l-189 479l-326 809l-437 -1344h-9h-93l-4 11v1l-18 44 l-189 479l-340 842q-15 33 -65 99q-50 67 -149 136q-98 68 -250 92z" />
<glyph unicode="x" horiz-adv-x="1991" d="M-14 1q23 4 68 11q65 10 172 52q103 40 221 127q119 88 218 235l262 454l-271 470q-97 131 -204 205q-106 73 -202 105q-97 32 -155 38l-60 6h426h122h422l-2 -1q-94 -52 -123 -146q-11 -35 -11 -73q0 -78 46 -170l39 -69h1l91 -159l110 189l-7 -9q82 123 82 220 q0 77 -52 139q-41 48 -113 79h376h1h449q-22 -4 -66 -11q-69 -11 -169 -50q-99 -38 -217 -122q-116 -83 -216 -225l-149 -259l418 -726l-25 44q169 -229 405 -310q97 -32 156 -38l61 -6h-419h-238h-313l7 4q7 4 19.5 12.5t27 21t28.5 30.5t26.5 40t19.5 51q8 31 8 64 q0 31 -10 70q-10 41 -30 84l-261 453l-226 -393l1 2l-2 -2q0 -1 -1 -2l-36 -63q-43 -84 -43 -154q0 -89 70 -156q37 -35 96 -61l-378 -1h-450z" />
<glyph unicode="y" horiz-adv-x="1738" d="M-354 -394q0 80 56 136t135 56q80 0 136 -56t56 -136q0 -75 -48 -127q-50 -53 -122 -63q188 -106 361 -106h13q187 11 332 126q138 110 231 258q72 114 125 231l-33 81v1l-17 44l-190 480l-340 842q-13 31 -64 98q-49 68 -149 137q-95 66 -251 92h894q-82 0 -139 -42.5 t-78 -104.5q-14 -42 -14 -87q0 -21 3 -43l322 -796l3 -7l153 -379l32 94l5 17l13 39l328 1008q1 8 1 17q0 77 -52 140q-56 71 -145 108q-87 36 -180 36h-5h893q-85 -12 -159.5 -41.5t-122.5 -63t-88.5 -75.5t-59 -70t-32.5 -54l-432 -1331l-1 -2l-3 -8l-1 -5l-19 -53 q0 -1 -1 -2q0 -1 -0.5 -2.5t-1.5 -2.5q-18 -48 -36 -89q-66 -146 -154 -272q-103 -152 -257 -258q-153 -101 -334 -101q-15 0 -30 1q-211 17 -423 162q-51 24 -80.5 70t-29.5 103z" />
<glyph unicode="z" horiz-adv-x="1556" d="M127 1l717 1244v-1v1l40 69q46 100 46 171q0 25 -6 47q-21 85 -68 126h-198q-125 -17 -208 -116q-83 -100 -83 -237v353v46h296h144h409h-1h131l-764 -1326q-40 -92 -40 -161q0 -26 6 -49q23 -81 68 -121h574q126 17 209 116q83 100 83 237v-353v-46h-297h-529h-291h-238 z" />
<glyph unicode="{" horiz-adv-x="574" />
<glyph unicode="|" horiz-adv-x="139" />
<glyph unicode="}" horiz-adv-x="574" />
<glyph unicode="~" horiz-adv-x="1582" />
<glyph unicode="&#xa1;" horiz-adv-x="253" />
<glyph unicode="&#xa2;" horiz-adv-x="1517" />
<glyph unicode="&#xa3;" horiz-adv-x="1898" />
<glyph unicode="&#xa4;" horiz-adv-x="1110" />
<glyph unicode="&#xa5;" horiz-adv-x="2174" />
<glyph unicode="&#xa6;" horiz-adv-x="139" />
<glyph unicode="&#xa7;" horiz-adv-x="1325" />
<glyph unicode="&#xa8;" horiz-adv-x="855" />
<glyph unicode="&#xa9;" horiz-adv-x="2521" />
<glyph unicode="&#xad;" horiz-adv-x="1161" />
<glyph unicode="&#xae;" horiz-adv-x="2405" />
<glyph unicode="&#xaf;" horiz-adv-x="755" />
<glyph unicode="&#xb0;" horiz-adv-x="255" />
<glyph unicode="&#xb1;" horiz-adv-x="1192" />
<glyph unicode="&#xb4;" horiz-adv-x="404" />
<glyph unicode="&#xb8;" horiz-adv-x="401" />
<glyph unicode="&#xbf;" horiz-adv-x="1340" />
<glyph unicode="&#xc0;" horiz-adv-x="2184" d="M-153 4q156 25 264 112q107 87 164 173q57 85 66 111l526 1567v1v2l3 6l12 36q13 45 13 95q0 51 -15 101q-14 41 -37 61q-69 66 -194 71h436l22 -55l765 -1938q21 -36 47 -72t70 -82.5t92.5 -83t116 -66t139.5 -39.5h-893q87 0 161.5 38t123.5 105l-236 598h-989 l-117 -348q-2 -26 -2 -38q-1 -71 27.5 -137t76.5 -114t114 -76.5t137 -27.5h-893zM519 791h956l-517 1309l-3 -11l-32 -93l-4 -12l-29 -86zM707 2855l81 93l308 -308l-41 -47z" />
<glyph unicode="&#xc1;" d="M-153 6q158 27 265 113q106 85 164 172q57 85 66 111l526 1568v2l3 6l12 37q13 43 13 94q0 53 -15 101q-14 41 -37 61q-69 66 -194 71h436l4 -10l18 -45l765 -1938q21 -36 47 -72t70 -82.5t92.5 -83t116 -66t139.5 -39.5h-893q87 0 161.5 38t123.5 106l-236 597h-989 l-117 -347q-2 -26 -2 -39q-1 -71 27.5 -137t76.5 -114t114 -76.5t137 -27.5h-894zM520 793h956l-517 1310l-4 -12l-31 -93l-4 -12l-29 -86zM875 2640l308 308l81 -93l-348 -262z" />
<glyph unicode="&#xc2;" d="M-153 6q157 25 265 112q108 88 163 173q57 85 66 111l526 1567v1q1 1 1 2t1 3t1 3l12 36q13 45 13 95q0 52 -15 100q-13 39 -36 62q-71 66 -195 71h437l4 -10l18 -45l-1 -1l765 -1937q22 -37 47.5 -72t70 -82.5t92.5 -83.5t116 -66t140 -39h-894q87 0 161.5 38t123.5 105 l-236 598h-989l-117 -348q-2 -26 -2 -39q-1 -145 104.5 -250.5t250.5 -103.5h-893zM519 793h956l-516 1309l-4 -11l-31 -94l-4 -11l-29 -87zM617 2591l313 312l312 -312h-169l-143 142l-143 -142h-170z" />
<glyph unicode="&#xc3;" d="M-153 5q158 27 265 113t163 172q56 84 67 111l526 1568v2q0 1 1 3t1 3l13 37q12 45 12 94q0 50 -14 101q-14 41 -37 61q-69 66 -194 71h436l4 -10l18 -45l764 -1938q22 -37 48 -72.5t70 -82t92.5 -82.5t116 -66t139.5 -40h-893q86 0 160 38t125 105l-236 598h-990 l-116 -348q-2 -26 -2 -38q-2 -145 103.5 -250.5t250.5 -104.5h-893zM520 792h956l-517 1309l-4 -11l-31 -93l-4 -12l-29 -86zM648 2735q7 4 20 10.5t45 17t65.5 14t78.5 -3.5t87 -29q79 -42 151 -34q72 7 119 41l67 -100q-95 -62 -205 -62q-98 0 -190 50q-81 40 -176 -7h1z " />
<glyph unicode="&#xc4;" d="M-153 5q158 27 265 113t163 172q56 84 67 111l525 1568q1 1 1 2t1 3t1 3l13 37q12 45 12 94q0 50 -14 101q-16 43 -37 61q-71 66 -194 71h436l4 -10l18 -45l764 -1938q22 -37 47.5 -72.5t70 -82.5t92.5 -82.5t116 -65.5t140 -40h-893q86 0 160.5 38t123.5 105l-235 598 h-990l-116 -348q-3 -20 -3 -38q-1 -145 104.5 -250.5t250.5 -104.5h-893zM520 792h955l-516 1309l-4 -11l-31 -93l-4 -12l-29 -86zM607 2709q0 49 34 83q35 35 84 35t84 -35t35 -83q0 -49 -35 -84t-84 -35t-84 35q-34 34 -34 84zM1064 2709q0 48 35 83t84 35t84 -35t35 -83 q0 -49 -35 -84t-84 -35t-84 35t-35 84z" />
<glyph unicode="&#xc5;" d="M-153 5q158 27 265 113t163 172q57 86 66 111l526 1568q1 1 1 2t1 3t1 3l12 37q13 43 13 94q0 52 -15 101q-13 38 -36 61q-71 66 -195 71h437l21 -55l765 -1938q22 -37 47.5 -72.5t69.5 -82t92.5 -82.5t116.5 -66t140 -40h-894q87 0 161.5 38t123.5 105l-236 598h-989 l-117 -348q-2 -26 -2 -38q-1 -145 104.5 -250.5t250.5 -104.5h-893zM519 792h956l-516 1309l-4 -11l-31 -93l-4 -12l-29 -86zM839 2708v4v3q3 43 29.5 74t67.5 39q79 10 124 -55q20 -33 16.5 -70.5t-27.5 -67.5q-24 -28 -59.5 -37.5t-71.5 2.5q-71 30 -79 108zM879 2712 q2 -34 24 -56.5t55 -22.5q32 0 55 22.5t24 56.5q-1 33 -24 55.5t-55 22.5q-33 0 -55 -22.5t-24 -55.5z" />
<glyph unicode="&#xc6;" horiz-adv-x="2812" d="M-153 -5q157 27 264 113q106 85 164 172q57 86 66 111l526 1568q0 1 1 2q0 1 1 3t1 3l12 37q13 43 13 94q0 52 -15 101q-15 42 -36 61q-71 66 -195 71h1h166q-22 2 -32 2h387h64h31h1h1h17h1123h297h1v-46h-1v-353q0 136 -83 236q-82 100 -208 117h-937 q-143 -93 -163 -281v-650h368q9 0 16 -7t7 -16q0 -10 -7 -17t-16 -7h-368v-527v-46v-410v-1q20 -189 164 -281h937q124 16 207 116t83 237v-399h-297h-1h-769h-387h-23h-121v738h-603l-117 -348q-2 -26 -2 -38q-1 -145 104.5 -250.5t250.5 -104.5h-893zM519 792h588v1227 q0 9 -1 14q-33 66 -84 66q-5 0 -8 -1h-5q-13 -3 -26 -11q-7 -5 -13 -10q-23 -20 -38 -55l-7 -20l-3 -9v-1l-1 -2l-2 -5l-28 -86zM1803 1343q151 -2 260 117.5t107 283.5q-2 -164 107.5 -283.5t260.5 -117.5q-99 1 -184.5 -53.5t-135 -147.5t-48.5 -201q2 164 -107 283.5 t-260 118.5z" />
<glyph unicode="&#xc7;" horiz-adv-x="1987" d="M39 1172q0 241 83 454q82 210 229 372q144 159 339 251q192 91 414 91q303 0 564 -177q59 -36 93.5 -95.5t34.5 -129.5q0 -109 -77 -186t-186 -77q-108 0 -185 77t-77 186q0 108 77 185t185 77q47 0 87 -15q-165 74 -348 74q-188 1 -360.5 -80.5t-297.5 -220t-199 -329.5 t-73 -399q-1 -208 73 -399t199 -329.5t297.5 -220.5t360.5 -81q265 -1 486.5 151t339.5 403q-114 -317 -360 -520q-245 -202 -569 -227l-30 -81q55 -13 94 -46.5t48 -89.5q10 -90 -45 -135q-54 -48 -164 -48q-15 0 -49 2q-74 8 -123 20l1 1l37 101q40 -26 103 -26 q53 0 90 18t37 44t-37 44.5t-90 18.5q-37 0 -70 -11l4 12l66 176q-206 12 -392 109.5t-319.5 252.5t-212 365t-78.5 438z" />
<glyph unicode="&#xc8;" horiz-adv-x="2140" d="M108 5q128 0 219 93q92 95 104 234l4 4v1680q-13 140 -105 231q-91 93 -218 93h348h102h32h18h29h1095h297h1v-46h-1v-353q0 136 -83 236q-82 100 -209 117h-936q-144 -93 -164 -281v-650h368q10 0 17 -7t7 -16q0 -10 -7 -16.5t-17 -6.5h-368v-984l1 -1q20 -188 164 -281 h936q125 16 208 116t83 237v-399h-297h-1h-769h-388h-22h-61h-387zM866 2852l81 94l308 -309l-40 -47zM1131 1340q150 -2 259.5 117.5t107.5 283.5q-2 -164 107.5 -283.5t259.5 -117.5q-98 1 -183.5 -53.5t-135 -148t-48.5 -200.5q1 107 -48.5 200.5t-135 148t-183.5 53.5z " />
<glyph unicode="&#xc9;" horiz-adv-x="2140" d="M108 5q128 0 219 93q92 95 104 234l4 4v1680q-13 140 -105 231q-91 93 -218 93h350h101h31h19h28h1095h297h1v-46h-1v-353q0 137 -83 237q-83 99 -209 116h-936q-144 -93 -164 -281v-650h369q9 0 16 -7t7 -16q0 -10 -7 -16.5t-16 -6.5h-369v-984l1 -1q20 -188 164 -281 h936q125 16 208 116t83 237v-399h-297h-1h-769h-387h-23h-61h-387zM1067 2637l308 309l81 -94l-348 -261zM1131 1340q150 -2 259.5 117.5t107.5 283.5q-2 -164 107.5 -283.5t259.5 -117.5q-150 2 -259.5 -118t-107.5 -283q2 163 -107.5 283t-259.5 118z" />
<glyph unicode="&#xca;" horiz-adv-x="2140" d="M108 5q128 0 219 93q91 94 105 234l3 4v1680q-14 141 -105 232q-92 92 -218 92h350h101h31h19h28h1095h297h1v-46h-1v-353q0 137 -83 237q-83 99 -208 116h-937q-144 -93 -164 -281v-650h369q9 0 16 -7t7 -16q0 -10 -7 -16.5t-16 -6.5h-369v-984l1 -1q20 -188 164 -281 h937q124 16 207 116q83 101 83 237v-399h-297h-1h-769h-387h-23h-61h-387zM883 2592l312 312l313 -312h-170l-143 142l-142 -142h-170zM1131 1340q150 -2 259.5 117.5t107.5 283.5q-2 -164 107.5 -283.5t259.5 -117.5q-98 2 -183.5 -52.5t-135 -148t-48.5 -200.5 q1 107 -48.5 200.5t-135 148t-183.5 52.5z" />
<glyph unicode="&#xcb;" horiz-adv-x="2140" d="M108 5q128 0 219 93q92 95 105 235l3 3v1680q-14 141 -105 232q-92 92 -218 92h350h101h31h19h28h1h1095h296h1v-46h-1v-353q0 137 -83 237q-83 99 -208 116h-937q-143 -91 -163 -281v-650h368q9 0 16 -7t7 -16q0 -10 -7 -16.5t-16 -6.5h-368v-984q19 -189 164 -282h937 q124 16 207 116q83 101 83 237v-399h-296h-2h-769h-387h-23h-61h-387zM838 2710q0 49 34 83q35 35 84 35t84 -35t35 -83q0 -49 -35 -84q-34 -34 -84 -34t-84 34t-34 84zM1131 1340q151 -2 260 117.5t107 283.5q-2 -164 107.5 -283.5t260.5 -117.5q-151 2 -260.5 -117.5 t-107.5 -283.5q2 164 -107 283.5t-260 117.5zM1295 2710q0 48 35 83t84 35t84 -35t35 -83q0 -49 -35 -84q-34 -34 -84 -34t-84 34q-35 35 -35 84z" />
<glyph unicode="&#xcc;" horiz-adv-x="982" d="M108 2340h387h62h15h387q-126 0 -217 -91t-106 -229v-1685l1 -1q14 -142 104 -235q91 -93 220 -93h-364h-3q-3 0 -5 -1h-159v1h-320q120 0 209 84t111 213v1726q-18 134 -108 223q-89 88 -214 88zM315 2852l82 93l308 -308l-41 -47z" />
<glyph unicode="&#xcd;" horiz-adv-x="983" d="M108 2340h388h62h14h388q-126 0 -217 -91t-106 -229v-1685l1 -1q14 -142 104 -235q92 -93 220 -93h-364h-3q-4 0 -5 -1h-159v1h-321q122 0 210 84t111 213v1726q-18 134 -108 223q-89 88 -215 88zM382 2637l308 308l81 -93l-348 -262z" />
<glyph unicode="&#xce;" horiz-adv-x="983" d="M108 2340h388h62h14h388q-127 0 -218 -91q-90 -92 -105 -229v-1685l1 -1q12 -141 103 -235q91 -93 221 -93h-364h-3q-4 0 -5 -1h-160v1h-320q122 0 210 84q89 85 110 213v1726q-16 134 -108 223q-89 88 -214 88zM209 2591l312 312l313 -312h-170l-143 142l-142 -142h-170 z" />
<glyph unicode="&#xcf;" horiz-adv-x="982" d="M108 2340h387h62h15h387q-126 0 -217 -91t-106 -229v-1685l1 -1q14 -142 104 -235q91 -93 220 -93h-364h-3q-3 0 -5 -1h-159v1h-320q122 0 210 84q89 85 110 213v1726q-18 134 -108 223q-89 88 -214 88zM181 2709q0 49 34 83q35 35 84 35t84 -35t35 -83q0 -49 -35 -84 q-34 -34 -84 -34t-84 34t-34 84zM638 2709q0 48 35 83t84 35t84 -35t35 -83q0 -49 -35 -84q-34 -34 -84 -34t-84 34q-35 35 -35 84z" />
<glyph unicode="&#xd0;" horiz-adv-x="2487" d="M111 -2q149 0 255 94q108 96 121 235v776h-285v120h285v777q-13 140 -121 234q-106 94 -255 94h450h124h4h4h121q138 -1 415 -1q387 -4 701 -230q67 -50 120 -101q350 -347 365 -841q3 -235 -85 -448q-88 -214 -256 -377q-89 -84 -189 -146q-302 -184 -659 -185h-67h-5 h-47q-16 -1 -47 -1h24h-213h-160h-18h-79h-9h-93h-401zM709 324q9 -94 62 -168.5t139 -117.5h158q53 1 158 1q57 0 102 4q254 87 436 263q158 152 251 364q92 211 92 458q0 278 -112 515q-113 239 -307 405q-192 167 -445 238q-17 1 -49 1h-142q-94 0 -141 1 q-88 -43 -141.5 -120t-60.5 -173v-772h310v-120h-310v-779z" />
<glyph unicode="&#xd1;" horiz-adv-x="2313" d="M99 5q144 0 251 83q106 82 132 211l1 15v1728q-4 26 -14 54q-33 89 -106 150q-110 94 -263 94h383v1h13h42v-1h10l14 -19l1392 -1958v1674q-23 131 -130 217t-254 86h384v1h55v-1h384q-146 0 -253 -86t-131 -217v-1752v-280h-53h-1l-109 152l1 1l-1309 1840v-1702 q27 -127 133 -209t250 -82h-383h-57h-382zM1003 2736q6 4 20 11t45.5 16.5t64.5 13.5t78.5 -3t87.5 -29q81 -41 151 -34q72 7 119 41l67 -100q-93 -60 -205 -62q-98 0 -190 50q-17 9 -36 13.5t-35.5 5t-32.5 -2t-28.5 -6t-22 -7.5t-15.5 -7l-6 -2z" />
<glyph unicode="&#xd2;" horiz-adv-x="2410" d="M12 1164q0 242 91 452q91 211 250 371q160 160 371 250q210 91 453 91q158 1 309 -40.5t278.5 -117t235.5 -183.5t183 -236t117 -279t41 -308q0 -243 -91 -453q-90 -211 -250 -371q-158 -158 -371 -250q-210 -91 -452 -91q-243 0 -453 91q-211 91 -371 250 q-159 160 -250 371q-91 210 -91 453zM311 1164q0 -180 43.5 -349.5t123.5 -306.5t186.5 -240t238.5 -159t272 -55q175 -1 335 87t276 237t184.5 355t67.5 431q1 224 -67.5 430t-184.5 355t-276 237t-335 87q-140 1 -272 -55t-238.5 -159t-186.5 -240t-123.5 -306t-43.5 -349 zM951 2847l81 94l308 -309l-41 -47zM1014 1161q69 0 115 52q48 53 48 125q0 -72 47 -125q48 -52 115 -52q-67 0 -115 -52q-47 -53 -47 -126q0 73 -48 126q-46 52 -115 52z" />
<glyph unicode="&#xd3;" horiz-adv-x="2410" d="M12 1164q0 242 91 452q91 211 250 371q160 160 371 250q210 91 453 91q158 1 309 -40.5t278.5 -117t235.5 -183.5t183 -236t117 -279t41 -308q0 -243 -91 -453q-90 -211 -250 -371q-158 -158 -371 -250q-210 -91 -452 -91q-243 0 -453 91q-211 91 -371 250 q-159 160 -250 371q-91 210 -91 453zM311 1164q0 -180 43.5 -349.5t123.5 -306.5t186.5 -240t238.5 -159t272 -55q175 -1 335 87t276 237t184.5 355t67.5 431q1 224 -67.5 430t-184.5 355t-276 237t-335 87q-140 1 -272 -55t-238.5 -159t-186.5 -240t-123.5 -306t-43.5 -349 zM970 2632l308 309l81 -94l-348 -262zM1014 1161q69 0 115 52q48 53 48 125q0 -72 47 -125q48 -52 115 -52q-67 0 -115 -52q-47 -53 -47 -126q0 73 -48 126q-46 52 -115 52z" />
<glyph unicode="&#xd4;" horiz-adv-x="2410" d="M12 1164q0 242 91 452q91 211 250 371q160 160 371 250q210 91 453 91q158 1 309 -40.5t278.5 -117t235.5 -183.5t183 -236t117 -279t41 -308q0 -243 -91 -453q-90 -211 -250 -371q-158 -158 -371 -250q-210 -91 -452 -91q-243 0 -453 91q-211 91 -371 250 q-159 160 -250 371q-91 210 -91 453zM311 1164q0 -180 43.5 -349.5t123.5 -306.5t186.5 -240t238.5 -159t272 -55q175 -1 335 87t276 237t184.5 355t67.5 431q1 224 -67.5 430t-184.5 355t-276 237t-335 87q-140 1 -272 -55t-238.5 -159t-186.5 -240t-123.5 -306t-43.5 -349 zM855 2583l313 312l312 -312h-170l-142 142l-143 -142h-170zM1014 1161q69 0 115 52q48 53 48 125q0 -72 47 -125q48 -52 115 -52q-67 0 -115 -52q-47 -53 -47 -126q0 73 -48 126q-46 52 -115 52z" />
<glyph unicode="&#xd5;" horiz-adv-x="2410" d="M12 1164q0 242 91 452q91 211 250 371q160 160 371 250q210 91 453 91q158 1 309 -40.5t278.5 -117t235.5 -183.5t183 -236t117 -279t41 -308q0 -243 -91 -453q-90 -211 -250 -371q-158 -158 -371 -250q-210 -91 -452 -91q-243 0 -453 91q-211 91 -371 250 q-159 160 -250 371q-91 210 -91 453zM311 1164q0 -180 43.5 -349.5t123.5 -306.5t186.5 -240t238.5 -159t272 -55q175 -1 335 87t276 237t184.5 355t67.5 431q1 224 -67.5 430t-184.5 355t-276 237t-335 87q-140 1 -272 -55t-238.5 -159t-186.5 -240t-123.5 -306t-43.5 -349 zM879 2727q7 4 20 10.5t45 17t65.5 14t78.5 -3.5t87 -29q81 -41 151 -34q72 7 119 41l67 -100q-95 -62 -205 -62q-98 0 -190 50q-44 22 -83 18.5t-65.5 -13t-26.5 -12.5zM1014 1161q69 0 115 52q48 53 48 125q0 -72 47 -125q48 -52 115 -52q-67 0 -115 -52q-47 -53 -47 -126 q0 73 -48 126q-46 52 -115 52z" />
<glyph unicode="&#xd6;" horiz-adv-x="2410" d="M12 1164q0 242 91 452q91 211 250 371q160 160 371 250q210 91 453 91q158 1 309 -40.5t278.5 -117t235.5 -183.5t183 -236t117 -279t41 -308q0 -243 -91 -453q-90 -211 -250 -371q-158 -158 -371 -250q-210 -91 -452 -91q-243 0 -453 91q-211 91 -371 250 q-159 160 -250 371q-91 210 -91 453zM311 1164q0 -180 43.5 -349.5t123.5 -306.5t186.5 -240t238.5 -159t272 -55q175 -1 335 87t276 237t184.5 355t67.5 431q1 224 -67.5 430t-184.5 355t-276 237t-335 87q-140 1 -272 -55t-238.5 -159t-186.5 -240t-123.5 -306t-43.5 -349 zM825 2705q0 48 35 83t84 35t84 -35t35 -83q0 -49 -35 -84q-34 -34 -84 -34t-84 34q-35 35 -35 84zM1014 1161q69 0 115 52q48 53 48 125q0 -72 47 -125q48 -52 115 -52q-67 0 -115 -52q-47 -53 -47 -126q0 73 -48 126q-46 52 -115 52zM1283 2705q0 49 34 83q35 35 85 35 q48 0 83 -35t35 -83q0 -49 -35 -84q-34 -34 -83 -34q-51 0 -85 34t-34 84z" />
<glyph unicode="&#xd7;" horiz-adv-x="935" />
<glyph unicode="&#xd8;" horiz-adv-x="2686" d="M119 -1l386 386q-144 159 -224 358q-81 201 -81 428q-1 158 40.5 309t117 278.5t183.5 235.5t236 183t279 117t308 41q227 0 428 -81q199 -79 358 -224l305 305h169l-390 -390q141 -159 218 -357t77 -417q0 -243 -91 -453q-92 -211 -251 -371q-158 -159 -370 -250 q-211 -90 -453 -90q-219 0 -417 76.5t-357 217.5l-302 -302h-169zM499 1171q0 -354 156 -636l599 600q28 -13 49 -36q21 -26 31 -54l-615 -615q120 -172 286 -270q167 -99 357 -99q140 -1 272.5 55t239 159.5t186.5 240t123.5 306t42.5 349.5q0 339 -147 619l-593 -593 q-31 11 -52 32t-35 51l617 616q-121 180 -289 281q-169 103 -365 103q-117 1 -228.5 -38.5t-206.5 -111.5t-175 -174.5t-136 -224.5t-87 -266t-30 -294zM1202 1168q68 0 114 52q48 52 48 126q0 -74 48 -126t115 -52q-67 0 -115 -52t-48 -125q0 73 -46 123l-4 -4l4 4 q-46 54 -116 54z" />
<glyph unicode="&#xd9;" horiz-adv-x="2263" d="M38 2327v1l351 -2h164v1l380 1q-137 -8 -231 -94q-95 -87 -113 -221v-1225q0 -214 102 -391q105 -179 275 -284q19 -8 57 -23q61 -24 146 -37q91 -14 192 7q55 13 115 37q202 98 325 290.5t123 423.5v1194q-15 138 -111 226q-95 90 -234 96v1l345 -2h22l369 2 q-134 -6 -229 -92t-114 -215v-1188v-10v-35q0 -202 -92 -372q-91 -169 -248 -279q-153 -109 -352 -136q-46 -7 -103 -7q-201 0 -370 91v1q-192 101 -308 289.5t-116 412.5v1207q-11 140 -107 233t-238 99zM892 2847l82 93l308 -308l-41 -47zM1332 54h1h-1zM1337 55l20 4 q-3 0 -10 -1.5t-10 -2.5z" />
<glyph unicode="&#xda;" horiz-adv-x="2263" d="M38 2327l351 -1h164l380 1q-138 -6 -232 -94q-94 -86 -112 -221v-1224q0 -214 102 -392q105 -179 275 -284q1 -1 58 -24q55 -22 145 -36q87 -13 192 7q55 13 115 37q202 98 325 290.5t123 424.5v1194q-16 136 -111 226t-234 96l345 -1h21l370 1q-135 -6 -229 -91 t-115 -216v-1188v-10v-34q0 -202 -92 -372t-247 -279q-155 -110 -352 -137q-46 -7 -103 -7q-200 0 -370 92q-192 101 -308 289.5t-116 413.5v1206q-11 140 -108 233q-95 92 -237 100zM1241 2632l308 308l81 -93l-348 -262zM1332 53h1h-1zM1337 54q3 0 10 2t10 2q-1 0 -5 -1 t-7.5 -1.5t-7.5 -1.5z" />
<glyph unicode="&#xdb;" horiz-adv-x="2263" d="M38 2326l352 -1h164l380 1q-138 -6 -232 -94q-94 -87 -112 -220v-1225q0 -214 102 -391q104 -178 275 -285q19 -8 56 -23q57 -22 146 -36q91 -14 193 7q61 14 115 36q202 100 324.5 291.5t122.5 423.5v1194q-15 135 -110 226q-94 90 -234 96l344 -1h22l369 1 q-135 -6 -229 -91t-114 -216v-1187v-11v-34q0 -202 -92 -372t-247 -279q-153 -109 -352 -136q-48 -7 -103 -7q-201 0 -370 91q-193 103 -308.5 290.5t-115.5 412.5v1206q-12 141 -108 234t-238 99zM925 2587l312 313l312 -313h-169l-143 143l-143 -143h-169zM1332 52 q1 0 1 1h1q-1 0 -2 -1zM1338 54l20 4q-4 0 -10 -2t-10 -2z" />
<glyph unicode="&#xdc;" horiz-adv-x="2263" d="M38 2326l352 -1h163l381 1q-138 -6 -232 -94q-94 -86 -112 -221v-1225q0 -214 102 -391q105 -179 275 -284q19 -8 56 -23q61 -24 146 -37q91 -14 193 7q55 13 115 37q202 98 324.5 290t122.5 425v1193q-15 138 -111 226q-94 89 -234 97l345 -1h22l369 1q-135 -6 -229 -91 t-114 -216v-1188v-10v-35q0 -201 -92 -371t-247 -279q-155 -110 -352 -137q-48 -7 -103 -7q-200 0 -370 92q-192 101 -308 289.5t-116 412.5v1207q-12 140 -108 233q-95 92 -238 100zM934 2703q0 49 35 84t84 35q48 0 83 -35t35 -84t-35 -84q-34 -34 -83 -34q-50 0 -84 34 q-35 35 -35 84zM1332 52h1h1h-1h-1zM1338 53q4 1 10 2t10 2q-1 0 -5 -1t-7.5 -1.5t-7.5 -1.5zM1392 2703q0 50 34 84q35 35 84 35t84 -35t35 -84t-35 -84q-34 -34 -84 -34t-84 34t-34 84z" />
<glyph unicode="&#xdd;" horiz-adv-x="1871" d="M-147 2326h426h122h12h93h316l-8 -4q-7 -4 -19.5 -13t-27.5 -22t-29.5 -32.5t-27 -42.5t-18.5 -54t-5 -65t13.5 -77.5t37.5 -90.5l27 -47q1 -2 4 -6t4 -6l-3 3l343 -593l365 632l-16 -21q147 222 30 360q-41 47 -113 78l340 1h37h14h6h429q-21 -4 -64 -11 q-65 -11 -165 -48t-213 -117q-114 -81 -213 -215l-403 -697v-435v-496q16 -135 107 -226q92 -90 216 -90h-387h-77h-387q125 0 215 90q90 89 107 226v574v98v181l-471 817q-170 228 -404 305q-97 32 -153 38zM1080 2632l308 308l82 -93l-349 -262z" />
<glyph unicode="&#xde;" horiz-adv-x="1944" d="M108 -3q116 5 201 67q88 65 125 167q10 30 13 46v1778q-29 121 -120 197q-93 78 -218 82l380 -1h85h11h18h46h323q-120 0 -208 -82q-89 -83 -111 -208v-138h628q176 0 318 -85q143 -86 228 -229q86 -143 86 -317v-99q0 -173 -86 -318q-85 -143 -228 -228 q-142 -85 -318 -85h-628v-257q22 -125 111 -208q88 -82 208 -82h-323h-46h-18v1h-96v-1h-381zM653 590h330q126 0 240.5 52.5t205.5 143.5q184 186 184 447q0 174 -85 316t-229 226t-318 84l-328 5v-1274z" />
<glyph unicode="&#xdf;" horiz-adv-x="1941" d="M12 -3q116 5 201 67q88 65 125 167q10 30 13 45v1595q0 54 9 99l1 1v1v1l1 2q6 26 9 37q0 1 1 2v1q1 1 1 3q11 34 24 59q27 52 56.5 86t44.5 43l1 1q1 0 8 5q24 16 46 27l1 1q2 0 2 1h1q3 2 8 4.5l7 3.5q41 20 78 32q64 21 119 32q72 12 124 16q234 19 400 -42 q126 -44 200 -158q53 -96 46 -203q-8 -127 -67 -192q-75 -71 -260 -95q-27 -4 -37 -5q-25 -4 -75 -14q-3 0 -4 -1q-40 -6 -76 -29q-15 -12 -15.5 -27t9.5 -27.5t26.5 -25t30 -20t24.5 -12.5q78 -35 161 -61q39 -14 50 -17q132 -43 251 -103q125 -62 213 -164 q96 -117 115 -262q11 -101 1 -191q-8 -96 -31 -183q-39 -144 -126 -255.5t-216 -177.5q-109 -52 -232 -69q-162 -23 -275 13q-98 33 -165 112q-66 79 -81 184q0 12 9 16.5t19 0t12 -16.5v2v1q0 -2 1 -3v-5q2 -9 6 -25q27 -99 104 -169q90 -72 208 -77q207 69 340 264.5 t132 440.5q0 207 -93 376q-90 167 -245 266q-56 19 -100 36q-59 20 -112 50q-32 18 -59 53q-24 33 -12 74q16 37 55 52q41 15 77 21q1 1 2 1h2q61 55 95 133t34 168q0 102 -43.5 188t-119.5 140q-173 14 -341 -27l-21 -6l-17.5 -15t-35.5 -40t-44.5 -64.5t-36 -87.5 t-19.5 -111v-1653q22 -126 111 -209q88 -81 208 -81h-323h-46h-18h-96v-1z" />
<glyph unicode="&#xe0;" horiz-adv-x="1529" d="M20 667q24 140 109 252q86 114 214 173q104 46 218 49q173 5 321 -93q78 -51 136 -128v117q-2 86 0 160v66q0 263 -108 384q-98 31 -203 11q-158 -33 -270 -184q7 1 22 1q54 0 92 -38q39 -37 39 -93q0 -54 -39 -93q-38 -38 -92 -38q-53 0 -93 38q-38 40 -38 93 q0 46 29 83q68 117 178 200q151 101 330 72q40 -4 82 -21q30 -9 66 -28q0 -1 1 -1q0 -1 2 -1t2 -1q1 -1 2 -1t1.5 -0.5t1.5 -0.5q107 -57 159 -160q42 -81 42 -172v-1000q17 -135 107 -224q92 -89 215 -89h-369q-12 0 -18 1q-55 7 -95 46q-46 46 -46 113v688 q-76 128 -210 198q-154 76 -321 48q-78 -72 -126 -206q-47 -135 -47 -299q0 -193 63 -342q63 -146 164 -202q143 -9 273 58q18 8 28 -8.5t-8 -26.5q-43 -22 -78 -34q-192 -64 -380 7q-100 37 -180 111q-107 101 -153 235q-45 137 -23 280zM434 2317l81 94l308 -309l-41 -47z " />
<glyph unicode="&#xe1;" horiz-adv-x="1546" d="M37 666q24 140 109 252q87 114 214 172q106 47 218 50q172 3 321 -93q79 -53 135 -128v117v160v65q0 265 -107 385q-99 31 -204 11q-156 -33 -269 -185q14 2 22 2q54 0 92 -38q39 -38 39 -93q0 -54 -39 -93q-38 -38 -92 -38q-55 0 -93 38q-38 40 -38 93q0 47 29 82 q67 118 178 200q149 102 329 73q41 -5 83 -21q28 -8 65 -28q1 -1 2 -1t1 -1l2 -1q1 0 2.5 -0.5t2.5 -1.5q106 -57 160 -160q41 -82 41 -172v-1000q17 -135 107 -224q92 -89 216 -89h-369q-12 0 -18 1q-56 7 -95 46q-47 47 -47 113v688q-74 126 -210 197q-155 77 -320 49 q-78 -71 -127 -206q-47 -135 -47 -300q0 -193 63 -341q65 -147 164 -202q144 -9 274 58q18 8 27 -8.5t-7 -26.5q-41 -21 -79 -34q-192 -64 -380 7q-99 38 -180 111q-105 99 -152 235q-45 137 -23 280zM762 2107l308 308l82 -93l-349 -262z" />
<glyph unicode="&#xe2;" horiz-adv-x="1538" d="M29 664q24 140 109 252q86 114 214 173q107 48 218 49q172 4 321 -93q79 -52 135 -128v117v160v66q0 265 -107 385q-102 30 -204 11q-157 -35 -269 -185q14 2 22 2q54 0 92 -39q39 -38 39 -93q0 -54 -39 -93q-38 -38 -92 -38q-53 0 -93 38q-38 40 -38 93q0 46 29 83 q66 115 178 200q150 101 329 72q41 -5 83 -21q28 -8 65 -28q1 0 2 -1q1 0 1 -1l2 -1q1 0 2.5 -0.5t2.5 -1.5q106 -57 160 -160q42 -81 42 -172v-999q16 -136 107 -225q89 -88 215 -88h-369q-12 0 -18 1q-58 8 -95 45q-47 47 -47 113v689q-75 126 -209 197q-155 77 -321 48 q-78 -71 -127 -206q-47 -135 -47 -299q0 -194 63 -342q65 -148 164 -201q143 -11 274 57q11 5 20.5 -1.5t9.5 -16t-10 -16.5q-41 -21 -78 -35q-194 -63 -381 7q-100 38 -179 111q-107 101 -153 235q-45 137 -23 280zM539 2056l312 313l312 -313h-169l-143 143l-143 -143 h-169z" />
<glyph unicode="&#xe3;" horiz-adv-x="1543" d="M34 662q24 140 109 252q86 114 214 173q107 48 218 49q172 4 321 -92q78 -53 136 -129v117q-1 58 -1 160q1 23 1 66q0 264 -108 385q-102 30 -203 11q-157 -33 -270 -185q14 2 22 2q55 0 92 -39q39 -38 39 -92q0 -56 -39 -93q-38 -38 -92 -38q-53 0 -93 38q-38 38 -38 93 q0 45 29 82q67 118 178 200q150 102 329 72q39 -4 83 -20q29 -10 65 -29q1 0 2 -1q3 0 4 -1q0 -1 2 -2l2 -1q107 -56 160 -160q42 -80 42 -172v-999q17 -135 107 -224q91 -89 215 -89h-369q-12 0 -18 1q-57 8 -95 46q-46 46 -46 112v689q-77 127 -210 197q-154 77 -321 48 q-78 -69 -127 -205q-47 -135 -47 -300q0 -192 63 -341q65 -149 164 -202q143 -9 274 57q11 6 20.5 -0.5t9.5 -16.5t-10 -17q-43 -22 -78 -34q-194 -64 -381 6q-100 38 -179 111q-107 101 -153 236q-45 138 -23 279zM466 2200q7 4 20 10.5t45 17t65 14t78.5 -3.5t86.5 -29 q83 -41 152 -34q70 7 119 41l67 -100q-97 -61 -205 -61q-97 -1 -190 49q-41 23 -82.5 19t-65 -12.5t-28.5 -13.5v1z" />
<glyph unicode="&#xe4;" horiz-adv-x="1528" d="M19 661q24 140 109 252q87 114 214 172q106 47 218 50q172 3 321 -93q78 -53 136 -128v116q-1 58 -1 161q1 23 1 65q0 264 -108 385q-101 30 -203 11q-157 -33 -270 -185q14 2 22 2q54 0 92 -39q39 -38 39 -92t-39 -93q-38 -38 -92 -38q-53 0 -93 38q-38 40 -38 93 q0 47 29 82q67 118 178 200q149 102 329 73q41 -6 83 -21q34 -12 65 -28q1 -1 2 -1q1 -1 2 -1t2 -1t5 -3q106 -55 159 -160q42 -80 42 -172v-999q17 -135 107 -224q92 -89 215 -89h-369q-12 0 -18 1q-57 8 -95 46q-46 46 -46 112v689q-76 126 -210 197q-154 76 -321 49 q-78 -72 -126 -206t-48 -300q0 -192 63 -341q64 -148 165 -202q143 -9 273 58q18 8 27 -8.5t-7 -26.5q-43 -22 -78 -34q-192 -64 -381 7q-100 38 -179 111q-107 101 -153 235q-45 137 -23 280zM420 2175q0 48 35 83t84 35q48 0 83 -35t35 -83q0 -49 -35 -84t-83 -35 q-49 0 -84 35t-35 84zM878 2175q0 49 34 83q35 35 84 35t84 -35t35 -83q0 -49 -35 -84t-84 -35t-84 35q-34 34 -34 84z" />
<glyph unicode="&#xe5;" horiz-adv-x="1538" d="M29 659q24 140 109 252q86 113 214 173q104 46 218 49q174 5 321 -93q78 -51 136 -128v117q-2 86 0 160v66q0 263 -108 384q-98 31 -203 11q-158 -33 -270 -184q7 1 22 1q55 0 93 -38t38 -93q0 -53 -38 -93q-38 -38 -93 -38q-53 0 -93 38q-38 40 -38 93q0 46 29 83 q68 117 178 200q152 101 330 72q40 -4 82 -21q30 -9 66 -28l1 -1q1 -1 2 -1t2 -1t2 -1q2 -1 3 -1q107 -57 159 -160q42 -81 42 -172v-1000q17 -135 107 -224q92 -89 215 -89h-369q-12 0 -18 1q-55 7 -95 46q-46 46 -46 113v688q-77 128 -210 198q-155 76 -321 48 q-78 -72 -126 -206q-47 -135 -47 -299q0 -193 63 -342q63 -146 164 -202q143 -9 273 58q18 8 28 -8.5t-8 -26.5q-43 -22 -78 -34q-192 -64 -380 7q-101 37 -180 111q-107 101 -153 235q-45 137 -23 280zM702 2170v4v3q3 43 29 74.5t68 39.5q78 10 124 -55q19 -33 16 -70.5 t-27 -67.5q-24 -28 -60 -37.5t-71 2.5q-71 30 -79 107zM742 2174q2 -33 24 -55.5t55 -22.5q32 0 55 22.5t24 55.5q-1 34 -24 56.5t-55 22.5t-54.5 -22.5t-24.5 -56.5z" />
<glyph unicode="&#xe6;" horiz-adv-x="2578" d="M43 678q23 140 108 252q86 113 215 173q106 48 217 49q173 4 322 -92q79 -54 135 -129v118q-2 86 0 160v58v8q-1 159 -36 251q-34 93 -72 133q-101 30 -203 11q-157 -33 -270 -185q14 2 22 2q55 0 93 -39q39 -38 39 -92t-39 -93q-38 -38 -93 -38q-53 0 -93 38 q-38 40 -38 93q0 47 29 82q69 119 179 200q150 102 329 72q39 -4 83 -20q29 -10 65 -29h2l1 -1q2 0 2 -1q1 -1 5 -3q106 -55 159 -160q16 -32 27 -66h1v1q133 170 333 245q207 72 418 12q210 -66 347 -231q135 -162 182 -376l1 -3q1 -1 1 -4t1 -5l10 -49h-23h-2h-231h-351 h-403q-19 0 -19 20t19 20h162h500h31q-38 238 -141 396q-103 156 -248 182q-3 1 -10 1q-3 0 -8.5 0.5t-8.5 1.5h-10q-120 0 -221 -105q-101 -104 -159 -279q-60 -179 -61 -392v-2v-3q0 -25 1 -37v-5v-2q1 -8 1 -24q0 -8 1 -13v-4q1 -4 1 -12v-1q0 -7 1 -10v-2v-1q1 -5 1 -14 v-1q0 -1 1 -2q0 -9 1 -13q2 -17 6 -49q1 -2 1.5 -5.5t0.5 -5.5v-5q0 -2 0.5 -5.5t1.5 -5.5q1 -1 1 -4q0 -2 0.5 -5.5t1.5 -5.5v-3q1 -2 1 -6q4 -16 5 -24l3 -15q1 -2 1 -5l3 -9q1 -3 2 -7.5t1 -6.5v-1l3 -12q1 -1 1 -4q0 -2 1 -5t2 -5q1 -1 1.5 -3.5t0.5 -3.5q1 -1 1.5 -3.5 t0.5 -3.5q1 -3 2 -7.5t2 -6.5q6 -20 9 -29q0 -1 1 -3.5t2 -4.5t2 -5t1 -5l6 -15v-1q1 -2 2.5 -6t1.5 -5t0.5 -2.5t1.5 -2.5q2 -5 6 -13q9 -23 18 -42q3 -8 7 -13v-2q3 -4 7 -12q3 -7 7 -14q4 -8 7 -12q3 -5 7 -13l12 -18l3 -6q1 -1 3.5 -5t4.5 -6v-1q1 -2 4 -5q3 -4 8 -10.5 t7 -9.5q1 -1 2 -3t2 -3l2 -2q1 -2 3 -4.5t3 -3.5q4 -4 6 -7q2 -1 5 -5t4 -5l8 -8q1 -2 5 -6l10 -10q1 -1 4 -3.5t5 -4.5l5 -5q17 -18 71 -52q55 -33 146 -46q3 0 10 -1t10 -1q10 -1 31 -1q74 0 164 31q89 30 193 103q157 137 230 333q7 18 25.5 12.5t13.5 -23.5 q-20 -52 -48 -107q-109 -210 -312 -330q-202 -111 -428 -80q-220 36 -377 187q-156 152 -225 358q-1 1 -1 3q-1 1 -1 2q-4 12 -5 17l-1 1q-1 2 -1 4t-1 4l-6 21q-1 1 -1 4t-1 4l-6 21v4q-1 1 -1 2q0 3 -1.5 10t-2.5 11q-1 1 -1 2q0 3 -1 4q-1 4 -2.5 12t-1.5 12q-1 2 -1 5 q-1 4 -2 12.5t-2 13.5v1v1q-2 16 -3 25l-1 1v2q-1 4 -1 13t-1 13q0 3 -1 4q-1 9 -1 27q-1 5 -1 15v3q-1 13 -1 38q-74 125 -209 196q-154 77 -321 48q-77 -70 -126 -205q-47 -135 -47 -300q0 -192 63 -341q65 -149 164 -202q143 -9 274 57q17 9 26.5 -7.5t-6.5 -26.5 q-41 -21 -79 -34q-193 -64 -380 6q-100 38 -180 111q-106 100 -152 236q-46 134 -23 279z" />
<glyph unicode="&#xe7;" horiz-adv-x="1531" d="M19 842q0 237 106 430q105 194 282 309q176 115 393 115q116 0 219 -34q103 -33 194 -95q94 -60 94 -165q0 -80 -56 -136t-136 -56t-136 56t-56 136q0 78 56 136q56 56 136 56q32 0 63 -11q-119 54 -254 54q-142 0 -254 -60t-190 -165q-79 -108 -119 -244 q-42 -138 -42 -294t42 -291q40 -135 119 -236q78 -101 190 -159q112 -57 254 -57q196 0 357 111q159 110 248 294q-57 -161 -165 -284q-109 -124 -253 -194q-113 -54 -238 -66l-27 -73q124 -29 142 -136q10 -89 -44 -135q-56 -48 -165 -48q-15 0 -49 2q-48 5 -123 20l1 1 l37 101q40 -26 103 -26q53 0 90 18t37 44t-37 44.5t-90 18.5q-37 0 -70 -11l4 12l63 166q-185 14 -338 113q-177 115 -282 309q-106 193 -106 430z" />
<glyph unicode="&#xe8;" horiz-adv-x="1582" d="M55 1014q38 235 181 423q134 170 334 245q207 72 417 12q210 -66 347 -231q135 -162 182 -376l1 -3q1 -2 1 -5t1 -4l10 -49h-23h-2h-231h-351h-403q-19 0 -19 20t19 20h162h500h31q-38 238 -141 396q-103 156 -248 182q-3 1 -10 1q-3 0 -8.5 0.5t-8.5 1.5h-10 q-120 0 -221 -105q-101 -104 -159 -279q-60 -179 -61 -392v-2v-3q0 -25 1 -37v-4v-3q1 -8 1 -24q1 -4 1 -13v-4q1 -4 1 -12v-1q0 -7 1 -10v-2v-1q1 -5 1 -14v-1q1 -1 1 -2q0 -9 1 -13q2 -17 6 -49q1 -2 1.5 -5.5t0.5 -5.5v-5q0 -2 0.5 -5.5t1.5 -5.5q1 -1 1 -4 q0 -2 0.5 -5.5t1.5 -5.5v-3q0 -1 1 -3t1 -3q0 -4 2 -12t2 -12l3 -15q1 -2 1 -5l3 -9q1 -2 2 -7t1 -7v-1l3 -12q1 -1 1 -4q0 -2 1 -5t2 -5q1 -1 1.5 -3.5t0.5 -3.5q1 -1 1.5 -3.5t0.5 -3.5q1 -2 2 -7t2 -7q6 -20 9 -29q0 -2 1 -4l2 -4t2 -5t1 -5h1q1 -5 5 -15v-1q1 -2 2.5 -6 t1.5 -5t0.5 -2.5t1.5 -2.5q2 -5 6 -13q9 -23 18 -42q3 -8 7 -13v-2q3 -4 7 -12q3 -7 7 -14q4 -8 7 -12q3 -5 7 -13l12 -18l3 -6q1 -1 3.5 -5t4.5 -6v-1q1 -2 4 -5t8 -10t7 -10q1 -1 2 -3t2 -3l2 -2q1 -2 3 -4t3 -4q4 -4 6 -7q1 -1 4 -4.5t5 -5.5l8 -8q1 -2 5 -6l10 -10 q1 -2 4 -4.5t5 -3.5l5 -5h1q15 -18 70 -52q55 -33 146 -46q4 0 10.5 -1t9.5 -1q10 -1 31 -1q74 0 164 31q89 30 193 103q157 137 230 333q7 18 25.5 12.5t13.5 -23.5q-20 -52 -48 -107q-109 -210 -312 -330q-202 -111 -428 -80q-220 36 -377 187q-156 152 -225 358 q-74 226 -38 459zM402 2321l82 94l308 -308l-41 -47z" />
<glyph unicode="&#xe9;" horiz-adv-x="1588" d="M61 1012q38 236 181 424q131 168 333 245q208 71 418 11q210 -64 347 -230q135 -162 182 -377l1 -3q1 -3 1 -8l11 -50h-23h-2h-232h-350h-404q-19 0 -19 20t19 20h162h501h31q-38 240 -142 397q-103 156 -247 182q-7 0 -11 1q-5 1 -16 1h-10q-122 0 -222 -105 q-100 -104 -158 -279q-60 -177 -61 -391v-3v-2q0 -25 1 -38v-4v-3q0 -15 1 -23q0 -9 1 -13v-5q0 -8 1 -12q0 -7 1 -10v-2v-1q0 -9 1 -14v-2v-1q1 -3 1 -7t1 -7q1 -24 6 -48q0 -8 1 -11q1 -2 1 -5q1 -2 1 -6t1 -6q0 -2 1 -3q0 -2 1 -6t1 -6v-3q1 -2 1 -6q1 -10 5 -23 q0 -3 1 -8t2 -8q1 -1 1 -4q0 -2 1 -5t1 -5t1.5 -6t2.5 -7v-1l3 -12q0 -3 1 -5l3 -9q0 -1 0.5 -3.5t1.5 -3.5q0 -3 2 -7q1 -2 2 -6.5t2 -7.5l9 -30q0 -1 1 -3.5t2 -4.5l3 -9v-1q4 -11 5 -14q1 -1 1 -2t1.5 -5t2.5 -6q0 -1 1 -2t1 -2q5 -12 5 -13q10 -25 19 -43q4 -8 6 -13 l1 -1q3 -8 7 -13q3 -8 7 -13q3 -8 7 -13q4 -8 7 -12q1 -2 5 -8.5t6 -10.5q1 -2 4 -5q1 -2 4 -6t4 -6q0 -1 2 -3t2 -3q11 -15 14 -19q4 -4 5 -6q1 -1 1 -2q5 -5 7 -8t6 -7q6 -8 9 -11q5 -5 7 -8q2 -1 6 -5l10 -10l8 -8q4 -4 6 -5v-1q17 -18 71 -52q55 -33 146 -46q7 -1 20 -1 q10 -1 30 -1h1q73 -1 164 30q89 32 193 103q157 137 230 333q5 11 16 13.5t18.5 -5t3.5 -18.5q-18 -52 -47 -108q-110 -210 -313 -330q-200 -111 -428 -80q-219 38 -376 187q-156 151 -226 358q-73 224 -37 459zM657 2107l308 308l82 -93l-349 -262z" />
<glyph unicode="&#xea;" horiz-adv-x="1577" d="M50 1012q38 236 181 423q134 170 334 246q208 71 417 11q210 -64 347 -230q135 -162 182 -377l1 -3q0 -2 1 -4t1 -4l10 -50h-23h-2h-231h-350h-404q-12 0 -17 10t0 20t17 10h162h500h31q-37 240 -141 396q-103 156 -248 182q-2 0 -5.5 1t-4.5 1q-6 1 -17 1h-10 q-121 0 -221 -105q-100 -104 -159 -279q-60 -179 -61 -391v-3v-2q0 -25 1 -38v-4v-3q1 -8 1 -23q1 -5 1 -13v-1v-4q1 -4 1 -12v-1q0 -6 1 -9v-2v-2q1 -4 1 -13v-2l1 -1q0 -9 1 -14q2 -17 6 -49q0 -2 1 -5.5t1 -4.5v-6q1 -2 1.5 -5.5t0.5 -5.5q1 -1 1 -4q1 -2 1.5 -5.5 t0.5 -5.5v-3q1 -1 1 -3t1 -3q1 -4 2.5 -12t1.5 -11q1 -3 2 -8t1 -8q1 -1 1 -2t0.5 -1.5t0.5 -1.5t1 -4t1 -5q2 -8 3 -13v-1l3 -12q1 -2 1 -5l3 -9q0 -1 0.5 -3.5t1.5 -3.5q0 -2 1 -4.5t1 -3.5q0 -3 2 -7t2 -7q3 -9 9 -29q1 -1 2 -3.5t1 -4.5l3 -9q0 -1 1 -1q1 -3 5 -14v-2 q0 -1 1.5 -5t2.5 -6q1 -1 1 -2q1 -2 1 -3q4 -8 6 -13l18 -42q3 -5 7 -13v-1v-1q3 -4 7 -12q3 -8 7 -13q3 -8 7 -13t7 -13l12 -18l3 -6q1 -1 2.5 -3t3 -4.5t2.5 -3.5t2 -3t2 -3q5 -7 15 -19q0 -1 1.5 -3t2.5 -3l2 -2l6 -9l6 -6q6 -8 9 -11l8 -8q2 -3 5 -5q3 -4 10 -11 q3 -3 9 -7v-1q3 -3 5 -4l1 -1q15 -18 70 -52q55 -33 146 -46q3 0 10 -1t10 -1q15 -1 31 0q73 -1 164 30q89 32 193 103q157 137 230 333q5 11 16 13.5t19 -5t4 -18.5q-21 -56 -48 -108q-110 -210 -312 -330q-202 -111 -428 -80q-219 38 -376 187q-157 151 -226 358 q-74 226 -38 459zM468 2061l313 313l312 -313h-170l-142 143l-143 -143h-170z" />
<glyph unicode="&#xeb;" horiz-adv-x="1579" d="M52 1011q38 235 181 423q133 170 333 245q207 72 418 12q210 -66 347 -231q135 -162 182 -376l1 -3q1 -3 1 -9l11 -49h-23h-2h-232h-350h-404q-19 0 -19 20t19 20h162h501h31q-38 239 -142 396q-103 156 -247 182q-3 1 -11 1q-3 0 -8.5 1t-7.5 1h-10q-121 0 -222 -105 q-100 -104 -158 -279q-60 -179 -61 -392v-2v-3q0 -25 1 -38v-4v-2q0 -16 1 -24q0 -8 1 -13v-4q0 -8 1 -12v-1q0 -7 1 -10v-2v-1q0 -9 1 -14v-1v-2q0 -3 1 -7t1 -7q2 -24 6 -48q1 -3 1 -11q1 -1 1 -5q0 -2 1 -6t1 -6t1 -3q0 -2 0.5 -5.5t1.5 -5.5v-3q1 -2 1 -6q1 -8 5 -24 l3 -15q1 -2 1 -5q1 -2 1 -5t1 -4q1 -3 2 -7t2 -7v-1l3 -12q0 -3 1 -4q1 -2 1 -5t1 -4q1 0 1 -1q1 -1 1.5 -3.5t0.5 -3.5q1 -1 1.5 -3.5t0.5 -3.5q0 -2 2 -6.5t2 -7.5q6 -20 9 -29l2 -4t1 -4t1 -5.5t2 -4.5q4 -10 5 -15l1 -1q1 -2 2.5 -6t1.5 -5t0.5 -2.5t1.5 -2.5 q5 -12 5 -13q10 -25 19 -43l6 -12q1 -1 1 -2q4 -8 7 -13q4 -8 7 -13q4 -8 7 -12q3 -8 7 -13q8 -12 11 -18q1 -1 2.5 -3t1.5 -3q1 -1 3.5 -5t4.5 -6v-1q1 -2 4 -5q3 -4 7 -10t7 -10q4 -4 5 -6q1 -1 1 -2q5 -5 7 -8t6 -7q1 -2 4 -5.5t5 -4.5q5 -5 7 -8l6 -6l10 -10l8 -8 q2 -1 6 -5q17 -18 71 -52q55 -33 146 -46q4 -1 10 -1t10 -1q10 -1 30 -1h1q74 0 164 31q89 30 193 103q157 137 230 333q5 10 16 12t18.5 -5t3.5 -18q-18 -52 -47 -108q-110 -211 -313 -329q-200 -111 -428 -81q-220 38 -376 188q-156 152 -225 357q-74 227 -38 460z M429 2179q0 49 35 84t84 35t84 -35t35 -84t-35 -84q-34 -34 -84 -34t-84 34q-35 35 -35 84zM887 2179q0 49 35 84t84 35q48 0 83 -35t35 -84t-35 -84q-34 -34 -83 -34q-50 0 -84 34q-35 35 -35 84z" />
<glyph unicode="&#xec;" horiz-adv-x="924" d="M74 -4q123 0 212 86q89 85 109 217q0 2 0.5 5.5t1.5 5.5v589l-1 -1v256v1q0 3 1 4v50q0 1 -1 1v4q-10 96 -69 159q-57 64 -137 64q-41 0 -77 -18l283 162h1l103 59l102 59h1v-594v-795q0 -7 1 -11q20 -131 109 -217q91 -86 212 -86h-346h-23h-159h-323zM185 2324l81 93 l308 -308l-40 -47z" />
<glyph unicode="&#xed;" horiz-adv-x="915" d="M64 -4q123 0 212 86q90 86 110 217q0 8 1 11v589q0 -1 -1 -1v256q0 1 1 2v3v50v1q0 3 -1 4q-10 96 -69 159q-57 64 -137 64q-41 0 -77 -18l283 162h1l103 59l102 59h1v-594v-795q1 -3 1 -11q20 -131 109 -217q91 -86 213 -86h-346h-24h-159h-323zM279 2104l308 308 l81 -94l-348 -261z" />
<glyph unicode="&#xee;" horiz-adv-x="937" d="M86 -4q123 0 212 86q90 86 110 217q1 4 1 11v589v-1v256v2v3v50v1v4q-11 96 -69 159q-58 64 -138 64q-40 0 -77 -18l284 162l103 59l103 59v-594v-795q1 -2 1.5 -5.5t0.5 -5.5q20 -132 108 -217q91 -86 213 -86h-346h-24h-159h-323zM97 2058l312 313l313 -313h-170 l-143 143l-143 -143h-169z" />
<glyph unicode="&#xef;" horiz-adv-x="953" d="M101 2175q0 49 34 83q35 35 84 35t84 -35t35 -83q0 -49 -35 -84q-34 -34 -84 -34t-84 34t-34 84zM103 -4q121 0 212 86q89 85 109 217q1 4 1 11v589v-1v256v2v3v50v1v4q-11 96 -69 159q-58 64 -137 64q-41 0 -77 -18l283 162h1l103 59l102 59h1v-594v-795q0 -7 1 -11 q20 -132 109 -217q91 -86 212 -86h-346h-23h-160h-322zM558 2175q0 48 35 83t84 35t84 -35t35 -83q0 -49 -35 -84q-34 -34 -84 -34t-84 34q-35 35 -35 84z" />
<glyph unicode="&#xf0;" horiz-adv-x="2063" d="M90 2327q70 6 143 6q271 0 516 -78l329 329h170l-373 -374q386 -158 642 -463q256 -304 324 -704q39 -167 13 -338q-34 -227 -181 -415q-135 -165 -332 -249q-44 -19 -92 -33q-267 -75 -526 19q-245 94 -400 309q-157 226 -159 503q0 70 10 133q44 268 225 461 q183 195 447 253q236 47 461 -36q-206 290 -524 468l-422 -421h-170l479 479q-267 124 -580 151zM469 839q-1 -201 59.5 -378t165.5 -293.5t233 -148.5q90 -10 184 2q128 32 232 148.5t163.5 293t59.5 376.5q0 201 -59 375q-60 174 -160.5 289t-228.5 153q-97 13 -198 1 q-130 -37 -231 -153t-161 -288q-59 -174 -59 -377zM1167 2594l9 8l-4 -4z" />
<glyph unicode="&#xf1;" horiz-adv-x="1849" d="M36 -7q122 0 211 86q90 86 110 218q1 4 1 11v588v-1v256v2v3v50v1v4q-10 96 -69 159q-58 64 -137 64q-41 0 -77 -18l283 162h1l103 59l102 59v-247q35 53 83 98q107 98 245 131t278 -6q248 -78 351 -315q41 -103 41 -257v-625v-183q21 -129 110 -215q88 -84 210 -84h-357 h-10h-117h-16h-351q123 0 211 85q89 86 110 215v857q0 178 -105 314q-102 135 -268 188q-123 -11 -226 -75q-102 -62 -167 -169q-11 -17 -22 -40v-29v-237v-794q1 -2 1.5 -5.5t0.5 -5.5q20 -133 109 -218q91 -86 212 -86h-323h-1h-1h-42h-2h-1h-159h-322zM606 2201 q3 3 19 11t46 17t65 13.5t80 -3t86 -29.5q81 -41 151 -34q72 7 119 41l67 -100q-94 -61 -205 -61q-97 -1 -190 49q-24 13 -50.5 17t-47.5 0.5t-39 -9t-28 -9.5l-10 -5z" />
<glyph unicode="&#xf2;" horiz-adv-x="1819" d="M21 849q0 235 115 428q116 194 308 309q193 115 429 115t429 -115q194 -116 309 -309t115 -428q0 -237 -115 -430q-115 -192 -309 -308q-193 -115 -429 -115t-429 115t-308 308t-115 430zM323 849q0 -223 74 -409q75 -184 200 -294t277 -110t277 110q126 111 199 294 q75 184 75 409q0 223 -75 408q-74 185 -199 295t-277 110t-277 -110t-200 -295q-74 -186 -74 -408zM481 2321l82 94l308 -309l-41 -47z" />
<glyph unicode="&#xf3;" horiz-adv-x="1845" d="M47 844q0 236 115 429q116 194 308 309q193 115 429 115t429 -115q194 -116 309 -309t115 -429t-115 -429q-115 -192 -309 -308q-193 -115 -429 -115t-429 115t-308 308t-115 429zM349 845q0 -224 74 -410q75 -184 200 -294q124 -109 277 -109t277 109q126 111 199 294 q74 186 74 410q0 222 -74 408q-73 183 -199 294q-125 110 -277 110t-277 -110t-200 -294q-74 -186 -74 -408zM868 2106l308 309l82 -94l-349 -262z" />
<glyph unicode="&#xf4;" horiz-adv-x="1847" d="M49 849q0 236 115 429q116 194 308 309q193 115 430 115q235 0 428 -115q194 -115 309 -309q115 -193 115 -429t-115 -429q-115 -192 -309 -308q-193 -115 -428 -115q-237 0 -430 115t-308 308t-115 429zM352 850q0 -224 74 -410q73 -183 199 -294q124 -109 277 -109 t277 109q126 111 199 294q75 184 75 410q0 224 -75 408q-73 183 -199 294q-125 110 -277 110t-277 -110q-126 -111 -199 -294q-74 -186 -74 -408zM590 2057l312 312l313 -312h-170l-143 142l-142 -142h-170z" />
<glyph unicode="&#xf5;" horiz-adv-x="1839" d="M41 850q0 235 115 428q116 194 308 309q193 115 430 115q235 0 428 -115q194 -115 309 -309q115 -193 115 -428q0 -237 -115 -430q-115 -192 -309 -308q-193 -115 -428 -115q-237 0 -430 115t-308 308t-115 430zM343 850q0 -224 74 -410q75 -184 200 -294 q124 -109 277 -109t277 109q126 111 199 294q75 184 75 410q0 224 -75 408q-73 183 -199 294q-125 110 -277 110t-277 -110t-200 -294q-74 -186 -74 -408zM542 2203q3 3 18.5 11t46 17t65 13t79.5 -3t86 -29q83 -41 152 -34q70 7 119 41l66 -100q-93 -60 -204 -62 q-99 0 -191 50q-17 9 -36 13.5t-35.5 5t-32.5 -2t-28.5 -6t-22 -7.5t-14.5 -6l-6 -3z" />
<glyph unicode="&#xf6;" horiz-adv-x="1839" d="M41 849q0 236 115 429q116 194 308 309q193 115 429 115t429 -115q194 -115 309 -309q115 -193 115 -429t-115 -429q-115 -192 -309 -308q-193 -115 -429 -115t-429 115t-308 308t-115 429zM343 850q0 -224 74 -410q75 -184 200 -294q124 -109 277 -109t277 109 q126 111 199 294q75 184 75 410q0 224 -75 408q-73 183 -199 294q-125 110 -277 110t-277 -110t-200 -294q-74 -186 -74 -408zM574 2175q0 49 34 83q35 35 84 35t84 -35t35 -83q0 -49 -35 -84q-34 -34 -84 -34t-84 34t-34 84zM1031 2175q0 48 35 83t84 35t84 -35t35 -83 q0 -49 -35 -84q-34 -34 -84 -34t-84 34q-35 35 -35 84z" />
<glyph unicode="&#xf7;" horiz-adv-x="1193" />
<glyph unicode="&#xf8;" horiz-adv-x="2034" d="M81 -3l295 296q-99 116 -153 258t-54 299q0 235 115 428q116 194 308 309q193 115 430 115q318 0 557 -207l207 207h169l-291 -291q210 -242 210 -561q0 -237 -115 -430q-115 -192 -309 -308q-193 -115 -428 -115q-321 0 -561 211l-211 -211h-169zM472 850 q0 -213 68 -393l908 908q-77 140 -188 218.5t-238 78.5q-152 0 -277 -110q-126 -111 -199 -294q-74 -186 -74 -408zM593 340q76 -139 188 -222q111 -81 241 -81q153 0 277 109q126 111 199 294q75 184 75 410q0 216 -71 399z" />
<glyph unicode="&#xf9;" horiz-adv-x="1740" d="M-99 1419l285 163l1 1l19 11l84 48l37 21l28 16l1 1l5 2l6 4l27 15v-19l2 -1134q0 -178 104 -315q104 -136 270 -187q4 1 11 1q143 17 255 102q113 87 164 221q7 16 12 35v490v258v60q-10 97 -69 160q-58 64 -139 64q-41 0 -77 -18l285 163v1h1l103 59l103 59h1 q0 -28 -1 -84v-194q0 -142 -1 -203v-114v-795q17 -135 107 -224q92 -89 216 -89h-370q-12 0 -18 1q-57 6 -94 40q-47 41 -47 98v162q-26 -48 -50 -80q-90 -115 -221 -171q-132 -56 -276 -40q-245 35 -388 238q-65 98 -85 217q-6 63 -6 126v444v183q-12 97 -70 158 q-58 63 -138 63q-41 0 -77 -18zM447 2313l81 94l308 -308l-40 -47z" />
<glyph unicode="&#xfa;" horiz-adv-x="1754" d="M-85 1419l286 163v1l19 11l85 48l37 21l27 16l1 1l5 2l6 4l27 15h1v-19l1 -1134q0 -178 104 -315q104 -136 270 -187h1q7 0 10 1q143 17 255 102q112 87 165 221q7 20 11 35v490v257v1v60q-10 97 -69 160q-58 64 -138 64q-41 0 -78 -18l285 163l1 1l104 59l103 59v-84 q0 -120 -1 -194v-203v-114v-795q17 -135 107 -224q91 -89 215 -89h-369q-12 0 -18 1q-58 6 -95 40q-47 41 -47 98v161q-19 -39 -50 -79q-88 -115 -221 -171q-132 -56 -275 -40q-245 34 -388 238q-67 98 -85 217q-7 57 -7 126v444v183q-12 97 -70 158q-58 63 -137 63 q-41 0 -78 -18zM798 2099l308 308l82 -94l-349 -261z" />
<glyph unicode="&#xfb;" horiz-adv-x="1746" d="M-92 1419l285 163l1 1l19 10l84 49l37 21l28 16h1l5 3l6 4l26 15h1v-19l2 -1134q0 -178 104 -315q104 -136 270 -187q7 0 11 1q142 15 255 102q111 86 164 221q7 16 12 35v490v257v1v60q-10 96 -70 160q-58 64 -138 64q-41 0 -77 -18l285 163v1h1l103 59l103 59h1 q0 -28 -1 -84v-195q0 -141 -1 -202v-114v-795q17 -135 107 -224q92 -89 215 -89h-369q-12 0 -18 1q-57 6 -94 40q-47 41 -47 98v161q-22 -40 -51 -79q-88 -115 -220 -171t-276 -40q-245 35 -388 238q-65 98 -85 217q-6 61 -6 126v444v183q-12 97 -70 158q-59 63 -138 63 q-41 0 -77 -18zM523 2057l312 312l313 -312h-170l-143 142l-143 -142h-169z" />
<glyph unicode="&#xfc;" horiz-adv-x="1750" d="M-89 1419l285 163h1v1l19 10l85 49l37 21l27 16h1l5 3l6 4l27 15v-19l2 -1134q0 -178 104 -315q104 -136 270 -187h1q7 0 10 1q143 15 255 102t165 221q7 20 11 35v490v257v60v1q-10 97 -69 160q-58 64 -139 64q-41 0 -77 -18l285 163h1v1l104 59l103 59v-84 q0 -120 -1 -194q0 -142 -1 -203v-114v-795q16 -136 107 -225q91 -88 216 -88h-369q-13 0 -18 1q-58 6 -95 39q-47 41 -47 99v161q-19 -39 -50 -79q-88 -115 -221 -171q-132 -56 -276 -40q-245 34 -387 237q-67 100 -85 218q-7 57 -7 126v444v183q-12 97 -70 158 q-59 63 -137 63q-41 0 -78 -18zM489 2175q0 49 34 83q35 35 84 35t84 -35t35 -83q0 -49 -35 -84q-34 -34 -84 -34t-84 34t-34 84zM946 2175q0 48 35 83t84 35t84 -35t35 -83q0 -49 -35 -84q-34 -34 -84 -34t-84 34q-35 35 -35 84z" />
<glyph unicode="&#xfd;" horiz-adv-x="1705" d="M-393 -392q0 79 56 135t135 56q78 0 136 -56q56 -56 56 -135q0 -74 -48 -127q-50 -54 -123 -63q191 -110 375 -106q188 11 332 125q137 109 231 259q74 114 124 231l-32 81v1l-18 44l-189 479l-340 842q-13 31 -64 99q-50 68 -150 136q-98 68 -250 92h894 q-82 0 -139 -41.5t-78.5 -104t-10.5 -131.5l322 -795l2 -7l154 -380l32 95l5 17l13 38l328 1008q3 92 -52 159q-53 66 -144 104t-185 38h893q-85 -12 -159.5 -41.5t-122.5 -63t-88.5 -75.5t-59 -70t-32.5 -54l-432 -1331l-1 -1l-3 -9l-2 -5l-18 -53q-1 -1 -1 -2q-1 -1 -1 -2 t-0.5 -1.5t-0.5 -1.5q-13 -36 -37 -88q-64 -145 -153 -272q-102 -153 -257 -259q-166 -108 -364 -99q-210 15 -424 162q-50 24 -79.5 70t-29.5 103zM879 2104l308 308l81 -94l-348 -261z" />
<glyph unicode="&#xfe;" horiz-adv-x="1558" d="M88 -1q123 0 212 86q89 85 109 218q1 2 1.5 5.5t0.5 5.5v1072q-1 2 -1.5 5.5t-0.5 5.5q-20 133 -109 218q-89 86 -212 86h323h44h117h45h322q-121 0 -212 -86q-90 -87 -109 -218q-1 -4 -1 -11v-182q97 170 262 215q97 25 191 -7t162 -101t110 -160q71 -161 62 -337 q-8 -177 -99 -327q-79 -128 -219 -187q-137 -49 -272 13q-128 65 -197 189v-188q0 -8 1 -11q19 -131 109 -218q91 -86 212 -86h-341h-28h-159h-323zM617 593q37 -94 102.5 -162.5t153.5 -98.5q105 70 169 203q64 131 64 295q0 183 -78 324q-78 142 -203 201 q-141 -73 -208 -240v-522z" />
<glyph unicode="&#xff;" horiz-adv-x="1705" d="M-393 -393q0 80 56 136t135 56t135 -56t56 -136q0 -74 -48 -127q-48 -52 -122 -63q195 -110 375 -106q185 11 332 126q136 109 231 258q74 116 124 231l-32 81v1l-18 44l-189 480l-340 842q-13 31 -64 99q-50 68 -150 136q-95 66 -250 92h893q-81 0 -138 -42 t-78.5 -104.5t-10.5 -130.5l322 -796l2 -7l154 -379l32 94l5 17l13 39l328 1008q3 91 -52 158q-54 68 -144 105q-91 38 -185 38h893q-85 -12 -159.5 -41.5t-122.5 -63t-88.5 -75.5t-59 -70t-32.5 -54l-432 -1331l-1 -2l-3 -8l-2 -5l-19 -53h1q-1 -1 -1 -2t-0.5 -2.5 t-1.5 -2.5q-11 -30 -37 -88q-63 -144 -153 -273q-103 -152 -257 -258q-166 -109 -364 -100q-211 16 -424 162q-50 24 -79.5 70.5t-29.5 102.5zM623 2175q0 48 35 83t84 35q48 0 83 -35t35 -83q0 -49 -35 -84q-34 -34 -83 -34q-50 0 -84 34q-35 35 -35 84zM1081 2175 q0 49 34 83q35 35 84 35t84 -35t35 -83q0 -49 -35 -84q-34 -34 -84 -34t-84 34t-34 84z" />
<glyph unicode="&#x2000;" horiz-adv-x="1784" />
<glyph unicode="&#x2001;" horiz-adv-x="3568" />
<glyph unicode="&#x2002;" horiz-adv-x="1784" />
<glyph unicode="&#x2003;" horiz-adv-x="3568" />
<glyph unicode="&#x2004;" horiz-adv-x="1189" />
<glyph unicode="&#x2005;" horiz-adv-x="892" />
<glyph unicode="&#x2006;" horiz-adv-x="594" />
<glyph unicode="&#x2007;" horiz-adv-x="594" />
<glyph unicode="&#x2008;" horiz-adv-x="446" />
<glyph unicode="&#x2009;" horiz-adv-x="713" />
<glyph unicode="&#x200a;" horiz-adv-x="198" />
<glyph unicode="&#x2010;" horiz-adv-x="1161" />
<glyph unicode="&#x2011;" horiz-adv-x="1161" />
<glyph unicode="&#x2012;" horiz-adv-x="1161" />
<glyph unicode="&#x2013;" horiz-adv-x="920" />
<glyph unicode="&#x2014;" horiz-adv-x="1243" />
<glyph unicode="&#x2018;" horiz-adv-x="289" />
<glyph unicode="&#x2019;" horiz-adv-x="289" />
<glyph unicode="&#x201a;" horiz-adv-x="290" />
<glyph unicode="&#x201c;" horiz-adv-x="685" />
<glyph unicode="&#x201d;" horiz-adv-x="684" />
<glyph unicode="&#x201e;" horiz-adv-x="684" />
<glyph unicode="&#x202f;" horiz-adv-x="713" />
<glyph unicode="&#x205f;" horiz-adv-x="892" />
<glyph unicode="&#x20ac;" horiz-adv-x="1773" />
<glyph unicode="&#x2122;" horiz-adv-x="916" />
<glyph unicode="&#x25fc;" horiz-adv-x="1705" d="M0 0v1705h1705v-1705h-1705z" />
</font>
</defs>
</svg>
